<mxfile host="Electron" modified="2023-05-04T20:50:09.009Z" agent="Mozilla/5.0 (Windows NT 10.0; Win64; x64) AppleWebKit/537.36 (KHTML, like Gecko) draw.io/21.2.1 Chrome/112.0.5615.87 Electron/24.1.2 Safari/537.36" etag="o_WZUbzlvCuab2T5RLqo" version="21.2.1" type="device">
  <diagram name="Страница 1" id="37p3o2mmY32P-U59TKt1">
    <mxGraphModel dx="2307" dy="877" grid="0" gridSize="10" guides="1" tooltips="1" connect="1" arrows="1" fold="1" page="1" pageScale="1" pageWidth="827" pageHeight="1169" math="0" shadow="0">
      <root>
        <mxCell id="0" />
        <mxCell id="1" parent="0" />
        <mxCell id="QO3FM6eET1I9dAZVLfsa-1" value="Source layer" style="text;html=1;align=center;verticalAlign=middle;resizable=0;points=[];autosize=1;strokeColor=none;fillColor=none;fontStyle=5;fontSize=20;" parent="1" vertex="1">
          <mxGeometry x="46" y="55" width="140" height="40" as="geometry" />
        </mxCell>
        <mxCell id="QO3FM6eET1I9dAZVLfsa-2" value="&lt;font style=&quot;font-size: 20px;&quot;&gt;&lt;b&gt;Business layer&lt;/b&gt;&lt;/font&gt;" style="text;html=1;align=center;verticalAlign=middle;resizable=0;points=[];autosize=1;strokeColor=none;fillColor=none;fontStyle=4" parent="1" vertex="1">
          <mxGeometry x="573" y="55" width="160" height="40" as="geometry" />
        </mxCell>
        <mxCell id="QO3FM6eET1I9dAZVLfsa-3" value="&lt;font style=&quot;font-size: 20px;&quot;&gt;&lt;b&gt;Storаge layer&lt;/b&gt;&lt;/font&gt;" style="text;html=1;align=center;verticalAlign=middle;resizable=0;points=[];autosize=1;strokeColor=none;fillColor=none;fontStyle=4" parent="1" vertex="1">
          <mxGeometry x="310" y="55" width="150" height="40" as="geometry" />
        </mxCell>
        <mxCell id="QO3FM6eET1I9dAZVLfsa-4" value="" style="endArrow=none;html=1;rounded=0;dashed=1;" parent="1" edge="1">
          <mxGeometry width="50" height="50" relative="1" as="geometry">
            <mxPoint x="240" y="720" as="sourcePoint" />
            <mxPoint x="240" y="38" as="targetPoint" />
          </mxGeometry>
        </mxCell>
        <mxCell id="QO3FM6eET1I9dAZVLfsa-5" value="" style="endArrow=none;html=1;rounded=0;dashed=1;" parent="1" edge="1">
          <mxGeometry width="50" height="50" relative="1" as="geometry">
            <mxPoint x="530" y="334" as="sourcePoint" />
            <mxPoint x="530" y="40" as="targetPoint" />
          </mxGeometry>
        </mxCell>
        <mxCell id="idugW8RmlfMsUO6L2Yv1-6" value="" style="fontColor=#0066CC;verticalAlign=top;verticalLabelPosition=bottom;labelPosition=center;align=center;html=1;outlineConnect=0;fillColor=#CCCCCC;strokeColor=#6881B3;gradientColor=none;gradientDirection=north;strokeWidth=2;shape=mxgraph.networks.users;" parent="1" vertex="1">
          <mxGeometry x="702.8" y="340" width="100" height="110" as="geometry" />
        </mxCell>
        <mxCell id="idugW8RmlfMsUO6L2Yv1-7" value="" style="fontColor=#0066CC;verticalAlign=top;verticalLabelPosition=bottom;labelPosition=center;align=center;html=1;outlineConnect=0;fillColor=#CCCCCC;strokeColor=#6881B3;gradientColor=none;gradientDirection=north;strokeWidth=2;shape=mxgraph.networks.storage;" parent="1" vertex="1">
          <mxGeometry x="290" y="265" width="189" height="260" as="geometry" />
        </mxCell>
        <mxCell id="idugW8RmlfMsUO6L2Yv1-8" value="" style="sketch=0;shadow=0;dashed=0;html=1;strokeColor=#6881B3;labelPosition=center;verticalLabelPosition=bottom;verticalAlign=top;outlineConnect=0;align=center;shape=mxgraph.office.databases.database;fillColor=#CCCBCB;perimeterSpacing=1;strokeWidth=2;" parent="1" vertex="1">
          <mxGeometry x="65" y="150" width="85" height="90" as="geometry" />
        </mxCell>
        <mxCell id="idugW8RmlfMsUO6L2Yv1-11" value="CRM" style="text;html=1;align=center;verticalAlign=middle;resizable=0;points=[];autosize=1;strokeColor=none;fillColor=none;fontStyle=1" parent="1" vertex="1">
          <mxGeometry x="80" y="190" width="50" height="30" as="geometry" />
        </mxCell>
        <mxCell id="idugW8RmlfMsUO6L2Yv1-15" value="" style="sketch=0;shadow=0;dashed=0;html=1;strokeColor=#6881B3;labelPosition=center;verticalLabelPosition=bottom;verticalAlign=top;outlineConnect=0;align=center;shape=mxgraph.office.databases.database;fillColor=#CCCBCB;perimeterSpacing=1;strokeWidth=2;" parent="1" vertex="1">
          <mxGeometry x="62.5" y="260" width="85" height="90" as="geometry" />
        </mxCell>
        <mxCell id="idugW8RmlfMsUO6L2Yv1-16" value="Заказы" style="text;html=1;strokeColor=none;fillColor=none;align=center;verticalAlign=middle;whiteSpace=wrap;rounded=0;fontStyle=1" parent="1" vertex="1">
          <mxGeometry x="75" y="300" width="60" height="30" as="geometry" />
        </mxCell>
        <mxCell id="idugW8RmlfMsUO6L2Yv1-17" value="" style="sketch=0;shadow=0;dashed=0;html=1;strokeColor=#6881B3;labelPosition=center;verticalLabelPosition=bottom;verticalAlign=top;outlineConnect=0;align=center;shape=mxgraph.office.databases.database;fillColor=#CCCBCB;perimeterSpacing=1;strokeWidth=2;" parent="1" vertex="1">
          <mxGeometry x="65" y="370" width="85" height="90" as="geometry" />
        </mxCell>
        <mxCell id="idugW8RmlfMsUO6L2Yv1-18" value="1С бухгалтерия" style="text;html=1;strokeColor=none;fillColor=none;align=center;verticalAlign=middle;whiteSpace=wrap;rounded=0;fontStyle=1" parent="1" vertex="1">
          <mxGeometry x="77.5" y="406.25" width="60" height="30" as="geometry" />
        </mxCell>
        <mxCell id="idugW8RmlfMsUO6L2Yv1-19" value="" style="sketch=0;shadow=0;dashed=0;html=1;strokeColor=#6881B3;labelPosition=center;verticalLabelPosition=bottom;verticalAlign=top;outlineConnect=0;align=center;shape=mxgraph.office.databases.database;fillColor=#CCCBCB;perimeterSpacing=1;strokeWidth=2;" parent="1" vertex="1">
          <mxGeometry x="65" y="480" width="85" height="90" as="geometry" />
        </mxCell>
        <mxCell id="idugW8RmlfMsUO6L2Yv1-20" value="Инвентарь" style="text;html=1;strokeColor=none;fillColor=none;align=center;verticalAlign=middle;whiteSpace=wrap;rounded=0;fontStyle=1" parent="1" vertex="1">
          <mxGeometry x="80" y="520" width="60" height="30" as="geometry" />
        </mxCell>
        <mxCell id="idugW8RmlfMsUO6L2Yv1-30" value="" style="shape=image;verticalLabelPosition=bottom;labelBackgroundColor=default;verticalAlign=top;aspect=fixed;imageAspect=0;image=data:image/jpeg,/9j/4AAQSkZJRgABAQAASABIAAD/2wBDAAUDBAQEAwUEBAQFBQUGBwwIBwcHBw8LCwkMEQ8SEhEPERETFhwXExQaFRERGCEYGh0dHx8fExciJCIeJBweHx7/2wBDAQUFBQcGBw4ICA4eFBEUHh4eHh4eHh4eHh4eHh4eHh4eHh4eHh4eHh4eHh4eHh4eHh4eHh4eHh4eHh4eHh4eHh7/wAARCAGDAkQDASIAAhEBAxEB/8QAHQABAAICAwEBAAAAAAAAAAAAAAEIAgcDBQYECf/EAFcQAAECBAEDDwYHDAkEAwEAAAABAgMEBREGBwgSFBghMTQ2UVR1kZOUsbPRE3Fyc4HSFRYiM0FSoRcjJCYyN0JWYXSy4jVTVYKDhJLBwkNioqQlY2Th/8QAGgEBAAIDAQAAAAAAAAAAAAAAAAMFAQQGAv/EADYRAQABAgEJBwQBBAMBAQAAAAABAgMRBAUSExUxMmFxIUFSkaGx4TRCUYEUIjPR8CNDwTVi/9oADAMBAAIRAxEAPwC5YAAAAAAAAAAAAAAAAAAAAAAAAAAAAAAAAAAAAAAAAAAAAAAAAAAAAAAAAAAAAAAAAAAAAAAAAAAAAAAAAAAAAAAAAAAAAAAAAAAAAAAAAAAAAAAAAAAAAARpJwpzklHsdzc23G1da2ajoiVGOiIkRdj7448V16DRy7Lf4lNM6OOK8Gk3hTnGk3hTnKDatnONzHSu8Rq2c43MdK7xItfyVu3Y8Hr8L86TeFOcaTeFOcoNq2c43MdK7xGrZzjcx0rvEa/kbdjwevwvzpN4U5xpN4U5yg2rZzjcx0rvEatnONzHSu8Rr+Rt2PB6/C/Ok3hTnGk3hTnKDatnONzHSu8Rq2c43MdK7xGv5G3Y8Hr8L86TeFOcaTeFOcoNq2c43MdK7xGrZzjcx0rvEa/kbdjwevwvzpN4U5xpN4U5yg2rZzjcx0rvEatnONzHSu8Rr+Rt2PB6/C/Ok3hTnGk3hTnKDatnONzHSu8Rq2c43MdK7xGv5G3Y8Hr8L86TeFOcaTeFOcoNq2c43MdK7xGrZzjcx0rvEa/kbdjwevwvzpN4U5xpN4U5yg2rZzjcx0rvEatnONzHSu8Rr+Rt2PB6/C/Ok3hTnGk3hTnKDatnONzHSu8Rq2c43MdK7xGv5G3Y8Hr8L86TeFOcaTeFOcoNq2c43MdK7xGrZzjcx0rvEa/kbdjwevwvzpN4U5xpN4U5yg2rZzjcx0rvEatnONzHSu8Rr+Rt2PB6/C/Ok3hTnGk3hTnKDatnONzHSu8Rq2c43MdK7xGv5G3Y8Hr8L86TeFOcaTeFOcoNq2c43MdK7xGrZzjcx0rvEa/kbdjwevwvzpN4U5xpN4U5yg2rZzjcx0rvEatnONzHSu8Rr+Rt2PB6/C/Ok3hTnGk3hTnKDatnONzHSu8Rq2c43MdK7xGv5G3Y8Hr8L86TeFOcaTeFOcoNq2c43MdK7xGrZzjcx0rvEa/kbdjwevwvzpN4U5xpN4U5yg2rZzjcx0rvEatnONzHSu8Rr+Rt2PB6/C/Ok3hTnGk3hTnKDatnONzHSu8Rq2c43MdK7xGv5G3Y8Hr8L86TeFOcaTeFOcoNq2c43MdK7xGrZzjcx0rvEa/kbdjwevwvzpN4U5yUVF2luUF1bOcbmOld4ll80+LFi4JqbosR8RUqKpdzlX/ps4T3Rd0pwwbWR51jKbsW9HD9txgAlWwAAAAAAAAAAAAAAAAAAAAAAAAAAAAAAAAAAAAAFGMe7+K7yjMd44vOUYx7v4rvKMx3jiC9uhQ594KOs+zpQAQObAAAAAAAAAAAAAAAAAAAAAAAAAAAAAAAAAAAAAAAAAAAAAAAAAAALN5pW8eqcor3bCshZvNK3j1TlFe7YSWuJaZn+qjpLcwANp1wAAAAAAAAAAAAAAAAAAAAAAAAAAAAAAAAAAAAAFF8er+PFd5RmO8cXoKL4938V7lGY7xxBf3Qos+8FHWfZ0lxcA13NFxcABcXAAXFwAFxcABcXAAXFwAFxcABcXAAXFwAFxcABcXAAXFwAFxcABcXAAXFwAFxcABcXAAXFwAFxcABcs5mk7x6pyivdsKxlnM0nePVOUV7thLa4lpmf6qOktzgA2nXAAAAAAAAAAAAAAAAAAAAAAAAAAAAAAAAAAAAAAUWx6v4817lGY7xxekorj7fzXuUZjvHEF7dCiz7wUdZ9nTXFzEEDm8GVxcxAMGVxcxAMGVxcxAMGVxcxAMGVxcxAMGVxcxAMGVxcxAMGVxcxAMGVxcxAMGVxcxAMGVxchqK52i1FVV+hD73UWsNp8SoOpU82Th2047oDkY262T5SpbbUMxTM7nw3FzEBjBlcXMQDBlcXMQDBlcXMQDBlcXMQDBlcXMQDBlcXMQDBlcXMQDBlcs5mkbxqpyivdsKwlns0feNVOUV7thJa4lpmf6qOktzgA2nWgAAAAAAAAAAAAAAAAAAAAAAAAAAAAAAAAAAAAAUVx9v5r3KMx3ji9RRTH2/mvcpTHeOIL+6FFn3go6z7OlBANdziQQAJBAAkEACQQAJBBlChxIr0ZCY6I5dpGpdfsAgHoaTgbGNVssjhupxWrtOWArG87rIeupOQrHk7ZZiBIyDV/r5hFVPY256iiZ7k9GS3rnDTM/prAG/aTm5uWy1XE7U4Wystf7XL/seupOQbAspZZptQqDk2/KzGii+xqIeotVS26M05TVvjDrKql04T65Cm1GoPRkhITc05dpIMFz+xC6FIyf4KpVlksM01jk2nPgpEdzuup6SXgwYDEZAhQ4TE2msajU+w9xY/MtujMdX31+UKbUnJTlAqVlg4bmoLV/SmFbCT/yVFPXUnN5xZMWdUKlTJFv0ojnRXJzIifaWgCHuLNLcozNk9PFMz/vJo6k5udFhaLqpiCemV+lsCG2En26Snr6TkXye0+yrRXTjk+majuf9l0T7DYYPUW6Y7m5RkGTUbqI9/d1VLw3h6ltRKdRKdK22lhS7Wrz2ueSzitjJDWLf/V3jTYRr3OK/NDWf8LvWmauGXrKqYpyeuIjun2U8BANJxCQQAJBAAkEACQQAJBAAkEACQQAJLO5o+8aqcor3bCsJZ7NG3jVTlJe7YS2uJZ5o+qjpLdAANp1oAAAAAAAAAAAAAAAAAAAAAAAAAAAAAAAAAAAAAFFMfb+a9ylMd44vWUUx9v5r3KMx3jiC9uhRZ84KOs+zpAAQOcAAAAABEutk2z3dIyR4+qTWvZRFlobkRUfMxWw9jzXv9h4aF86z0kL3yW4oHqm9iEluiKt6zzdkVGUzVpzPYrtSs3uvRrOqVcp8qn0thMdFX/ZD11KzfcMwLLUatUpxfpRmjCav2Kv2m4UMkJot0wu6M2ZNR9uPV4mk5J8AU6yw8PQJhyfpTL3RV5lW32Hq6dSaVTmo2QpsnKNT6IMBrOxD6zI9xERublFm3Rw0xH6ZXuEIQkykSZGJKAZkmKEoGWRJCEhlIIQkAa9zi/zQ1n/C71psI15nG7GSCs/4XetPNfDLXyv+xX0n2U8BCKttpRs8Cmm4fBII2eBRs8CgwSCNngUbPAoMEgjZ4FGzwKDBII2eBR50sDBIAAAAAAABZ7NG3jVTlJe7YVhLPZo28aqcor3bCS1xLPNH1UdJboABtOtAAAAAAAAAAAAAAAAAAAAAAAAAAAAAAAAAAAAAAonj5fx5r3KUx3ji9hRLH2/mvcpTHeOIL26FHnzgo6z7OluLkAgc5gm4uQAYJuLkAGDJi/fGekhfCR3FA9U3sQoanzjPSTtL4yO4pf1TexCaz3r7Mn3/AK/9c5kYopKE6+ZIShihkZZSZGJKAZIShihIGSGSGCGSBlkZGKEoCEkkEoGQ8/lCa1+E5tr2o5qqy6Kl0/KQ9AdBlA3qzXnZ/Ehidzxc4JeLoUpKqjbysBf8ND21KkZJWpeSluib4Hj6Bezdg9xSkXRbsHmlr2Ih9nwdT+IyvRN8B8HU/iMr0TfA+kHttaMfh83wdT+IyvRN8B8HU/iMr0TfA+kA0Y/D5vg6n8Rleib4D4Op/EZXom+B9IBox+HzfB1P4jK9E3wPgr9AotTo03JTtLlIsGLCcjkWE3g20W2wv7TuDinNyRvVu7BgxVTTMYTD8/X2bFe1NpHKguYxV/CInpr2kmi4OY7U3FyAGME3FyADBNyz+aNvGqnKS92wq+WfzRd41U5SXu2ElriWeaPqY6S3SADadYAAAAAAAAAAAAAAAAAAAAAAAAAAAAAAAAAAAAABRHH2/qvcpTHeOL3FEcfb+q9ylMd44gvboUefOCjrPs6QAEDnQAAAAAT5xnpJ2l8ZFfwKX9U3sQoanzjPSTtL4yO4oHqm9iE1nvXuZfv/AF/650UyQwM0J4XzIkwMkUyMrkopiShhlmShihKGRkhKGJkGWSEmJkgGQIQkMpNaZzkWLAyLVuJBivhPRYNnMcqKn31n0obLQ1jnR/mRrnng96w81bpQ5R/Zq6SpxJ1irtRLVWfTzTD/ABO1gV2toiWrNRT/ADT/ABPOSm0h2UDaNTFx1dVX5WFzSqjUJ3ElbZOT81MtbJsVqRoznoi6f0XU+7O4n56SiYe1HOzMtppH0vIxXM0vyNuynT5n2+au/uUP+M+/PF+dw55o/wDwJv8ArW9NU7Mmcf8AcWjvh6uf21UutP8AEfD1c/tqpdaf4nXAgxlR6dX5dj8PVz+2ql1p/ifVR65W3VeSa6s1FUWYhoqLNP2flJ+06Q+ui/0zI/vMP+JBjLNNdWMdq/ybSHFObkjerd2HKm0hxTm5I3q3dhvO6nc/PiJuiL6a9pkm0YxN0RPTXtMk2jRcHVvSAAwAAAWgzRN4tU5SXu2FXy0GaJvFqnKS92wktcSyzR9THSW6QAbTrAAAAAAAAAAAAAAAAAAAAAAAAAAAAAAAAAAAAAAKIY/39V7lKY7xxe8ofj/f1XuUpjvHEN7dCkz3wUdZ9nSAA13OgAAAAA35xnpJ2l8ZHcUv6pvYhQ5PnWekhfCR3DL+qb2ITWe9e5l+/wDT6CWqQgQnXjO5KGJxTz5iHIx4kpCZFmGw3LChvWyPcibCKv0XUGL6UBXCdzhcRQo0SCmG6dAiQ3K1zYkR7laqLZUXaPhTODxcsxDc6n0lkFHor2thPVVbfZRFV23Yj1tKvnOuTR3z5LPoZHyUycgVCnS0/KvR8CZhNiw3J9LXJdO0+olWUTj2skJRF4DV2cXjKZwtg+FK0yafLVOoxdCFEhus+HDbsvcn2J7StcfGuMI/z2KKw/8Azj07FI6rkUzgrsqzlRk9ehhjK8+1t7BKFU83yl1nFuOmTlRqVQj0+lokxGSJMPc17/0GLdeHZ9has9UVaUYtjJMonKKNPRwhkhkYkoem1CUPH5Z6PL1/J1UaVNRIkODGWHpOhqmklojV+nzHsDxeW6tMw/k1qdWiQHR2wFhXhtdZVvEam37TFW54vYaurHdg0nR8iGGY6N0qlVE8zme6eqp+b5hKK1L1WsJ5nw/dPC0jLtT4CJfDs27/ADDfA9RIZxlMhNRFwvOL/mW+BDGr71LRVkP34erZ2TPJhRcBT83OUudnph81CSE9JhzVRERb7FkQ5spuTikY+dIrVJucl9R6ehqdzUvpWve6LwHX5JsqkplAqM7JS9HjyCykFsVXRIyPR11tbYQ58reUuVyeup7ZmlR5/VqPt5OKjNDRtt3T9pJ/To8lhE5L/Hx7ND9/n/Lyutzwj/a1Z/1s90a3PCP9rVn/AFs9063XKUz9VZ3rTPAa5SmfqrO9aZ4Hj/jaelmzl6uy1ueEf7WrP+tnunJK5vOE5eahTDKrWFdCe16Ir2WVUW/1TqdcpTP1VnetM8Dlk846mTE3Bl0wvONWLEaxFWZbsXW19of8bMVZsx7MPVvVDinNyRvVu7DlTaOKc3JG9W7sJlxO5+fETdET03dpJjF3RF9Ne0yTaNFwlW8AAYAAALQ5oe8WqcpL3bCrxaHND3i1TlJe7YSWuJZZp+pjpLdQANp1YAAAAAAAAAAAAAAAAAAAAAAAAAAAAAAAAAAAAAFD8fr+PVe5SmO8cXwKHY/39V7lKY7xxDe3QpM98FHWfZ0lxcgGu51NxcgATcXIAEov31npJ2l8JHcUv6pvYhQ5PnGeknaXwkdxQPVN7EJrPevMzff+n0oSYoZIbC8ShKEISYZVXzk8LfAWN1qsvD0ZOrIsZLJsNip+Wnt2He1TVly42WrCyYrwDOSsKGjp2WTVMrsbOm1NlvtS6cxTlUVFsqWXgNW5ThLls5ZPqr0zG6e3/K0+bDiP4WwI6kRomlM0mL5NEVdlYTrqzmXST2G20Kg5vOI/i/lHlIUaJoytSTUkW67CK78hf9VucsblhxMmFMAVGoMejZqI3U8rw+UfsIvsS6+wmt1f0rjIMqicm0qvt3/pW3L1ij4zZRJx0GJpych+CS9l2FRq/Kd7XX+w8Cl1VERFVV2kQhVVVVVVVVdlVX6TZGbzhH4z48gzEzC0qfTLTMe6bDnIvyGe1dnzIpr9tVTn4ivKr3OqVhciGE0wjgOUlY0NGz82mqZtfpR7k2G/3UsnOe6Qw+kyNyIwjB2Fq3FuiKKd0MkMkMSTKRkaxzovzI13zwe9YbNNcZy0rMzuRqtS0nLxJiM9YOjDht0nL99b9B5q3Siyj+1V0lSOV+g7KAuwfVJYOxY9E0MOVR3mlneB3EtgXGbk+ThasL5pR/gamEuQrt1zuifJtrM83zV79yh/xn3543zmG/NH/wCByZquHa9RcQ1qLV6PPSEOJKMax0xBcxHKj9pLn3Z1tBrdaiUBaPSZ2f8AJJG8pqeCr9C+ha9traUmwnVramirZs04dvyrTcXPRfEPGv6qVnqj/AfEPGv6qVnqj/AhwlS6m54Z8p/w87c+uir/APMyP7zD/iQ7f4h41/VSs9Uf4H1UjA2M2VaTe/C1Ya1sxDVyrKPsiI5NnaGEvVNm5jH9M+U/4XgTaQ4pzckb1buw5U2kOKc3JG9W7sN1207n57RV/CIvpr2mSLsGETdEX017TJNo0XC1b03FyAHlNxcgATctFmhbxapykvdsKuFos0LeLVeUl7thJa4lnmn6mOkt1gA2nVAAAAAAAAAAAAAAAAAAAAAAAAAAAAAAAAAAAAAAUNx/v7r/AClMd44vkUMygL+Pdf5SmO8cQ3t0KTPfBR1n2dICLi5A57BIIuLgwSCLi4MEt+dZ6SdpfGS3FL+qb2IUNav3xnpJ2l8pLcUv6pvYhLa713mb7/050MkMEMkJ4XjIkhCUDLJCoOXrCvxXx/M+Qh6EjULzUvZNhLr8pvsdf2Khb01vnEYV+MWAos3Lw9KeparMwrJsuZb5bebZ/uni5TjDRzjk+uszhvjtVMhRIkKKyLDcrXscjmuTbRU2UU2ll3xquKafhaBDiXa2ntmplqLseWf8lebRXnNVXJVyra6qtthDXicIwc1RdqooqojdOHoJdVsl1UuTkLwl8UsBysGPD0Z+dtMzaqmyjnJ8lvsSyee5XrN+wl8aceQIkzC0qfTbTMxdNhyovyGe1fsRS4JLap71xmfJ996ekf8AqSUIQlCdeskJQxQyQMskOgyh7GEpvzs/iQ741pnQvczIlXHMc5q3g7KLZfnWGKtyO9OFuqeTDD70s35Sc57qkPbop8pOc/PWUm5pES01H6RTs4E7OW3XMdK7xIIu4dyjpzpq/t9X6Go5q7TkXzKFcibaonnUrXmgTEeNiaupGjxYiJJw7I96rb5f7T788OPHgxcOeRjRId0j30Hql/yOAk0/6dJYxl2OTa/R/X7wWE02fXbzjTZ9dvOfn1q+d45M9K7xGr53jkz0rvE8a7k0tt//AI9fh+gumz67ecabPrt5z8+tXzvHJnpXeJ9dFnp1azIos3MKizMP/qu+sn7RruRGesZ4PX4X8OKc3JG9W7sOVNpDinNyRvVu7CdeTufnpE3RE9Ne0yTaMIm6Ivpu7TK5pOFq3pBFxcMYJBFxcGCS0eaDvEqvKS92wq3ctHmgbxKrykvdsJLXEss0/Ux0luwAGy6oAAAAAAAAAAAAAAAAAAAAAAAAAAAAAAAAAAAAACheUDf3X+UpjvHF9CheUDf3X+UpjvHEN7dCkz1wUdZ9nRgA13PgAAAAAnzjPSQvlI7hl/VN7EKGp86z0kL5SG4pf1TexCaz3rvM/wB/6cyGSGJKEy7ZoSYmR6EnncpWJJfCmC6hV46Mc5sNYcCG7aiRHbDW/wC6/sRT0SFYs57F3wtiiHhyUi6UpS9mNZdh0dU2f9KbHnVTxXVoxi1styjUWZq790NPvcrnq5bIqrdbJZCCURXKjWpdy7CJwqekyj4YjYTxBDpkVrk05OBHRV+lXMTS5naSGph3uUiiZpmruhsXNUxTCpuJJvDc1oNZU0R8B6ps+VYi/Jv+1L+1P2lnEKA06cmKfPy8/KRFhTEvEbFhPTba5q3RS8OAcRy+K8JSFdl7JqiGnlWJ+hETYc32Lc2LNWMYL/NGUaVE2p3xu6O+QkglCZcJQyQxQlAyzQ1lnRfmQrvng96w2Yh5DLJSZWuZPKjTJ1YiQIyw9LybrO2HtXb9hirdKK/GNuqOUqFSu0h2UDaQ31Rci2Do6N04lT2eCYT3T11OyA4FioiuiVf2TKe6a2rqlzuzr1e7DzeTzOd89e/cof8AGdhnk/O4b80f/gbVyd5M8OYFnZqcoj550SahpDieXjI9LIt9jYQ5co2TugY8dJLW3zjdR6fktTxUZ+Va99heBCXQnQ0VnGR3IyPU9/yo+C2Wt5wF/W1jrSe6NbzgL+trHWk90i1NSs2RlHLzVNPson9NSP7zD/iQtNrecBf1tY60nunJLZv2BJeZhR2Ravpwno9t5lLXRbp+iZ1VTMZpyiJ7vNtpNpDinNyRvVu7DlOKc3JG9W7sNl007n55xN0RPTd2kmMXdEX03dpkm0aMuGq3gADAAABaTM/3iVXlJe7YVbLSZn+8Sq8pL3bCS1xLLNP1MdJbsABtOpAAAAAAAAAAAAAAAAAAAAAAAAAAAAAAAAAAAAAAoVlAX8e6/wApTHeOL6lCcoG/yv8AKUx3jiG9uhSZ64KOs+zpLi5ANfsc+m4uQB2Cbi5AHYJRfvjPSTtL5SO4pf1TexChifOM9JO0vnI7il/VN7EJ7Xeu8z/f+nOShCAlXbNCUMUMjMDzmUvE8HCODZ6tPVqxmM0JZi/pxXbDU/38yKUpmZiNMzMWZmIixI0V6viPdtucq3VTbOc5i74YxVDw9KRbydKv5Wy7D46/lf6U2PPc1Ca9yrGXNZyyjW3dGN1P+y2DkCwx8ZsocokaHpyVP/C5i6bC6K/Jb7XW5lNt51WGfhDDEriWXh3j01/k46omysF67fsdbnU7TNqwx8BYDbU5iHozlWckd102UhJsQ05rr7TY9Zp0tV6RN0ucYj5ebguhRE/Y5LHumj+nBZZNkcTkk0Tvq7f8KE3N3ZquL9QV6YwnORbS9Q++yt12Gxmpsp/eanO01DiSkzNCr89RptLRpOO6E79tl2F9qWX2nzU2dmKdUJefk4qwpiXiNiwnp9DmrdCGmdGcVHYu1ZPdir8f7L9AEJQ6HAOI5bFeE5CuyyoiTMNPKMT9CImw5vsW53xuROLsaaoqiKo3SkyQxQlAyyPFZcq18X8mNUq2p9UeQWF970tG94jU27ftPaoayzo/zH13zwO9YYq3SjvzhaqmPxLSdJy8JLon4sq63/6/5T08jnIJBaifFJV/zv8AIVslfoOygmrrKoc1OXX6N1S5WRvKt90KqT8l8CfB+pILYulqjymld1rfkpY+jLNlO+526mt+B/hHVyRP+v5PQ0dH9i32zVWZxvnr37lD/jOwzy/ncNeaY/4E2lOhis4yq7/B1uP9Xyy1zC/qh/738g1zC/qh/wC9/IV2BFrKvyq9p5T4vSFidcwv6of+9/IcslnJLMzkCX+KWj5WI1l9W3tdUS/5H7SuJ9dF/pmR/eYf8SDWVflmM5ZTjxekP0HTaOKc3JG9W7sOVNpDinNyRvVu7DadVO5+eMVfwiL6bu0yRdgwi7oi+m7tMk2jScPVvTcXIBjseU3FyAOwTctLmf7xKrykvdsKslpcz7eHVeUl7thLa4llmr6mOkt2gA2XUgAAAAAAAAAAAAAAAAAAAAAAAAAAAAAAAAAAAAAUIyg7/K/ylMd44vuUHygr+PmIOUpjvHEN7dClz1wUdZ9nSAi4ua+Dn0gi4uMBIIuLjAS35xnpJ2l9JHcMv6pvYhQpq/fGeknaX0kNwy/qm9iE1rvXWaPv/TnQkglCddJQ6HKFXYuHMHz9UlpeLMTUOHoy8KGxXq6I7YbsJ9Cba+Y70yReAwxVEzTMROCh09L1J8zFmJyWmvLRXq+I6JCciucq3VVuh22TvDcbFGNKdRGtcjI0VFjrb8mE3ZevMn2l2la12w5rXedLmMOXl4cXyrJeCyJa2k1iIvORart3qmnNERVEzVjHRyS8KHLwIcCCxGQobUYxqbTWolkQ5UMUUlCZcwrhnY4Y1LWZHFUtDtCnG6nmVRNqI1Pkqvnbsf3TRhfHElBpOJKS+lVqTbNyj3I9YblVNlFuioqbKHi4+Q/J1FvakzEL0JuJ/uqkNdqZnGFNleba7l2a7eGEtZZqeL9QVyYwnORbS8/99lbrsNjImy3+81OdpZk1ZKZDMGSNRl6hT49XlJmXitiwnsmkXRc1bpttNpNJLcTEYS3shtXbVvQud25khJBJ7brI13nJSM3Ucjlak5GXfMTERYOjDYl1W0Vqmw0PP5RXNbhCcV7kaiKzZVbJ+UhidyO9GNuqOSkUjk/xrERPJ4aqDvMxPE7mVyZZQHomjhOpr/hp4lkcPTUqiMvMwOkQ97SJyTRiXm5fpW+JDFqJVFGbbdzfVPo05mtYRxNhzEFZj12iTlPhRpRjIbozbI5UfdUQ+3OowtiLEkSgrQaPNVFICRvK+RbfQvoWvzKbvgzEvGVUgx4URU20Y9FtzCNHgQbeWjQ4d9rTciX5yTQjR0VhGRURk+ox7Pz+1IfuXZQ/1QqnRp4j7l2UP9UKp0aeJdrV0lxyX6VPEaukuOS/Sp4njUx+Wnsez4p9FJfuXZQ/1QqnRp4n00nJjlAhVWTixMJVNrGR4bnKsNNhEcl12y6OrpLjkv0qeISeklWyTkuq+sQamPyzGaLMfdPo+hNpDinNyRvVu7DlOKc3JG9W7sJlvO5+d8TdET017TJNowi7oiemvaZXNKXETvSCLi5jB5SCLi4wElpsz3eHVeUl7thVi5afM93h1XlJe7YSWuJZZq+pjpLdoANp1AAAAAAAAAAAAAAAAAAAAAAAAAAAAAAAAAAAAAAFB8oW/wAxBylMd44vwUHyg7/MQcpzHeOIb26FLnrgo6z7OiABA58AAAAAS35xnpJ2l85DcMv6pvYhQtPnGekhfOR3FL+qb2ITWu9dZo+/9OclF2SASrpnclDBCUMjMkxuS1TDLNCUMUMkMjJDJFMEMkDLIlDG5kgZZhCEJMspNaZ0X5ka7bhg9602WazzovzIV3zwO9Yeat0oso/tVdJUolHusnyl5zsoL32/KdznVyu0h2UHaQ1HI1t/5m7lXFFeu5V/Aoe2v/edhnmOVIuGrKqbEfaX0DrszbfRX/3KH/Gdhnm/PYa80x/wJv8ArW1P/wA2f971edN/13c403/XdzmIIVKy03/Xdzn2UR7vhqR+W7dMP6f+5D4T7KL/AEzI/vMP+NAzTvh+hLdpDinNxxvVu7Dkb+SnmOOc3HG9W7sN1287n53Rfn4vpr2kmMXdEX017TI0nEVbwAB5AAALT5nm8Oq8pL3bCrBafM83h1XlNe7YSWuJZZq+pjpLdwANl1AAAAAAAAAAAAAAAAAAAAAAAAAAAAAAAAAAAAAAFBcoSr8fcQcpzHeOL9FBMoW/3EHKcx3jiG9uhTZ54KOs+zo7qLqQCBQJuoupAAm6i6kADJi/fWeknaX0kdxS/qm9iFCm/OM9JC+sjuGX9U3sQmtd65zT9/6cyEkISSrlKEmJIZZAhCTIzTaJQxaZBlmhJgZN2hJDJDJDFCUAzQyOMyapl6ZoeSyv0uTrWT+o02fY58vFWHpo12iuw9qps+w9Yh0GUPelN+dn8SGJ3PF3tono0jRMj+B46N8pJza+aacexpmQrJ3FamnITy/5x592HNppsCj/AJLfMeIpj8NKzk9qrfTDp8BZOML4JnJmboEvMQoszDSHEWJHc9Fai3Tb2jlx9k/w3jh0otfl48VZTS8l5OMrLaVr3tt7SHqge8Iwwbupt6Ghoxh+GrPuBZOOIT3XHj7gWTjiE91x5tMGNCn8I/4djwR5NWfcCyccQnuuPM5fIPk7gTEOPDkZ5Hw3o9t5x+2i3Q2gBoU/g/h2PBHkHFObjjerd2HKcU7uON6t3YemxO5+dsXdEX017QiqRF3RF9Ne0Gk4md6bqLqQAwm6i6kACbqWozOlvgKq8pr3bCqxanM63hVXlNe7YSWuJY5q+ojpLd4ANl04AAAAAAAAAAAAAAAAAAAAAAAAAAAAAAAAAAAAAFBMoW/3EHKcx3ji/ZQPKEv4+4g5TmO8cQ3t0KbPPBR1n2dGBcXIFAAXFwAFxcCW/OM9JO0vrI7hl/VN7EKEtWzmu4FuWZoeX7CMSBCg1CRqck5rEarvJtiN2Et9C3+wltzEb1pm29RbmrTnDHBuIyQ8XScqOAalZIGJpOG5f0ZhVhL/AOSIeqkZ+RnmI+SnZaZYu0sGK16fYpNExK7puUV8M4vqJQgB7ZEkEoZZEMzAyaoGSEotiCQyyRTNDjQzRQyyQlDFCQOQ8Jl8qk1R8lVWqMloeXhLC0dNt02YjU2j3SKa5zlEvkaraep71pirdKK/OFqqeUq3SeWLGUqieSWnbHDL/wD9O1l84DKDASzFpPtlP5jVqMS20NBOA1tKXNRlV2N1Uts64rKP9akdU/mGuKyj/WpHVP5jU2gnANBOAadX5Z/m3vHLbOuKyj/WpHVP5hriso/1qR1T+Y1NoJwDQTgGnV+T+be8cts64rKP9akdU/mGuKyj/WpHVP5jU2gnANBOAadX5P5t7xy2zriso31qR1T+Y+WsZesodVpkenvnJKWhx2Kx8SXltF+iuwtlVVt5zWGgnAZI0adX5YnLL0xhpylpmQhNzy1AC4uAAuLgC1OZ1vCqvKa92wqtctTmc7wqrymvdsJLXEsc1/UR0lu8AGy6cAAAAAAAAAAAAAAAAAAAAAAAAAAAAAAAAAAAAACgeUPf7iDlOY7xxfwoHlC3+4g5TmO8cQ3t0KbPPBR1n2dEACBQAAAAAAAAIVEUzl4seXej5aPFgvTadDerV50MQGYmYelpWULHNKskniepI1NpsSL5RvM6562lZfMdSdkm202oNTb8rA0HL7WqnYatIsh6iqYT0ZTdo3VSsBSc5GBsNq2F4jOF8rMo77HInaewpGXnJ9O2SYm52nuX6JiWVUT2tuVOVqGCsQ9RcqbNGcr1O+cV5KRjnBtWt8H4mpcZy7TdUNa7mdZT0MJ7IjUfDe17V+lq3Q/Pd0JD7KdV61S3o6m1afk1Ta8jMOZ2KeoutqjOvipfoAShSuk5YspFM0UZiONMsb+jNQ2xftVL/aewpGcliiXslTolMnU+l0NXwXL9qp9h6i5DaozjZnfjC0yEoaJpGcrhuNZtUoNTk1+l0JzIzf8AZT2dHy1ZN6loo3EUOUev6M3CfCt7VS32nqKobFOVWat1UNioZIdVSq/Qqq1HUys0+cRdryMyx68yKdoh6TxMTuZIa7zkfzN1r/B71psM15nI/mbrX+D3rTzVulFlP9mrpKmqEkISarkQABgAAAAAAAAAAAAAAAALU5nO8Kq8pr3bCqxanM53hVXlNe7YSWuJY5r+ojpLeAANl04AAAAAAAAAAAAAAAAAAAAAAAAAAAAAAAAAAAAAFAsoa/j9iDlOY7xxf0oDlD3/AGIOU5jvHEN7dCmzzwUdZ9nR3FyAQKBNxcgATcXIAE3FyABNxcgATcXIAE3FyAAIsSAz2sVaimCwzlAZiZfM6GYOhn2WMVaimXqKnxs04bkfDc5jk2latlO/o+OMZUe3wbierS7U2mpMuc3mVVQ6l0NFMHQhi903JjdLZlGy/wCUeQVrY8/J1FibaTMq26+1tlOzxnlzqOMMEzuHKjQZWBEmtD8IgRnWbouR35KovBwmnfJrfaOWE1UPWnKacru6M06XZLmRdgm5APDTTcXIAYTcXIAE3FyABNxcgATcXIAE3FyABNxcgATctVmcbwarymvdsKqFq8zjeDVeU17thJa4ljmv6iOkt4AA2XTgAAAAAAAAAAAAAAAAAAAAAAAAAAAAAAAAAAAAAUByh7/sQcpzHeOL/FAcoa/j9iDlOY7xxDe3Qp88cFHWfZ0QFxcgUIBcXAAXFwAFxcABcXAAXFwAFxcABcXAAXFwAFxcARYm4uBirSUQm4uAAuLgALi4AC4uAAuLgALi4AC4uAAuLgALi4AtXmcbwatymvdsKqXLVZm+8Grcpr3bCS1xLDNf1EdJbxABsumAAAAAAAAAAAAAAAAAAAAAAAAAAAAAAAAAAAAAA/P/ACh7/sQcpzHeOP0APz/yh7/sQcpzHeOIb26FPnjgp6z7OiABAoQAAAAAAAAAAAAAAAAAAAAAAAAAAAAAAAAAAAAAAAAAAAAAAAAAAC1mZtvBq3Ka92wqmWszNt4NW5TXu2ElriWGa/qI6S3iADZdMAAAAAAAAAAAAAAAAAAAAAAAAAAAAAAAAAAAAAB+f+UPf9iDlOY7xx+gBqWr5v8AgeqVabqczMVhI03HfHiIyZajdJzlVbJo7V1I7lM1blfnDJq8oppijuU8BbnW44B4zW+tN9wa3HAPGa31pvuEWqqVeyr/AC81RgW51uOAeM1vrTfcGtxwDxmt9ab7g1VRsq/y81RgW51uOAeM1vrTfcGtxwDxmt9ab7g1VRsq/wAvNUYFudbjgHjNb6033BrccA8ZrfWm+4NVUbKv8vNUYFudbjgHjNb6033BrccA8ZrfWm+4NVUbKv8ALzVGBbnW44B4zW+tN9wa3HAPGa31pvuDVVGyr/LzVGBbnW44B4zW+tN9wa3HAPGa31pvuDVVGyr/AC81RgW51uOAeM1vrTfcGtxwDxmt9ab7g1VRsq/y81RgW51uOAeM1vrTfcGtxwDxmt9ab7g1VRsq/wAvNUYFudbjgHjNb6033BrccA8ZrfWm+4NVUbKv8vNUYFudbjgHjNb6033BrccA8ZrfWm+4NVUbKv8ALzVGBbnW44B4zW+tN9wa3HAPGa31pvuDVVGyr/LzVGBbnW44B4zW+tN9wa3HAPGa31pvuDVVGyr/AC81RgW51uOAeM1vrTfcGtxwDxmt9ab7g1VRsq/y81RgW51uOAeM1vrTfcGtxwDxmt9ab7g1VRsq/wAvNUYFudbjgHjNb6033BrccA8ZrfWm+4NVUbKv8vNUYFudbjgHjNb6033BrccA8ZrfWm+4NVUbKv8ALzVGBbnW44B4zW+tN9wa3HAPGa31pvuDVVGyr/LzVGBbnW44B4zW+tN9wa3HAPGa31pvuDVVGyr/AC81RgW51uOAeM1vrTfcGtxwDxmt9ab7g1VRsq/y81Ri1mZtvBq3Ka92w+3W44B4zW+tN9w95k4wNRsB0mYplFfNvgx4/l3rMREe7S0UTYVETYsiHuiiaZxlt5FkN2zdiurDDt73qAATLkAAAAAAAAAAAAAAAAAAAAAAAAAAAAAAAAAAAAAAAAAAAAAAAAAAAAAAAAAAAAAAAAAAAAAAAAAAAAAAAAAAAAAAAAAAAAAAAAAAAAAAAAAAAAAAAAAAAAAAAAAAAAAAAAAAAAAAAAAAAAAAAAAAAAAAAAAAAAAAAAAAAAAAAAAAAAAAAAAAAAAAAAAAAAAAAAAAAAAAAAAAAAAAAAAAAAAAAB//2Q==;" parent="1" vertex="1">
          <mxGeometry x="580" y="160" width="119.9" height="80" as="geometry" />
        </mxCell>
        <mxCell id="idugW8RmlfMsUO6L2Yv1-33" value="" style="shape=image;verticalLabelPosition=bottom;labelBackgroundColor=default;verticalAlign=top;aspect=fixed;imageAspect=0;image=data:image/jpeg,/9j/4AAQSkZJRgABAQAAAQABAAD/2wBDACQZGyAbFyQgHiApJyQrNls7NjIyNm9PVEJbhHSKiIF0f32Ro9GxkZrFnX1/tve4xdje6uzqja////7j/9Hl6uH/2wBDAScpKTYwNms7O2vhln+W4eHh4eHh4eHh4eHh4eHh4eHh4eHh4eHh4eHh4eHh4eHh4eHh4eHh4eHh4eHh4eHh4eH/wAARCAPoBQADASIAAhEBAxEB/8QAHwAAAQUBAQEBAQEAAAAAAAAAAAECAwQFBgcICQoL/8QAtRAAAgEDAwIEAwUFBAQAAAF9AQIDAAQRBRIhMUEGE1FhByJxFDKBkaEII0KxwRVS0fAkM2JyggkKFhcYGRolJicoKSo0NTY3ODk6Q0RFRkdISUpTVFVWV1hZWmNkZWZnaGlqc3R1dnd4eXqDhIWGh4iJipKTlJWWl5iZmqKjpKWmp6ipqrKztLW2t7i5usLDxMXGx8jJytLT1NXW19jZ2uHi4+Tl5ufo6erx8vP09fb3+Pn6/8QAHwEAAwEBAQEBAQEBAQAAAAAAAAECAwQFBgcICQoL/8QAtREAAgECBAQDBAcFBAQAAQJ3AAECAxEEBSExBhJBUQdhcRMiMoEIFEKRobHBCSMzUvAVYnLRChYkNOEl8RcYGRomJygpKjU2Nzg5OkNERUZHSElKU1RVVldYWVpjZGVmZ2hpanN0dXZ3eHl6goOEhYaHiImKkpOUlZaXmJmaoqOkpaanqKmqsrO0tba3uLm6wsPExcbHyMnK0tPU1dbX2Nna4uPk5ebn6Onq8vP09fb3+Pn6/9oADAMBAAIRAxEAPwDcooooAKKKKACiiigAooooAKKKKACiiigAooooAKKKKACiiigAooooAKKKKACiiigAooooAKKKKACiiigAooooAKKKKACiiigAooooAKKKKACiiigAooooAKKKKACiiigAooooAKKKKACiiigAooooAKKKKACiiigAooooAKKKKACiiigAooooAKKKKACiiigAooooAKKKKACiiigAooooAKKKKACiiigAooooAKKKKACiiigAooooAKKKKACiiigAooooAKKKKACiiigAooooAKKKKACiiigAooooAKKKKACiiigAooooAKKKKACiiigAooooAKKKKACiiigAooooAKKKKACiiigAooooAKKKKACiiigAooooAKKKKACiiigAooooAKKKKACiiigAooooAKKKKACiiigAooooAKKKKACiiigAooooAKKKKACiiigAooooAKKKKACiiigAooooAKKKKACiiigAooooAKKKKACiiigAooooAKKKKACiiigAooooAKKKKACiiigAooooAKKKKACiiigAooooAKKKKACiiigAooooAKKKKACiiigAooooAKKKKACiiigAooooAKKKKACiiigAooooAKKKKACiiigAooooAKKKKACiiigAooooAKKKKACiiigAooooAKKKKACiiigAooooAKKKKACiiigAooooAKKKKACiiigAooooAKKKKACiiigAooooAKKKKACiiigAooooAKKKKACiiigAooooAKKKKACiiigAooooAKKKKACiiigAooooAKKKKACiiigAooooAKKKKACiiigAooooAKKKKACiiigAooooAKKKKACiiigAooooAKKKKACiiigAooooAKKKKACiiigAooooAKKKKACiiigAooooAKKKKACiiigAooooAKKKKACiiigAooooAKKKKACiiigAooooAKKKKACiiigAooooAKKKKACiiigAooooAKKKKACiiigAooooAKKKKACiiigAooooAKKKKACiiigAooooAKKKKACiiigAooooAKKKKACiiigAooooAKKKKACiiigAooooAKKKKACiiigAooooAKKKKACiiigAooooAKKKKACiiigAooooAKKKKACiiigAooooAKKKKACiiigAooooAKKKKACiiigAooooAKKKKACiiigAooooAKKKKACiiigAooooAKKKKACiiigAooooAKKKKACiiigAooooAKKKKACiiigAooooAKKKKACiiigAooooAKKKKACiiigAooooAKKKKACiiigAooooAKKKKACiiigAooooAKKKKACiiigAooooAKKKKACiiigAooooAKKKKACiiigAooooAKKKKACiiigAooooAKKKKACiiigAooooAKKKKACiiigAooooAKKKKACiiigAooooAKKKKACiiigAooooAKKKKACiiigAooooAKKKKACiiigAooooAKKKKACiiigAooooAKKKKACiiigAooooAKKKKACiiigAooooAKKKKACiiigAooooAKKKKACiiigAooooAKKKKACiiigAooooAKKKKACiiigAooooAKKKKACiiigAooooAKKKKACiiigAooooAKKKKACiiigAooooAKKKKACiiigAooooAKKKKACiiigAooooAKKKKACiiigAooooAKKKKACiiigAooooAKKKKACiiigAooooAKKKKACiiigAooooAKKKKACiiigAooooAKKKKACiiigAooooAKKKKACiiigAooooAKKKKACiiigAooooAKKKKACiiigAooooAKKKKACiiigAooooAKKKKACiiigAooooAKKKKACiiigAooooAKKKKACiiigAooooAKKKKACiiigAooooAKKKKACiiigAooooAKKKKACiiigAooooAKKKKACiiigAooooAKKKKACiiigAooooAKKKKACiiigAooooAKKKKACiiigAooooAKKKKACiiigAooooAKKKKACiiigAooooAKKKKACiiigAooooAKKKKACiiigAooooAKKKKACiiigAooooAKKKKACiiigAooooAKKKKACiiigAooooAKKKKACiiigAooooAKKKKACiiigAooooAKKKKACiiigAooooAKKKKACiiigAooooAKKKKACiiigAooooAKKKKACiiigAooooAKKKKACiiigAooooAKKKKACiiigAooooAKKKKACiiigAooooAKKKKACiiigAooooAKKKKACiiigAooooAKKKKACiiigAooooAKKKKACiiigAooooAKKKKACiiigAooooAKKKKACiiigAooooAKKKKACiiigAooooAKKKKACiiigAooooAKKKKACiiigAooooAKKKKACiiigAooooAKKKKACiiigAooooAKKKKACiiigAooooAKKKKACiiigAooooAKKKKACiiigAooooAKKKKACiiigAooooAKKKKACiiigAooooAKKKKACiiigAooooAKKKKACiiigAooooAKKKKACiiigAooooAKKKKACiiigAooooAKKKKACiiigAooooAKKKKACiiigAooooAKKKKACiiigAooooAKKKKACiiigAooooAKKKKACiiigAooooAKKKKACiiigAooooAKKKKACiiigAooooAKKKKACiiigAooooAKKKKACiiigAooooAKKKKACiiigAooooAKKKKACiiigAooooAKKKKACiiigAooooAKKKKACiiigAooooAKKKKACiiigAooooAKKKKACiiigAooooAKKKKACiiigAooooAKKKKACiiigAooooAKKKKACiiigAooooAKKKKACiiigAooooAKKKKACiiigAooooAKKKKACiiigAooooAKKKKACiiigAooooAKKKKACiiigAooooAKKKKACiiigAooooAKKKKACiiigAooooAKKKKACiiigAooooAKKKKACiiigAooooAKKKKACiiigAooooAKKKKACiiigAooooAKKKKACiiigAooooAKKKKACiiigAooooAKKKKACiiigAooooAKKKKACiiigAooooAKKKKACiiigAooooAKKKKACiiigAooooAKKKKACiiigAooooAKKKKACiiigAooooAKKKKACiiigAooooAKKKKACiiigAooooAKKKKACiiigAooooAKKKKACiiigAooooAKKKKACiiigAooooAKKKKACiiigAooooAKKKKACiiigAooooAKKKKACiiigAooooAKKKKACiiigAooooAKKKKACiiigAooooAKKKKACiiigAooooAKKKKACiiigAooooAKKKKACiiigAooooAKKKKACiiigAooooAKKKKACiiigAooooAKKKKACiiigAooooAKKKKACiiigAooooAKKKKACiiigAooooAKKKKACiiigAooooAKKKKACiiigAooooAKKKKACiiigAooooAKKKKACiiigAooooAKKKKACiiigAooooAKKKKACiiigAooooAKKKKACiiigAooooAKKKKACiiigAooooAKKKKACiiigAooooAKKKKACiiigAooooAKKKKACiiigAooooAKKKKACiiigAooooAKKKKACiiigAooooAKKKKACiiigAooooAKKKKACiiigAooooAKKKKACiiigAooooAKKKKACiiigAooooAKKKKACiiigAooooAKKKKACiiigAooooAKKKKACiiigAooooAKKKKACiiigAooooAKKKKACiiigAooooAKKKKACiiigAooooAKKKKACiiigAooooAKKKKACiiigAooooAKKKKACiiigAooooAKKKKACiiigAooooAKKKKACiiigAooooAKKKKACiiigAooooAKKKKACiiigAooooAKKKKACiiigAooooAKKKKACiiigAooooAKKKKACiiigAooooAKKKKACiiigAooooAKKKKACiiigAooooAKKKKACiiigAooooAKKKKACiiigAooooAKKKKACiiigAooooAKKKKACiiigAooooAKKKKACiiigAooooAKKKKACiiigAooooAKKKKACiiigAooooAKKKKACiiigAooooAKKKKACiiigAooooAKKKKACiiigAooooAKKKKACiiigAooooAKKKKACiiigAooooAKKKKACiiigAooooAKKKKACiiigAooooAKKKKACiiigAooooAKKKKACiiigAooooAKKKKACiiigAooooAKKKKACiiigAooooAKKKKACiiigAooooAKKKKACiiigAooooAKKKKACiiigAooooAKKKKACiiigAooooAKKKKACiiigAooooAKKKKACiiigAooooAKKKKACiiigAooooAKKKKACiiigAooooAKKKKACiiigAooooAKKKKACiiigAooooAKKKKACiiigAooooAKKKKACiiigAooooAKKKKACiiigAooooAKKKKACiiigAooooAKKKKACiiigAooooAKKKKACiiigAooooAKKKKACiiigAooooAKKKKACiiigAooooAKKKKACiiigAooooAKKKKACiiigAooooAKKKKACiiigAooooAKKKKACiiigAooooAKKKKACiiigAooooAKKKKACiiigAooooAKKKKACiiigAooooAKKKKACiiigAooooAKKKKACiiigAooooAKKKKACiiigAooooAKKKKACiiigAooooAKKKKACiiigAooooAKKKKACiiigAooooAKKKKACiiigAooooAKKKKACiiigAooooAKKKKACiiigAooooAKKKKACiiigAooooAKKKKACiiigAooooAKKKKACiiigAooooAKKKKACiiigAooooAKKKKACiiigAooooAKKKKACiiigAooooAKKKKACiiigAooooAKKKKACiiigAooooAKKKKACiiigAooooAKKKKACiiigAooooAKKKKACiiigAooooAKKKKACiiigAooooAKKKKACiiigAooooAKKKKACiiigAooooAKKKKACiiigAooooAKKKKACiiigAooooAKKKKACiiigAooooAKKKKACiiigAooooAKKKKACiiigAooooAKKKKACiiigAooooAKKKKACiiigAooooAKKKKACiiigAooooAKKKKACiiigAooooAKKKKACiiigAooooAKKKKACiiigAooooAKKKKACiiigAooooAKKKKACiiigAooooAKKKKACiiigAooooAKKKKACiiigAooooAKKKKACiiigAooooAKKKKACiiigAooooAKKKKACiiigAooooAKKKKACiiigAooooAKKKKACiiigAooooAKKKKACiiigAooooAKKKKACiiigAooooAKKKKACiiigAooooAKKKKACiiigAooooAKKKKACiiigAooooAKKKKACiiigAooooAKKKKACiiigAooooAKKKKACiiigAooooAKKKKACiiigAooooAKKKKACiiigAooooAKKKKACiiigAooooAKKKKACiiigAooooAKKKKACiiigAooooAKKKKACiiigAooooAKKKKACiiigAooooAKKKKACiiigAooooAKKKKACiiigAooooAKKKKACikZ1X7zAfU1GbmBesqfgadguS0VXN9bj/AJaZ+gNMOowDpuP0FHK+wuZFuiqB1RM8RsR6k0HVE7Rt+dPkkLnRforP/tRf+eR/Oj+1F/55H/vqjkkHPE0KKz/7UX/nkf8Avqj+1F/55H86OSQc8TQoqgNUXvEfzpV1SM/ejYfTmjkkHPEvUVUGowf7Q/CnC/tz/wAtMfUGlyvsPmRZoqJbmBukqficVIrK33WB+hpWHcWiiigAooooAKKKKACiiigAooooAKKKKACiiigAooooAKKKKACiiigAooooAKKKKACiiigAooooAKKKKACiiigAooooAKKKKACiiigAooooAKKKKACiiigAooooAKKKKACiiigAooooAKKKKACiiigAooooAKKKKACiiigAooooAKKKKACiiigAooooAKKKKACiiigAooooAKKKKACiiigAooooAKKKKACiiigAooooAKKKKACiiigAooooAKKKKACiiigAooooAKKKKACiiigAooooAKKKKACiiigAooooAKKKKACiiigAooooAKKKKACiiigAooooAKKKKACiiigAooooAKKKKACiiigAoooJAGScCgAoqtLfwR8Bt59FqpJqcjcRqFHqeTVKDZLmkalRPcwx/ekX6A5rGknlk++7H2zxUdWqfch1OxqvqcQ+6rN+lQPqch+4ir9eao0VSgiXNlhr64b/AJaY+gxUTSyN96Rj9TTKKqyJuwooopiCiiigAooooAKKKKACiiigAooooAKKKKACiiigB6zSr92Rx9DUy31wv8efqKrUUrId2X01SQffjU/Tipk1KE/eVl/WsqipcEUps3UuYZPuyKfbOKlrnakjnli+5Iw9s8VLp9ilU7m9RWXHqcg4kQMPUcGrkV7BLxu2n0biocWi1JMsUUUVJQUUUUAFFFFABRRRQAUUUUAFFFFABRRRQAUUUUAFFFFABRRRQAUUUUAFFFFABRRRQAUUUUAFFFFABRRRQAUUUUAFFFFABRRRQAUUUUAFFFFABRRRQAUUUUAFFFFABRRRQAUUUUAFFFFABRRRQAUUUUAFFFFABRRRQAUUUUAFFFFABRRRQAUUUUAFFFFABRRRQAUUUUAFFFFABRRRQAUUUUAFFFFABRRRQAUUUUAFFFFABRRRQAUUUUAFFFFABRRRQAUUUUAFFFFABRRRQAUUUUAFFFFABRRRQAUUUUAFFFFABRRRQAUUUUAFFFFABRRRQAUUUUAFI7qilnYKB3NV7q9SDKr8z+np9aypppJm3SNn27CrjBsiU0i9PqQHEK5/2jVGWaSY5kcn27VHRWqikZOTYUUUVRIUUUUAFFFFABRRRQAUUUUAFFFFABRRRQAUUUUAFFFFABRRRQAUUUUAFFFFABRRRQAUUUUAFFFFABRRRQBLFcSw/ccgeh6Vfh1JGwJV2n1HSsuipcUylJo6FWV1DKQQe4pawYZ5IGzG2PUdjWra3iXHB+V/T1+lZSg0axmmWaKKKgsKKKKACiiigAooooAKKKKACiiigAooooAKKKKACiiigAooooAKKKKACiiigAooooAKKKKACiiigAooooAKKKKACiiigAooooAKKKKACiiigAooooAKKKKACiiigAooooAKKKKACiiigAooooAKKKKACiiigAooooAKKKKACiiigAooooAKKKKACiiigAooooAKKKKACiiigAooooAKKKKACiiigAooooAKKKKACiiigAooooAKKKKACiiigAooooAKKKKACiiigAooooAKKKKACiiigAooooAKKKKACiiigAooooAKKKKACqV/eeV+7jPznqfSrU8ghhZz2FYLMWYsxySck1pCN9TOcraCdetFFFbGIUUUUAFFFFABRRRQAUUUUAFFFFABRRRQAUUUUAFFFFABRRRQAUUUUAFFFFABRRRQAUUUUAFFFFABRRRQAUUUUAFFFFABRRRQAUoJBBBwRSUUAa1jd+cPLkP7wd/Wrlc+jlHDKcEHIreicSxK46MM1hONtTeEr6DqKKKgsKKKKACiiigAooooAKKKKACiiigAooooAKKKKACiiigAooooAKKKKACiiigAooooAKKKKACiiigAooooAKKKKACiiigAooooAKKKKACiiigAooooAKKKKACiiigAooooAKKKKACiiigAooooAKKKKACiiigAooooAKKKKACiiigAooooAKKKKACiiigAooooAKKKKACiiigAooooAKKKKACiiigAooooAKKKKACiiigAooooAKKKKACiiigAooooAKKKKACiiigAooooAKKKKACiiigAooooAKKKKACiiigAooooAp6o2LYD1asmtXVR/o6n/b/oayq3p7GE9woooqyAooooAKKKKACiiigAooooAKKKKACiiigAooooAKKKKACiiigAooooAKKKKACiiigAooooAKKKKACiiigAooooAKKKKACiiigAooooAK2NNObQD0JFY9a+mD/RfqxqKmxpT3LdFFFYGwUUUUAFFFFABRRRQAUUUUAFFFFABRRRQAUUUUAFFFFABRRRQAUUUUAFFFFABRRRQAUUUUAFFFFABRRRQAUUUUAFFFFABRRRQAUUUUAFFFFABRRRQAUUUUAFFFFABRRRQAUUUUAFFFFABRRRQAUUUUAFFFFABRRRQAUUUUAFFFFABRRRQAUUUUAFFFFABRRRQAUUUUAFFFFABRRRQAUUUUAFFFFABRRRQAUUUUAFFFFABRRRQAUUUUAFFFFABRRRQAUUUUAFFFFABRRRQAUUUUAFFFFABRRRQAUUUUAFFFFABRRRQBS1X/j2X/fH8jWVWrqp/wBHUf7f9DWVW9PYwnuFFFFWQFFFFABRRRQAUUUUAFFFFABRRRQAUUUUAFFFFABRRRQAUUUUAFFFFABRRRQAUUUUAFFFFABRRRQAUUUUAFFFFABRRRQAUUUUAFFFFABWxpv/AB6D6msetfTD/ov0Y1FTYunuW6KKKwNwooooAKKKKACiiigAooooAKKKKACiiigAooooAKKKKACiiigAooooAKKKKACiiigAooooAKKKKACiiigAooooAKKKKACiiigAooooAKKKKACiiigAooooAKKKKACiiigAooooAKKKKACiiigAooooAKKKKACiiigAooooAKKKKACiiigAooooAKKKKACiiigAooooAKKKKACiiigAooooAKKKKACiiigAooooAKKKKACiiigAooooAKKKKACiiigAooooAKKKKACiiigAooooAKKKKACiiigAooooAKKKKACiiigCnqa5tgf7rA1k10EsYljZD0YYrBkRo3KMMEHBram9LGNRa3G0UUVoZhRRRQAUUUUAFFFFABRRRQAUUUUAFFFFABRRRQAUUUUAFFFFABRRRQAUUUUAFFFFABRRRQAUUUUAFFFFABRRRQAUUUUAFFFFABRRRQAVsacu20U/3iTWVFG0siovUmt5ECIqL0UYrOo9LGlNa3FooorE2CiiigAooooAKKKKACiiigAooooAKKKKACiiigAooooAKKKKACiiigAooooAKKKKACiiigAooooAKKKKACiiigAooooAKKKKACiiigAooooAKKKKACiiigAooooAKKKKACiiigAooooAKKKKACiiigAooooAKKKKACiiigAooooAKKKKACiiigAooooAKKKKACiiigAooooAKKKKACiiigAooooAKKKKACiiigAooooAKKKKACiiigAooooAKKKKACiiigAooooAKKKKACiiigAooooAKKKKACiiigAooooAKKKKACqt7aCdd6cSD9atUU07aiauc8ylWKsCCOoNJW5cWsdwPm4bswrJntZID8wyv94dK2jNMxlFohoooqyAooooAKKKKACiiigAooooAKKKKACiiigAooooAKKKKACiiigAooooAKKKKACiiigAooooAKKKKACiiigAooooAKKKKAClRWdgqgknsKmt7SSc5Awv941q29tHbrhRlj1Y9TUSmkXGDYyztBbrlsGQ9T6VZoorFu5slYKKKKQwooooAKKKKACiiigAooooAKKKKACiiigAooooAKKKKACiiigAooooAKKKKACiiigAooooAKKKKACiiigAooooAKKKKACiiigAooooAKKKKACiiigAooooAKKKKACiiigAooooAKKKKACiiigAooooAKKKKACiiigAooooAKKKKACiiigAooooAKKKKACiiigAooooAKKKKACiiigAooooAKKKKACiiigAooooAKKKKACiiigAooooAKKKKACiiigAooooAKKKKACiiigAooooAKKKKACiiigAooooAKKKKACiiigAooooAKCARgjIoooApz6dHJzH8jfpVCazmh6pkeq81t0Vam0Q4JnO0Vuy20Mv30GfUcGqkmljrFJ+DVoqiZm6bM2irEllPH1jJHqvNQEEHBGDVJpktNCUUUUxBRRRQAUUUUAFFFFABRRRQAUUUUAFFFFABRRRQAUUUUAFFFFABRRRQAUUUUAFFKAScAEn2qeOynk/g2j1bik2kNJsr0VpR6WOskmfZatxW0UP3EAPr1NS6iLVNmVDZTS8hdq+rcVfg0+KPl/nb36flVuis3NstQSDpRRRUFhRRRQAUUUUAFFFFABRRRQAUUUUAFFFFABRRRQAUUUUAFFFFABRRRQAUUUUAFFFFABRRRQAUUUUAFFFFABRRRQAUUUUAFFFFABRRRQAUUUUAFFFFABRRRQAUUUUAFFFFABRRRQAUUUUAFFFFABRRRQAUUUUAFFFFABRRRQAUUUUAFFFFABRRRQAUUUUAFFFFABRRRQAUUUUAFFFFABRRRQAUUUUAFFFFABRRRQAUUUUAFFFFABRRRQAUUUUAFFFFABRRRQAUUUUAFFFFABRRRQAUUUUAFFFFABRRRQAUUUUAFFFFABRRRQAUUUUAVdRkeKBWRip3jp9DUdtqKthZvlP97tS6r/x7L/vj+RrKrWMU4mUpNSOiBBGQcg0VhwXMsB+RuPQ9K0IdRifiT5D+lS4NFKaZcopAQwyCCD3FLUFhRRRQAU10Rxh1DD3GadRQBWewt3/AISp/wBk1A+lj+CUj6itCiqUmiXFMyW02cdCrfQ1C1pcL1ib8Oa3KKr2jJ9mjn2R1+8rD6im10VNMaN95FP1FP2nkL2Zz9FbptYD1iT8BimGxtj/AMsh+Zp+0QvZsxaK2Dp9v/dI/Gk/s2D/AG/zp+0QezZkUVq/2ZD/AHpPzH+FH9mQ/wB6T8x/hR7RC5GZVFao0yHu7/mP8KP7Mh/vSfmP8KPaIORmVRWv/ZsHq/50o0+3H8JP40e0Q/Zsx6K2hY24/wCWQ/M08W0C9Ik/Kl7RB7NmFT1ikb7qMfoK3lRV+6oH0FLS9oP2ZiLZ3DdIiPrxUy6bMfvFF/GtWil7Rj9migmlr/HIT9BipksbdP4Nx9zVmipcmylFIRUVBhVCj2GKWiipKCiiigAoopGYKMsQAO5oAWkJCgkkADuapz6jGnEQ3n17VnzXEk5+dsj07Vag2Q5pF651EDKwcn+8elTaezPbbmJJLHk1jVsab/x6D6mqlFKOhMZNy1LVFFFZGoUUUUAFFFFABRRRQAUUUUAFFFFABRRRQAUUUUAFFFFABRRRQAUUUUAFFFFABRRRQAUUUUAFFFFABRRRQAUUUUAFFFFABRRRQAUUUUAFFFFABRRRQAUUUUAFFFFABRRRQAUUUUAFFFFABRRRQAUUUUAFFFFABRRRQAUUUUAFFFFABRRRQAUUUUAFFFFABRRRQAUUUUAFFFFABRRRQAUUUUAFFFFABRRRQAUUUUAFFFFABRRRQAUUUUAFFFFABRRRQAUUUUAFFFFABRRRQAUUUUAFFFFABRRRQAUUUUAFFFFABRRRQBS1X/j2X/fH8jWVWrqv/Hsv++P5Gsqt6exhPcKKKKsgfHNJEcxuV+lXItTYcSoG9xxVCik4p7jUmtjajvYJP49p9G4qwCCMjkVztOSR4/uOy/Q1m6fY0VTudBRWQmozr1Ice4qwmqL/ABxkfQ5qXBlKaL9FV0vrd/49p9xUyyI/3HVvoc1LTRV0x1FFFIYUUUUAFFFFABRRRQAUUUUAFFFFABRRRQAUUUUAFFFFABRRRQAUU1pET77qv1OKhe+t0/jyfYZp2bFdIsUVnvqi/wAEZP8AvHFV31Cd+hCj2FUoMlzRsEgDJIA96ryX0Ef8e4+i81jvI7nLsWPuabVqn3JdTsXpdTduI1C+55NVJJXlOXYsfemUVailsZuTe4UUUUxBWxpv/HoPqax62NN/49B9TUVNjSnuWqKKKwNgooooAKKKKACiiigAooooAKKKKACiiigAooooAKKKKACiiigAooooAKKKKACiiigAooooAKKKKACiiigAooooAKKKKACiiigAooooAKKKKACiiigAooooAKKKKACiiigAooooAKKKKACiiigAooooAKKKKACiiigAooooAKKKKACiiigAooooAKKKKACiiigAooooAKKKKACiiigAooooAKKKKACiiigAooooAKKKKACiiigAooooAKKKKACiiigAooooAKKKKACiiigAooooAKKKKACiiigAooooAKKKKACiiigClqv+oT03f0rKrZ1CPzLVsdV+asat6exhU3CiiirICiiigAooooAKKKKACiiigB6zSp92Rh9DUq31wv8Ay0z9QKr0UrId2XV1OYdVQ/hUg1Q/xRD8GrOopckR87NQapH3jYfSnDUoD2cfhWTRS5EPnZsDULf+8R+FO+323/PT/wAdNYtFL2aH7Rm39tt/+eo/I0fbbf8A56j8jWJRR7NB7Rm39tt/+eo/I0hvrYf8tR+RrFoo9mg9ozZN/bf89M/8BNIdRtx3Y/hWPRR7NB7RmsdThHRXP4CmHVE7RsfqazKKfIhc7NA6oe0Q/FqY2pzHoqD8KpUU+SIudlhr64b/AJaY+gFRtPK/3pHP41HRTshXYUUUUxBRRRQAUUUUAFFFFABRRRQAVsab/wAeg+prHrasEKWiZ6nms6mxpT3LFFFFYmwUUUUAFFFFABRRRQAUUUUAFFFFABRRRQAUUUUAFFFFABRRRQAUUUUAFFFFABRRRQAUUUUAFFFFABRRRQAUUUUAFFFFABRRRQAUUUUAFFFFABRRRQAUUUUAFFFFABRRRQAUUUUAFFFFABRRRQAUUUUAFFFFABRRRQAUUUUAFFFFABRRRQAUUUUAFFFFABRRRQAUUUUAFFFFABRRRQAUUUUAFFFFABRRRQAUUUUAFFFFABRRRQAUUUUAFFFFABRRRQAUUUUAFFFFABRRRQAUUUUAFFFFABRRRQAUUUUAFFFFABRRRQAEZGDWJd25t5SP4DyprbpksSTIUcZH8qqMrMmUbowKKnubV7dueU7MKgroTuYNWCiiigQUUUUAFFFFABRRRQAUUUUAFFFFABRRRQAUUUUAFFFFABRRRQAUUUUAFFFFABRRRQAUUUUAFFFFABRRRQAUUUUAFFFFABRRVi1tHuDn7qd2/wAKTdhpXCztjcS8/cH3jW0BgYFNijWJAiDAFOrCUuZm8Y2QUUUVJQUUUUAFFFFABRRRQAUUUUAFFFFABRRRQAUUUUAFFFFABRRRQAUUUUAFFFFABRRRQAUUUUAFFFFABRRRQAUUUUAFFFFABRRRQAUUUUAFFFFABRRRQAUUUUAFFFFABRRRQAUUUUAFFFFABRRRQAUUUUAFFFFABRRRQAUUUUAFFFFABRRRQAUUUUAFFFFABRRRQAUUUUAFFFFABRRRQAUUUUAFFFFABRRRQAUUUUAFFFFABRRRQAUUUUAFFFFABRRRQAUUUUAFFFFABRRRQAUUUUAFFFFABRRRQAUUUUAFFFFABRRRQAUUUUABAYEEAg9jWfcaaDloDg/3TWhRTTa2E0nuc/JG8bbXUqfem10Dosi7XUMPeqc2mI3MTFT6HkVqqi6mTpvoZdFTy2c8XVCR6rzUFaJ3IasFFFFAgooooAKKKKACiiigAooooAKKKKACiiigAooooAKKKKACiiigAooooAKKKKACiiigAooooAKKKnis55eibR6txQ3YaVyCnRxvK21FLH2rSh01F5lYufQcCrqIqLtRQo9BWbqLoWqb6lG305Vw0x3H+6OlXwABgDAFFFZNt7mqSWwUUUUhhRRRQAUUUUAFFFFABRRRQAUUUUAFFFFABRRRQAUUUUAFFFFABRRRQAUUUUAFFFFABRRRQAUUUUAFFFFABRRRQAUUUUAFFFFABRRRQAUUUUAFFFFABRRRQAUUUUAFFFFABRRRQAUUUUAFFFFABRRRQAUUUUAFFFFABRRRQAUUUUAFFFFABRRRQAUUUUAFFFFABRRRQAUUUUAFFFFABRRRQAUUUUAFFFFABRRRQAUUUUAFFFFABRRRQAUUUUAFFFFABRRRQAUUUUAFFFFABRRRQAUUUUAFFFFABRRRQAUUUUAFFFFABRRRQA2SRIwC7BQTjJpw5GRVLVf+PZf98fyNUre7kg4B3J/dNWoXV0Q52dmbVFQQXcU/AO1v7pqepasUncKKKKQwqOS3il++gJ9e9SUUAUZNMQ/6tyvsearSadOvQBx7GteirU2iHBMwHikj++jL9RTK6Ko3gif70an8KpVO5LpmDRWw2n27dFK/Q1E2lr/DKR9Rmq9oieRmZRV5tLk/hkU/Xiozp1wOiqfoafMhcrKtFTmyuB1iP4c0w28w6xP/AN8mndCsyOinGNx1Rh+FIQR1BFMQlFSw28s5+Rcj1PSr0WmIOZWLH0HAqXJIpRbMygAnoM1upbQx/djX8RmpQMdKj2hfszntreh/Kja3ofyroaKPaeQez8zntreh/Kja3ofyroaKPaeQez8zntreh/Kja3ofyroaKPaeQez8zntreh/Kja3ofyroaKPaeQez8zntreh/KnpBK/3Y2P4VvUUe0D2ZkJp07fe2p9TVmPTIx992b6cVeoqXNspQSI44IovuIB796kooqCwooooAKKKKACiiigAooooAKKKKACiiigAopGZUGWYKPUmqsmowJ90lz7Cmk3sJtLct0Vmtqh/hiH4mmHU5uyJ+R/xquSRPOjVorK/tOb+7H+R/xo/tOb+7H+R/xo9mw50atFZP9pT+iflR/aU/on5UezYe0RrUVk/2lP6J+VH9pT+iflR7Nh7RGtRWT/aU/on5Uf2lP6J+VHs2HtEa1FZP9pT+iflR/aU/on5UezYe0RrUVk/2lP6J+VH9pT+iflR7Nh7RGtRWT/aU/on5Uf2lP6J+VHs2HtEa1FZP9pT+iflR/aU/on5UezYe0RrUVk/2lP6J+VL/AGnN/dj/ACP+NHs2HtEatFZX9pzf3Y/yP+NH9pzf3I/yP+NHs2HOjVorNXVG/iiB+hxU8eowt97cn1FJwaGpot0U1JEkGUYMPY06pKCiiigAooooAKKKKACiq17cm3jXaAWY8Zqj/aNx6r+VUoN6kuaWhr0Vkf2jceq/lSjUp/8AY/Kn7Ni9ojWorJ/tKf8A2PypP7RuPVfyo9mw9ojXorI/tGf1X8q0rWbz4Q+MHoRScWhqSZLRRRUlBRRRQAUUUUAFFFFABRRRQAUUUUAFFFFABRRRQAUUUUAFFFFABRRRQAUUUUAFFFFABRRRQAUUUUAFFFFABRRRQAUUUUAFFFFABRRRQAUUUUAFFFFABRRRQAUUUUAFFFFABRRRQAUUUUAFFFFABRRRQAUUUUAFFFFABRRRQAUUUUAFFFFAFLVf+PZf98fyNZVauq/8ey/74/kayq3p7GE9wq1DfTRcE719G/xqrRVNJ7kptbGxDfwycMdh9G/xq0CCMg5Fc7T45pIj+7cr9Kh0+xoqnc36Ky49TkXiRA3uODVqPUIH6kofcVm4NFqaZaopqSI4yjK30OadUlBRRRQAUUUUAFFFFABRRRQAUUUUAFFFFABRUFxdRQDDHLf3R1rOmv5pOFOxfbr+dUotkuSRrPIiDLsq/U4qFr63X/lpn6A1jEknJJJ96StFTRm6jNj+0bf1b8qP7Rt/VvyrHop+zQe0Zsf2jb+rflR/aNv6t+VY9FHs0HtGbH9o2/q35Uf2jb+rflWPRR7NB7Rmx/aNv6t+VH9o2/q35Vj0UezQe0Zsf2jb+rflR/aNv6t+VY9FHs0HtGbH9o2/q35Uf2jb+rflWPRR7NB7Rmx/aNv6t+VIdRg/2j+FZFFHs0HtGa39pQej/lR/aUHo/wCVZNFHs0L2jNb+0oPR/wAqcuoW7HBJX6iseij2aH7RnRA5GR0oqvYEmzjz7j9asVi1Zmqd0FFFNlkWJC7nAFIYrEKCWIAHc1QuNSxlYBn/AGjVS5unuG54QdFqCtow7mMp9h0kjyNudix96bRRWhmFFFFABRRRQAUUUUAFFFFABRRRQAUUUUAFFFFABRRRQAUUUUAFFFFABRRRQAUUUUAOR2RtyMVPqKvW+pEYWcZH94Vn0UnFPcabWx0KOrqGUgg9xS1h29y9u+VOVPVfWtiCZJ4w6H6j0rCUbG8ZXJKKKKkoKKKKAM7Vv+WX4/0rOrS1b7sX1NZtbw+Ewn8QUUUVZAUUUUAFa2mf8ex/3jWTWtpn/Hsf941FTYunuXKKKKwNwooooAKKKKACiiigAooooAKKKKACiiigAooooAKKKKACiiigAooooAKKKKACiiigAooooAKKKKACiiigAooooAKKKKACiiigAooooAKKKKACiiigAooooAKKKKACiiigAooooAKKKKACiiigAooooAKKKKACiiigAooooAKKKKACiiigClqp/wBHUf7f9DWVWrqgzbqfRqyq3p7GE9woooqyAooooAKKKKAAEg5FTJdzp0lb8eahootcd7F1NTlH3lVv0qZdUQ/fjYfQ5rMoqXBD52bK39u38ZH1FSrcQt92VD+NYNFT7NFe0Z0QIPQ5orngSOhI+lPE8y9JXH/AjS9mP2hvUViC8uB0lP4jNbEO/wApfMOXxzUSjylxlcfRRRUlBVC8vthMcJ+bu3pS6hdeWPKjPzHqfQVl1rCHVmU59EBJJyTkmiiitTIKKKKACiiigAooooAKKKKACiiigAooooAKKKKACiiigAooooAKKKKANuyGLSP6VPUNr/x7Rf7oqWuZ7nStgZgilmOAOSaxbq5a4kz0QfdFWdTuMkQqeBy3+FZ9awj1Mpy6BRRRWhmFFFFABRRRQAUUUUAFFFFABRRRQAUUUUAFFFFABRRRQAUUUUAFFFFABRRRQAUUUUAFFFFABRRRQAVLbTtbyBl6dx61FRRuPY6CN1kQOpyDTqytNuNknlMflbp7GtWueSszeLugoooqSjP1b7sX1NZtaWrfdi+prNreHwmE/iCiiirICiiigArW0z/j2P8AvGsmtbTP+PY/7xqKmxdPcuUUlLWBuFFFFABRRRQAUUUUAFFFFABRRRQAUUUUAFFFFABRRRQAUUUUAFFFFABRRRQAUUUUAFFFFABRRRQAUUUUAFFFFABRRRQAUUUUAFFFFABRRRQAUUUUAFFFFABRRRQAUUUUAFFFFABRRRQAUUUUAFFFFABRRRQAUUUUAFFFFABRRRQAUUUUARXMXnQOncjj61hHg4NdFWbqFoQTNGOD94f1rSnK2hnON9TPooorYxCiiigAooooAKKKKACiiigAooooAKKKKAJbVQ9zGp6bq3axtPGbxPbP8q2axqbm1PYKjuJRBCznt0HqakrL1SXdIsQ6LyfrUxV2VJ2RSZi7FmOSTk0lFFdBzhRRRQAUUUUAFFFFABRRRQAUUUUAFFFFABRRRQAUUUUAFFFFABRRRQAUUUUAblr/AMe0X+6KfI4jjZz0UZqKz5tY/pUOpybYFT+8f5Vz2vKx0XtG5mMxdizdScmkooroOcKKKKACiiigAooooAKKKKACiiigAooooAKKKKACiiigAooooAKKKKACiiigAooooAKKKKACiiigAooooAKKKKAFBIII4Irct5fNhV/Uc/WsKtLS5Mo8Z7HIrOotLmlN62NCikFLWJsZ2rf8svx/pWdWjq3/ACy/H+lZ1dEPhMJ/EFFFFUQFFFFABWtpn/Hsf941k1q6Z/x7H/eNRU2Lp7lylFJSisDcKKKKACiiigAooooAKKKKACiiigAooooAKKKKACiiigAooooAKKKKACiiigAooooAKKKKACiiigAooooAKKKKACiiigAooooAKKKKACiiigAooooAKKKKACiiigAooooAKKKKACiiigAooooAKKKKACiiigAooooAKKKKACiiigAooooAKKKKAKF1p4bLw8HuvY/Ss1lKsVYEEdjXQ1HNbxzjDrk9j3FaRnbczlC+xg0Vdn06ROYzvX071TIKnDAg+hrVNPYyaa3EooopiCiiigAooooAKKKKACiiigC3pozdj2BrXrJ0sf6SfZT/AErWrCpub09grCum3XMp/wBo1u1z7nc7H1OaqmKoNooorUxCiiigAooooAKKmhtpZuUXj1PSrK6Y38UgH0GalySKUWyhRWh/Zn/Tb/x3/wCvR/Zn/Tb/AMd/+vRzxHySM+itD+zP+m3/AI7/APXo/sz/AKbf+O//AF6OeIckjPorQ/sz/pt/47/9ej+zP+m3/jv/ANejniHJIz6K0P7M/wCm3/jv/wBej+zP+m3/AI7/APXo54hySM+itD+zP+m3/jv/ANej+zP+m3/jv/16OeIckjPorQ/sz/pt/wCO/wD16P7M/wCm3/jv/wBejniHJIz6K0P7M9Jf/Hf/AK9J/Zh/56j8qOeIuSRQoq//AGYf+eo/KnLpgz88mR6AUc8R8kixY5+yR59/51T1RszIvoua0lUIoVRgAYArK1H/AI+j/uis4ayuXPSNirRRRWxiFFFFABRRRQAVJDBJO2EH1J6CiCEzyhB+J9BW1HGsSBEGAKiUrFxjcqxadGo/eMWPtwKmFpAP+WQqaisXJs1UUiH7JB/zyWl+ywD/AJZL+VS0UXY7Ii+zQf8APJPyo+zQf88k/KpaKLsLIi+zQf8APJPyo+zQf88k/KpaKLsLIi+zQf8APJPyo+zQf88k/KpaKLsLIi+zQf8APJPyo+zQf88k/KpaKLsLIi+zQf8APJPyo+zQf88k/KpaKLsLIi+zQf8APJPyo+zQf88k/KpaKLsLIh+yQf8APJaPskH/ADyWpqKLsLIqSadEw+QlD+YqhPbSQH5hkdmHStqkZQ6lWGQeoNUptEuCZgUVNdQG3l29VPKmoa3TuYtWCiiigQUUUUAFWtObbdAf3gRVWp7I4u4/rSlsOO5tUtNpRXMdJn6t/wAsvx/pWdWjq3/LL8f6VnV0Q+Ewn8QUUUVRAUUUUAFaum/8ex/3jWVWrpv/AB7H/eNRU2Lp7lylFNpwrA3CiiigAooooAKKKKACiiigAooooAKKKKACiiigAooooAKKKKACiiigAooooAKKKKACiiigAooooAKKKKACiiigAooooAKKKKACiiigAooooAKKKKACiiigAooooAKKKKACiiigAooooAKKKKACiiigAooooAKKKKACiiigAooooAKKKKACioLu4NvEHC7stjGaWC5jnHyH5u6nrTs7XFdXsTUUUUhhTJIo5RiRA31p9FAFGXTEPMblfY8iqcllPH/BuHqvNbVFWptEOCZzpBBwRg0V0DxpIMOit9RVaTToG+6GQ+xq1UXUh030Miir76W4+5ID9RioHsbhP+Wefoc1SkmS4tFeinNG6feRl+oxTaokKKKKANDSV+eRvQAVpVmaU372RfVc/wCfzrTrCfxG8PhEY4Un0Fc9W/OcQSH0U/yrAqqZNQKKKK1MgooooAKltYvOnVD06n6VFVzTP9e3rt/rSk7IqKuzTACgADAHaloormOgKKKXFACUUuKMUAJRS4oxQAlFLijFACUUuKMUAJRS4oxQAlFLijFACUUuKMUAJWRqBzdN7AVsYrH1D/j7b6D+VaU9zOpsVqKKK2MQooooAKKKKANPTY9sRk7sf0q7UFmMWsf0qeueTuzoirIKKKcKkoTFLiiigAxRiiigAxRiiigAxRiiigAxRiiigAxRiiigAxRiiigAxRiiigAxRiiigCrqMQe2Ld05rHrfnG6CQeqn+VYFbU3oY1FqFFFFaGYUUUUAFTWn/H1H9ahqa0/4+o/rSew1ubVKKSgVzHSUNW/5Zfj/AErOrR1b/ll+P9Kzq6IfCYT+IKKKKogKKKKACtXTf+PY/wC8ayq1dN/49j/vGoqbF09y3SikpRWBuLRRRQAUUUUAFFFFABRRRQAUUUUAFFFFABRRRQAUUUUAFFFFABRRRQAUUUUAFFFFABRRRQAUUUUAFFFFABRRRQAUUUUAFFFFABRRRQAUUUUAFFFFABRRRQAUUUUAFFFFABRRRQAUUUUAFFFFABRRRQAUUUUAFFFFABRRRQAUUUUAFFFFAFLVf+PZf98fyNZYJUggkEdxWpqv/Hsv++P5Gsqt4bGE9y/b6ky4WYbh6jrWhFNHMMxsDWBSglTlSQR3FDgnsCm0dDRWTDqMqcOA49+DV2K/gk6tsPo1ZODRqpplmigEEZBBHtRUlBRRRQAUUUUAFMaGN/vRqfqKfRQBA1lbt/yzA+hIqM6bAem8fQ1bop8zFyor29mlvIXVmORjmrFFFDd9wSsR3P8Ax7S/7h/lWDXQSruidfVSK5+taZnUCiiitDIKKKKACpbaXyZ1c9Oh+lRUUPUa0N8EMAQcg96Wsa3u5IOB8y+hq6mpRH7ysp/OsHBo2U0y9RVX+0bf1b8qP7Rt/Vvypcr7D5kWqKq/2jb+rflR/aNv6t+VHK+wcyLVFVf7Rt/Vvyo/tG39W/KjlfYOZFqiqv8AaNv6t+VH9o2/q35Ucr7BzItUVV/tG39W/Kj+0bf1b8qOV9g5kWqKrDULc/xkfUGpUuIX+7IpPpmlZjuiSiiikMKKKKACsbUf+Px/oP5Vs1jah/x+Sfh/IVpT3M6mxWooorYxCiiigAooooA2rX/j2j/3RU1Q23/HtH/uipa5nudK2HClpBS0hhRRRQAUUUUAFFFFABRRRQAUUUUAFFFFABRRRQAUUUUAFFFFADZP9W/0Nc/XQSf6t/oa5+taZlUCiiitTIKKKKACprT/AI+o/rUNTWn/AB9R/Wk9hrc2qBSUormOkoat/wAsvx/pWdWjq3/LH8f6VnV0Q+Ewn8QUUUVRAUUUUAFaum/8ex/3jWVWppv/AB7H/eNRU2Lp7lylFNpwrA3FooooAKKKKACiiigAooooAKKKKACiiigAooooAKKKKACiiigAooooAKKKKACiiigAooooAKKKKACiiigAooooAKKKKACiiigAooooAKKKKACiiigAooooAKKKKACiiigAooooAKKKKACiiigAooooAKKKKACiiigAooooAKKKKACiiigClqv/AB7L/vj+RrKrV1U/uEH+1/Ssqt6exhPcKKKKsgKKKKAHJI8ZyjlfoatR6jMv3trj3GKp0Umk9xptbGompxn76Mv05qwl3A/SVfx4rDoqXTRaqM6IEEZByKK55WZTlWIPsamW8uE6Sk/XmodNle0Rt0VlLqcw+8qN+FSrqg/iiP4GlySHzo0KKprqUB6hx+FSC+tz/wAtMfUGlysrmRYoqIXMB6Sp+Jp4ljPR1P40rMLoVxuRlHcYrnq6KsS8j8q5cdicj8a0pvoZ1F1IKKKK1MgooooAKKKKACiiigAooooAKKKKACiiigAooooAKKKKACiiigCWK4lh+45A9Ooq/b6ir4WUbD6jpWXRUuKZSk0dEDkZHSise0vGgO1stH6en0rXRldQynIPQ1jKLRtGSYtY2of8fkn4fyFbNY2of8fkn4fyFVT3JqbFaiiitjEKKKKACiiigDatv+PaP/dFS1Fbf8e0f+6Klrme50rYcOlLSDpS0hhRRRQAUUUUAFFFFABRRRQAUUUUAFFFFABRRRQAUUUUAFFFFADZP9W/0Nc/XQSf6t/oa5+taZlUCiiitTIKKKKACprT/j6j+tQ1Naf8fMf1pPYa3NmlFJQK5jpKOrf8sfx/pWdWjq3/ACx/H+lZ1dEPhMJ/EFFFFUQFFFFABWppv/Hsf941l1qad/x7H/eNRU2Lp7lunLTactYG4tFFFABRRRQAUUUUAFFFFABRRRQAUUUUAFFFFABRRRQAUUUUAFFFFABRRRQAUUUUAFFFFABRRRQAUUUUAFFFFABRRRQAUUUUAFFFFABRRRQAUUUUAFFFFABRRRQAUUUUAFFFFABRRRQAUUUUAFFFFABRRRQAUUUUAFFFFABRRRQAUUUUAVNTTda5/usDWRXQOgkRkbowwawpY2ikZG6itqb0sY1FrcZRRRWhmFFFFABRRRQAUUUUAFFFFABRRRQAUUUUAFFFFAGnplxuBhY8jlfpTtTg3xiVRynX6VmRuY5FdeqnNbyMssYYcqwrKXuu6NY+8rM5+irF5bm3lwPuH7pqvWidzNqwUUUUxBRRRQAUUUUAFFFFABRRRQAUUUUAFFFFABRRRQAUUUUAFFFFABVywuTE/lsfkY/kap0Umrqw07O50VY2of8AH5J+H8hV+xn8yAZOSvBqhqH/AB+P74/lWUFaVjWbvG5WooorYxCiiigAooooA2rb/j2j/wB0VLUVt/x7R/7oqWuZ7nSthy9KWkXpS0hhRRRQAUUUUAFFFFABRRRQAUUUUAFFFFABRRRQAUUUUAFFFFADZP8AVv8AQ1z9dBJ/q3+hrn61pmVQKKKK1MgooooAKmtP+PmP61DU1p/x8x/Wk9hrc2aBSUormOko6t/yx/H+lZ1aWrD5Yj9f6Vm1vD4TCfxBRRRVkBRRRQAVqad/x7H/AHjWXWpp3/Ht/wACNRU2Lp7lunLTactYG4tFFFABRRRQAUUUUAFFFFABRRRQAUUUUAFFFFABRRRQAUUUUAFFFFABRRRQAUUUUAFFFFABRRRQAUUUUAFFFFABRRRQAUUUUAFFFFABRRRQAUUUUAFFFFABRRRQAUUUUAFFFFABRRRQAUUUUAFFFFABRRRQAUUUUAFFFFABRRRQAUUUUAFV7u1W4TI4cdDViimnYTVzn3Ro3KuCGHam1uz28c64cc9iOorLuLKSDJA3J6itozTMZQaK1FFFWQFFFFABRRRQAUUUUAFFFFABRRRQAUUUUAFamly7o2iPVeR9Ky6nspPKuUPY8GpkroqLszYliSaMo4yD+lY1zbPbvhuVPRvWtykdFdSrAEHsaxjKxtKNznqKv3GnEHMR/wCAmqbxPGcOpH1rdSTMXFoZRRRTJCiiigAooooAKKKKACiiigAooooAKKKKACiiigAooooAKKKKALenPtmKdmH602//AOPpvoP5VFbttnjP+0Klv/8Aj6b6Cot7xd/dK1FFFWQFFFFABRRRQBs2pzbR/wC7UtQ2Zzax/Spq5nudK2Hr0paRelLSGFFFFABRRRQAUUUUAFFFFABRRRQAUUUUAFFFFABRRRQAUUUUANk/1b/Q1z9b852wSH0U/wAqwK1pmVQKKKK1MgooooAKmtP+PmP61DU1p/x8x/Wk9hrc2KUUlKK5jpKWrfdi+prNrS1b7sX1NZtbw+Ewn8QUUUVZAUUUUAFamnf8e/8AwI1l1p6ac25Ho1RU2Lp7lunLTactYG46iiigAooooAKKKKACiiigAooooAKKKKACiiigAooooAKKKKACiiigAooooAKKKKACiiigAooooAKKKKACiiigAooooAKKKKACiiigAooooAKKKKACiiigAooooAKKKKACiiigAooooAKKKKACiiigAooooAKKKKACiiigAooooAKKKKACiiigAooooArT2MMvIGxvVaoTWE0fKjePVf8ACtiiqU2iXBM54gg4IwaSt+SKOUYdA31FVZNMjbmNip9DyK0VRdTN030Mqircmnzp0Acexqs6Ohw6lT7irTT2IaaG0UUUxBRRRQAUUUUAFFFFABRRRQBvW8nmwI/cjn61JVPS33W5X+61XK5pKzOmLugIzUbL2PIqSikMrNbQt1jX8OKZ9ig/uH8zVor6U2ndisit9hg/un8zR9hg/un8zVmijmfcOVdit9hg/un8zR9hg/un8zVmijmfcOVdit9hg/un8zR9hg/un8zVmijmfcOVdit9hg/un8zR9hg/un8zVmijmfcOVdit9hg/un8zR9hg/un8zVmijmfcOVdisbGA9iPxqrcWJjUvGdyjqD1rTpKam0JwTMKinzpsmdR0B4pldBzhRRRQAUUUUAKpwwPoasah/wAfJ+gqtVi+/wBcp9UFS9ylsV6KKKokKKKKACiiigDR02TMbRnqpyPpV2sSGUwyB17dvWtiKVZUDIcj+VYzjZ3N4SurEy9KWkXpS1mWFFFFABRRRQAUUUUAFFFFABRRRQAUUUUAFFFFABRRRQAUUU2WRYkLucAUAVtSl2W+3u5xWRUtzO1xKXPA6AegqKuiKsjnk7sKKKKokKKKKACprT/j5j+tQ1NaDN1H9aT2GtzYoFFArmOkqar/AKuP61mVqaqP3UZ/2qy63h8JhP4goooqyAooooAKu6bJiRoz/EMiqVKrFGDKcEcik1dWGnZ3N2nLUFvOs6ZHUdR6VOlczVjpTuOooooAKKKKACiiigAooooAKKKKACiiigAooooAKKKKACiiigAooooAKKKKACiiigAooooAKKKKACiiigAooooAKKKKACiiigAooooAKKKKACiiigAooooAKKKKACiiigAooooAKKKKACiiigAooooAKKKKACiiigAooooAKKKKACiiigAooooAKKKKACiiigAooooAKCARgjIoooAhe0gfrEo+nFQPpkR+67L+tXaKak0JxTMxtLkH3ZFP14qFrC4X+AH6EVs0VXtGT7NGE1vMvWJ/yqMqV6gj610NFV7Qn2ZztFdAY426op+ophtoD/yyT/vmn7RB7NmFRW2bO3P/ACyFJ9gtv+ef/jxo9ohezZW0knMo7cf1rRqOGCOBSI1xnrUlZyd3c0irKwUUUVJQUUUUAJtFJtp1FADdtG2nUUAN20badRQA3bRtp1FADdtG2nUUAN20baUsFGSQPrVS6v0jUrEwZz3HQU0m9hNpGddEG5kx03VFRRXSjnYUUUUCCiiigAq1er8sLeqAVVrRvI82inumKluzRSV0zOoooqiQooooAKKKKACnxyvE25GwaZRQBoRangYkj/FTUv8AacP92T8h/jWVRUciL52ao1OLuj/pUsd7BJxv2n/a4rFoo9mh+0Z0XXpRWHBdSQH5Tlf7p6Vr29wlwmV4I6qe1ZSg0aRkmS0UUVJRDPdR25AfOT2AqL+0oPR/yqW5t1uI9p4YdD6VjSxtE5RxgitIxizOUpI0/wC0oPR/yo/tKD0f8qyaKv2aI9ozW/tKD0f8qP7Sg9H/ACrJoo9mg9ozW/tKD0f8qP7Sg9H/ACrJoo9mg9ozW/tKD0f8qP7Sg9H/ACrJoo9mg9ozRk1Tj93H+LGqMs0kzZkYn+lMoqlFLYTk3uFFFFMkKKKKACiiigAqzYLm5B9ATVar+mphXf14FTN2RUVdl6lFJSiuc6CDUl3Wuf7rA1kVvzR+bC6eorA6VtTehjUWoUUUVoZhRRRQAUUUUAOR2jYMhIIq9DqWOJU/Faz6KTinuUpNbG0t9bn/AJaY+oNL9tt/+eo/I1iUVHs0V7Rm59rt/wDnqtH2u3/56rWHRR7NB7Rm59rt/wDnqtIby3H/AC1FYlFHs0HtGbf223/56j8jUsciSrlGDD2rn6u6YxEz46beaUoJK44zbdjVooByKKyNQooooAKKKKACiiigAooooAKKKKACiiigAooooAKKKKACiiigAooooAKKKKACiiigAooooAKKKKACiiigAooooAKKKKACiiigAooooAKKKKACiiigAooooAKKKKACiiigAooooAKKKKACiiigAooooAKKKKACiiigAooooAKKKKACiiigAooooAKKKKACiiigAooooAKKKKACiiigAooooAKpapIyRIqkgMecVdqhqw+SM+5qofETPYzckdzSUUV0HOFFFFABRRRQAUUUUAFFFFABRRRQAUUUUAFFFFABRRRQA5F3uq+pxW0yh1KnoRisywj3z7uyjNalY1HqbU1oYkiGORkPUGm1oahBuXzVHI+99Kz60i7ozkrMKKKKokKKKKACiiigAooooAKKKKACnxSNE4dDgimUUAbltcLcR7hww6j0qasCGV4ZA6HB/nW1bzrcR7l69x6VhKNjeMrktQ3NstwmDww6H0qaioTsW1cwJY2ico4wRTK3Lm2W4TB4YdD6VjSxtE5RxgiuiMrmEo2GUUUVRAUUUUAFFFFABRRRQAUUUUAFFFFABRRRQAAEkAdTWzBH5USp6Dn61SsINzeaw4Xp9a0axqPobU11ClHWkpydazNB9Y1/D5VwSB8r8j+tbNQXkHnwlR94crVQdmTNXRiUUEEEgjBFFdBzhRRRQAUUUUAFFFFABRRRQAUUUUAFFFFABVzTf9c3+7VOrmm/61v92pnsVHc0gcGpAcioqcnWuc6B9FFFABRRRQAUUUUAFFFFABRRRQAUUUUAFFFFABRRRQAUUUUAFFFFABRRRQAUUUUAFFFFABRRRQAUUUUAFFFFABRRRQAUUUUAFFFFABRRRQAUUUUAFFFFABRRRQAUUUUAFFFFABRRRQAUUUUAFFFFABRRRQAUUUUAFFFFABRRRQAUUUUAFFFFABRRRQAUUUUAFFFFABRRRQAUUUUAFFFFABVDVf8AVx/Wr9UNV/1cf1qofETP4TMoooroOcKKKKACiiigAooooAKKKKACiiigAooooAKKKKACiirNlB5r72HyL+ppN2VxpXdi5ZxeVCM/ebk1YpKK527u50JWVhevBrLvLUwNuUfu26e3tWoOTUjoroVYZU9RTjKzFKN0c9RVq7s2gJZctH6+lVa3TvsYNW3CiiimIKKKKACiiigAooooAKKKKACpIZngkDofqPWo6KAN23nS4j3L+I9KlrBgmeCQOh+o9a2oJ0nj3L+I9KwlGxvGVySobm2W4TB4YdD6VNRUJ2LauYEsbROUcYIplblzbLcJg8MOh9KxpY2ico4wRXRGVzCUbDKKKKogKKKKACiiigAooooAKKKKACpreBp3x0UdTRb27Tn0UdTWpGixoFUYAqJTtoi4xvqxVUIoVRgCnUlFYG4tPQcU1Rk1JQAUUUUAZ+oWm7M0Y5/iH9aza6Ks+8sc5khHPdf8K1hPozKcOqM2igjBwaK1MgooooAKKKKACiiigAooooAKKKKACrmm/wCtb/dqnVvTv9a3+7Uz2KjuaVKvWm05etc50ElFFFABRRRQAUUUUAFFFFABRRRQAUUUUAFFFFABRRRQAUUUUAFFFFABRRRQAUUUUAFFFFABRRRQAUUUUAFFFFABRRRQAUUUUAFFFFABRRRQAUUUUAFFFFABRRRQAUUUUAFFFFABRRRQAUUUUAFFFFABRRRQAUUUUAFFFFABRRRQAUUUUAFFFFABRRRQAUUUUAFFFFABRRRQAUUUUAFFFFABVDVf9XH9av1n6t9yMe5qofETP4TNoooroOcKKKKACiiigAooooAKKKKACiiigAooooAKKKtwWTPhpPlX07mk2luNJvYit7dp29FHU1qIiooVRgClVVRQqjAHalrCUrm8Y2CiilAyakocg70+gDAooACARg9KoXOnqSWj+U+nar9HWmm1sJpPcwJIZIj86ke/amVvMmPcVXe2hfqgH04rRVO5m6fYyaK0jYRHoWH4006enZ2qudE8jM+ir/8AZ4/56H8qT+zv+mv/AI7/APXo54hySKNFXv7O/wCmv/jv/wBej+zv+mv/AI7/APXp88Q5JFGir39nf9Nf/Hf/AK9H9nf9Nf8Ax3/69HPEOSRRoq//AGcP+eh/Kj+zx/z0P5UueIckihUkE7wSbk/EetWxp695D+VL/Z6f32/KjniHJIvQTJPGHQ/UelSVRgtvIk3JIfcY61dBBFYu3Q2V+otQ3NstwmDww6H0qaiknYbVzAljaJyjjBFMrcubZbhMHhh0PpWNLG0TlHGCK6IyuYSjYZRRRVEBRRRQAUUUUAFFFFAGnYyq0IQcMvUVZrEVijBlOCO9altcCdcHhx1FYzjbU2hK+hPSigDNSKuKzNAUYFLRRQAUUUUAFFFFAFa5s45vmxhvUVmy2ksXONy+orbpjJ3FWptEuCZgUVsSQRyffQE+tQNYRHoWFWqiM3TZnUVfOnDtIfypP7O/6a/+O/8A16rniLkkUaKunTj2l/8AHaP7PP8Az0H5Uc8RckilRV3+zz/z0H5Uo071l/8AHaOeIckijRV7+zv+mv8A47/9ej+zv+mv/jv/ANejniPkkUat6d/rW/3af/Z3/TX/AMd/+vU9vbLBk53E96mUk0OMWmT05PvU2nJ96sTYkooooAKKKKACiiigAooooAKKKKACiiigAooooAKKKKACiiigAooooAKKKKACiiigAooooAKKKKACiiigAooooAKKKKACiiigAooooAKKKKACiiigAooooAKKKKACiiigAooooAKKKKACiiigAooooAKKKKACiiigAooooAKKKKACiiigAooooAKKKKACiiigAooooAKKKKACiiigAooooAKqajC8sSlBkqelW6KadncTV1Ywfs83/PNvyo+zzf8APNvyrbdO4qOr9oyPZoyPs83/ADzb8qPs83/PNvyrXoo9ow9mjI+zzf8APNvyo+zy/wDPNvyrXoo9ow9mjI8iU/8ALN/++aPs83/PNvyrXoo9ow9mjI+zzf8APNvyo+zzf882/Kteij2jD2aMn7NN/wA82oFrMf8Alma1qKPaMPZoy1s5z/Dj6mpk08/xuPoKvUUnNj5ERxW8cX3V59T1qWiipbuVawUUUoBNIYgFSquBQq4paACiiigAooooAKYyelPooAhII60VNjNNKCgCOin+X70nlmgBtFO2GjYaAG0U7YaNhoAbRTtho2GgBtFO2GjYaAG0oODml2GjYaAHggjilpgUg0+gAqG5tluEweGHQ+lTUUJ2Bq5gSxtE5RxgimVuXNstwmDww6H0rGljaJyjjBFdEZXMJRsMoooqiAooooAKKKKAClVijBlOCO9JRQBsWVys64PDjqKtVz6OyMGU4I6Gti0u1uFwcCQdRWM4W1RtCd9GWKKKKzNAooooAKKKKACiiigBrKD9aYVIqWigCGipSgNNMfoaAGUU7YaNhoAbRTtho2GgBtFO2GjYaAG0U7YaNhoAbSp94Uuw0qqQcmgB9FFFABRRRQAUUUUAFFFFABRRRQAUUUUAFFFFABRRRQAUUUUAFFFFABRRRQAUUUUAFFFFABRRRQAUUUUAFFFFABRRRQAUUUUAFFFFABRRRQAUUUUAFFFFABRRRQAUUUUAFFFFABRRRQAUUUUAFFFFABRRRQAUUUUAFFFFABRRRQAUUUUAFFFFABRRRQAUUUUAFFFFABRRRQAUUUUAFFFFABRRRQAUx07in0UAQ0VNijFAENFTYoxQBDRU2KMUAQ0VNijFAENFTYoxQBDijFTUUAQ4NKEJqWigBoT1pwGKKKACiiigAooooAKKKKACiiigAooooAKKKKACiiigAooooAKKKKACiiigAooooAKKKKACiiigAqG5tluEweGHQ+lTUUJ2Bq5gSxtE5RxgimVuXNstwmDww6H0rGljaJyjjBFdEZXMJRsMoooqiAooooAKKKKAClVijBlOCOhpKKANmzuxcLhuJB1HrVmueVijBlOCOhrYs7sXC4biQdR61jOFtUbQnfRlmiiiszQKKKKACiiigAooooAKKKKACiiigAooooAKKKKACiiigAooooAKKKKACiiigAooooAKKKKACiiigAooooAKKKKACiiigAooooAKKKKACiiigAooooAKKKKACiiigAooooAKKKKACiiigAooooAKKKKACiiigAooooAKKKKACiiigAooooAKKKKACiiigAooooAKKKKACiiigAooooAKKKKACiiigAooooAKKKKACiiigAooooAKKKKACiiigAooooAKKKKACiiigAooooAKKKKACiiigAooooAKKKKACiiigAooooAKKKKACiiigAooooAKKKKACiiigAooooAKKKKACiiigAooooAKKKKACiiigAooooAKKKKACiiigAooooAKKKKACobm2W4TB4YdD6VNRQnYGrmBLG0TlHGCKZW5c2y3CYPDDofSsWSNonKOMEV0RlcwlGw2iiiqICiiigAooooAKVWKMGU4I6GkooA2bO7FwuG4kHUetWa55WKMGU4I6GtizuxcLhuJB1HrWM4W1RtCd9GWaKKKzNAooooAKKKKACiiigAooooAKKKKACiiigAooooAKKKKACiiigAooooAKKKKACiiigAooooAKKKKACiiigAooooAKKKKACiiigAooooAKKKKACiiigAooooAKKKKACiiigAooooAKKKKACiiigAooooAKKKKACiiigAooooAKKKKACiiigAooooAKKKKACiiigAooooAKKKKACiiigAooooAKKKKACiiigAooooAKKKKACiiigAooooAKKKKACiiigAooooAKKKKACiiigAooooAKKKKACiiigAooooAKKKKACiiigAooooAKKKKACiiigAooooAKKKKACiiigAooooAKKKKACiiigAooooAKKKKACiiigAooooAKKKKACiiigAooooAKgurZbhMHhx0NT0U07Cauc/JG0TlHGCKbW3dWy3CYPDjoayJIZImKupBreMrmMo2I6KXB9DRg+hqiBKKXB9DRg+hoASilwfQ0YPoaAEpVYowZTgjoaMH0NGD6GgDYs7sXC4biQdR61Zrn1LowZcgjoa2bS4M8WWXDDg+9YzjbVG8JX0ZPRRRWZYUUUUAFFFFABRRRQAUUUUAFFFFABRRRQAUUUUAFFFFABRRRQAUUUUAFFFFABRRRQAUUUUAFFFFABRRRQAUUUUAFFFFABRRRQAUUUUAFFFFABRRRQAUUUUAFFFFABRRRQAUUUUAFFFFABRRRQAUUUUAFFFFABRRRQAUUUUAFFFFABRRRQAUUUUAFFFFABRRRQAUUUUAFFFFABRRRQAUUUUAFFFFABRRRQAUUUUAFFFFABRRRQAUUUUAFFFFABRRRQAUUUUAFFFFABRRRQAUUUUAFFFFABRRRQAUUUUAFFFFABRRRQAUUUUAFFFFABRRRQAUUUUAFFFFABRRRQAUUUUAFFFFABRRRQAUUUUAFFFFABRRRQAUUUUAFFFFABRRRQAUUUUAFIyhh70tFAFcgg4NFTsoYe9QEEHBoAKKKKACiiigAooooAKAcHiiigCZH3D3p1VxweKmRtw96AHUUUUAFFFFABRRRQAUUUUAFFFFABRRRQAUUUUAFFFFABRRRQAUUUUAFFFFABRRRQAUUUUAFFFFABRRRQAUUUUAFFFFABRRRQAUUUUAFFFFABRRRQAUUUUAFFFFABRRRQAUUUUAFFFFABRRRQAUUUUAFFFFABRRRQAUUUUAFFFFABRRRQAUUUUAFFFFABRRRQAUUUUAFFFFABRRRQAUUUUAFFFFABRRRQAUUUUAFFFFABRRRQAUUUUAFFFFABRRRQAUUUUAFFFFABRRRQAUUUUAFFFFABRRRQAUUUUAFFFFABRRRQAUUUUAFFFFABRRRQAUUUUAFFFFABRRRQAUUUUAFFFFABRRRQAUUUUAFFFFABRRRQAUUUUAFFFFABRRRQAUUUUAFFFFABQQD1FFFACbV9KNq+lLRQAm1fSjavpS0UAJtX0o2r6UtFACbV9KNq+lLRQAm1fSgADoKWigAooooAKKKKACiiigAooooAKKKKACiiigAooooAKKKKACiiigAooooAKKKKACiiigAooooAKKKKACiiigAooooAKKKKACiiigAooooAKKKKACiiigAooooAKKKKACiiigAooooAKKKKACiiigAooooAKKKKACiiigAooooAKKKKACiiigAooooAKKKKACiiigAooooAKKKKACiiigAooooAKKKKACiiigAooooAKKKKACiiigAooooAKKKKACiiigAooooAKKKKACiiigAooooAKKKKACiiigAooooAKKKKACiiigAooooAKKKKACiiigAooooAKKKKACiiigAooooAKKKKACiiigAooooAKKKKACiiigAooooAKKKKACiiigAooooAKKKKACiiigAooooAKKKKACiiigAooooAKKKKACiiigAooooAKKKKACiiigAooooAKKKKACiiigAooooAKKKKACiiigAooooAKKKKACiiigAooooAKKKKACiiigAooooAKKKKACiiigAooooAKKKKACiiigAooooAKKKKACiiigAooooAKKKKACiiigAooooAKKKKACiiigAooooAKKKKACiiigAooooAKKKKACiiigAooooAKKKKACiiigAooooAKKKKACiiigAooooAKKKKACiiigAooooAKKKKACiiigAooooAKKKKACiiigAooooAKKKKACiiigAooooAKKKKACiiigAooooAKKKKACiiigAooooAKKKKACiiigAooooAKKKKACiiigAooooAKKKKACiiigAooooAKKKKACiiigAooooAKKKKACiiigAooooAKKKKACiiigAooooAKKKKACiiigAooooAKKKKACiiigAooooAKKKKACiiigAooooAKKKKACiiigAooooAKKKKACiiigAooooAKKKKACiiigAooooAKKKKACiiigAooooAKKKKACiiigAooooAKKKKACiiigAooooAKKKKACiiigAooooAKKKKACiiigAooooAKKKKACiiigAooooAKKKKACiiigAooooAKKKKACiiigAooooAKKKKACiiigAooooAKKKKACiiigAooooAKKKKACiiigAooooAKKKKACiiigAooooAKKKKACiiigAooooAKKKKACiiigAooooAKKKKACiiigAooooAKKKKACiiigAooooAKKKKACiiigAooooAKKKKACiiigAooooAKKKKACiiigAooooAKKKKACiiigAooooAKKKKACiiigAooooAKKKKACiiigAooooAKKKKACiiigAooooAKKKKACiiigAooooAKKKKACiiigAooooAKKKKACiiigAooooAKKKKACiiigAooooAKKKKACiiigAooooAKKKKACiiigAooooAKKKKACiiigAooooAKKKKACiiigAooooAKKKKACiiigAooooAKKKKACiiigAooooAKKKKACiiigAooooAKKKKACiiigAooooAKKKKACiiigAooooAKKKKACiiigAooooAKKKKACiiigAooooAKKKKACiiigAooooAKKKKACiiigAooooAKKKKACiiigAooooAKKKKACiiigAooooAKKKKACiiigAooooAKKKKACiiigAooooAKKKKACiiigAooooAKKKKACiiigAooooAKKKKACiiigAooooAKKKKACiiigAooooAKKKKACiiigAooooAKKKKACiiigAooooAKKKKACiiigAooooAKKKKACiiigAooooAKKKKACiiigAooooAKKKKACiiigAooooAKKKKACiiigAooooAKKKKACiiigAooooAKKKKACiiigAooooAKKKKACiiigAooooAKKKKACiiigAooooAKKKKACiiigAooooAKKKKACiiigAooooAKKKKACiiigAooooAKKKKACiiigAooooAKKKKACiiigAooooAKKKKACiiigAooooAKKKKACiiigAooooAKKKKACiiigAooooAKKKKACiiigAooooAKKKKACiiigAooooAKKKKACiiigAooooAKKKKACiiigAooooAKKKKACiiigAooooAKKKKACiiigAooooAKKKKACiiigAooooAKKKKACiiigAooooAKKKKACiiigAooooAKKKKACiiigAooooAKKKKACiiigAooooAKKKKACiiigAooooAKKKKACiiigAooooAKKKKACiiigAooooAKKKKACiiigAooooAKKKKACiiigAooooAKKKKACiiigAooooAKKKKACiiigAooooAKKKKACiiigAooooAKKKKACiiigAooooAKKKKACiiigAooooAKKKKACiiigAooooAKKKKACiiigAooooAKKKKACiiigAooooAKKKKACiiigAooooAKKKKACiiigAooooAKKKKACiiigAooooAKKKKACiiigAooooAKKKKACiiigAooooAKKKKACiiigAooooAKKKKACiiigAooooAKKKKACiiigAooooAKKKKACiiigAooooAKKKKACiiigAooooAKKKKACiiigAooooAKKKKACiiigAooooAKKKKACiiigAooooAKKKKACiiigAooooAKKKKACiiigAooooAKKKKACiiigAooooAKKKKACiiigAooooAKKKKACiiigAooooAKKKKACiiigAooooAKKKKACiiigAooooAKKKKACiiigAooooAKKKKACiiigAooooAKKKKACiiigAooooAKKKKACiiigAooooAKKKKACiiigAooooAKKKKACiiigAooooAKKKKACiiigAooooAKKKKACiiigAooooAKKKKACiiigAooooAKKKKACiiigAooooAKKKKACiiigAooooAKKKKACiiigAooooAKKKKACiiigAooooAKKKKACiiigAooooAKKKKACiiigAooooAKKKKACiiigAooooAKKKKACiiigAooooAKKKKACiiigAooooAKKKKACiiigAooooAKKKKACiiigAooooAKKKKACiiigAooooAKKKKACiiigAooooAKKKKACiiigAooooAKKKKACiiigAooooAKKKKACiiigAooooAKKKKACiiigAooooAKKKKACiiigAooooAKKKKACiiigAooooAKKKKACiiigAooooAKKKKACiiigAooooAKKKKACiiigAooooAKKKKACiiigAooooAKKKKACiiigAooooAKKKKACiiigAooooAKKKKACiiigAooooAKKKKACiiigAooooAKKKKACiiigAooooAKKKKACiiigAooooAKKKKACiiigAooooAKKKKACiiigAooooAKKKKACiiigAooooAKKKKACiiigAooooAKKKKACiiigAooooAKKKKACiiigAooooAKKKKACiiigAooooAKKKKACiiigAooooAKKKKACiiigAooooAKKKKACiiigAooooAKKKKACiiigAooooAKKKKACiiigAooooAKKKKACiiigAooooAKKKKACiiigAooooAKKKKACiiigAooooAKKKKACiiigAooooAKKKKACiiigAooooAKKKKACiiigAooooAKKKKACiiigAooooAKKKKACiiigAooooAKKKKACiiigAooooAKKKKACiiigAooooAKKKKACiiigAooooAKKKKACiiigAooooAKKKKACiiigAooooAKKKKACiiigAooooAKKKKACiiigAooooAKKKKACiiigAooooAKKKKACiiigAooooAKKKKACiiigAooooAKKKKACiiigAooooAKKKKACiiigAooooAKKKKACiiigAooooAKKKKACiiigAooooAKKKKACiiigAooooAKKKKACiiigAooooAKKKKACiiigAooooAKKKKACiiigAooooAKKKKACiiigAooooAKKKKACiiigAooooAKKKKACiiigAooooAKKKKACiiigAooooAKKKKACiiigAooooAKKKKACiiigAooooAKKKKACiiigAooooAKKKKACiiigAooooAKKKKACiiigAooooAKKKKACiiigAooooAKKKKACiiigAooooAKKKKACiiigAooooAKKKKACiiigAooooAKKKKACiiigAooooAKKKKACiiigAooooAKKKKACiiigAooooAKKKKACiiigAooooAKKKKACiiigAooooAKKKKACiiigAooooAKKKKACiiigAooooAKKKKACiiigAooooAKKKKACiiigAooooAKKKKACiiigAooooAKKKKACiiigAooooAKKKKACiiigAooooAKKKKACiiigAooooAKKKKACiiigAooooAKKKKACiiigAooooAKKKKACiiigAooooAKKKKACiiigAooooAKKKKACiiigAooooAKKKKACiiigAooooAKKKKACiiigAooooAKKKKACiiigAooooAKKKKACiiigAooooAKKKKACiiigAooooAKKKKACiiigAooooAKKKKACiiigAooooAKKKKACiiigAooooAKKKKACiiigAooooAKKKKACiiigAooooAKKKKACiiigAooooAKKKKACiiigAooooAKKKKACiiigAooooAKKKKACiiigAooooAKKKKACiiigAooooAKKKKACiiigAooooAKKKKACiiigAooooAKKKKACiiigAooooAKKKKACiiigAooooAKKKKACiiigAooooAKKKKACiiigAooooAKKKKACiiigAooooAKKKKACiiigAooooAKKKKACiiigAooooAKKKKACiiigAooooAKKKKACiiigAooooAKKKKACiiigAooooAKKKKACiiigAooooAKKKKACiiigAooooAKKKKACiiigAooooAKKKKACiiigAooooAKKKKACiiigAooooAKKKKACiiigAooooAKKKKACiiigAooooAKKKKACiiigAooooAKKKKACiiigAooooAKKKKACiiigAooooAKKKKACiiigAooooAKKKKACiiigAooooAKKKKACiiigAooooAKKKKACiiigAooooAKKKKACiiigAooooAKKKKACiiigAooooAKKKKACiiigAooooAKKKKACiiigAooooAKKKKACiiigAooooAKKKKACiiigAooooAKKKKACiiigAooooAKKKKACiiigAooooAKKKKACiiigAooooAKKKKACiiigAooooAKKKKACiiigAooooAKKKKACiiigAooooAKKKKACiiigAooooAKKKKACiiigAooooAKKKKACiiigAooooAKKKKACiiigAooooAKKKKACiiigAooooAKKKKACiiigAooooAKKKKACiiigAooooAKKKKACiiigAooooAKKKKACiiigAooooAKKKKACiiigAooooAKKKKACiiigAooooAKKKKACiiigAooooAKKKKACiiigAooooAKKKKACiiigAooooAKKKKACiiigAooooAKKKKACiiigAooooAKKKKACiiigAooooAKKKKACiiigAooooAKKKKACiiigAooooAKKKKACiiigAooooAKKKKACiiigAooooAKKKKACiiigAooooAKKKKACiiigAooooAKKKKACiiigAooooAKKKKACiiigAooooAKKKKACiiigAooooAKKKKACiiigAooooAKKKKACiiigAooooAKKKKACiiigAooooAKKKKACiiigAooooAKKKKACiiigAooooAKKKKACiiigAooooAKKKKACiiigAooooAKKKKACiiigAooooAKKKKACiiigAooooAKKKKACiiigAooooAKKKKACiiigAooooAKKKKACiiigAooooAKKKKACiiigAooooAKKKKACiiigAooooAKKKKACiiigAooooAKKKKACiiigAooooAKKKKACiiigAooooAKKKKACiiigAooooAKKKKACiiigAooooAKKKKACiiigAooooAKKKKACiiigAooooAKKKKACiiigAooooAKKKKACiiigAooooAKKKKACiiigAooooAKKKKACiiigAooooAKKKKACiiigAooooAKKKKACiiigAooooAKKKKACiiigAooooAKKKKACiiigAooooAKKKKACiiigAooooAKKKKACiiigAooooAKKKKACiiigAooooAKKKKACiiigAooooAKKKKACiiigAooooAKKKKACiiigAooooAKKKKACiiigAooooAKKKKACiiigAooooAKKKKACiiigAooooAKKKKACiiigAooooAKKKKACiiigAooooAKKKKACiiigAooooAKKKKACiiigAooooAKKKKACiiigAooooAKKKKACiiigAooooAKKKKACiiigAooooAKKKKACiiigAooooAKKKKACiiigAooooAKKKKACiiigAooooAKKKKACiiigAooooAKKKKACiiigAooooAKKKKACiiigD//Z;" parent="1" vertex="1">
          <mxGeometry x="580" y="280" width="122.8" height="95.94" as="geometry" />
        </mxCell>
        <mxCell id="idugW8RmlfMsUO6L2Yv1-35" value="" style="shape=image;verticalLabelPosition=bottom;labelBackgroundColor=default;verticalAlign=top;aspect=fixed;imageAspect=0;image=data:image/png,iVBORw0KGgoAAAANSUhEUgAAASwAAADqCAYAAAAYu3hoAAAAGXRFWHRTb2Z0d2FyZQBBZG9iZSBJbWFnZVJlYWR5ccllPAAATKNJREFUeNrsXQd8ZFX1/l6ZPul9N9tYerMgKIKiiIIgoAhiRRAVe0URBGliBxEFxIYioiJWwK5/FARBFJS+LLC7STa9T6a9mff+59x7Jxmyye5M2swk9/txSHYy5c199373nHNPMR5r2wCNhYGXMWBFXWz85TZYTS6Q0mOyAhEgOZzk9SSHkTSR1JDcR3I8SUwP0dxh6yHQ0CgaPpJDSNpJtpGkFTE9h+QUkoNmeM0BJBFNWJqwNDSWAmGSQ0mOInkxyYtI/IqsHEVGO8M4SVIPoyYsDY3FQgvJMSTHkrxAaVT+ac/xz/DYTHAVuWlowtLQWDCwv+lVJG8mOZKkeoHet5bkHZCezQzJzSRxPdyasDQ05oIGRVIfJ1m3CO9fT/KNvH8/CumI1ygCph4CDQ3hKL+X5KpFIquZcKIedk1YGhrF4kplnm1c4s99ozI/NTRhaWjsAIOkmWR3Eg4+bFFk9eESXc9uJG/Vt6U4aB+WxnIHazGvhTzpey5Jm5r37PCuL/G1vY/kB9CxWZqwNDQg/USfJdl/hr+FyuD69iX5HMmH9K3SJqHGygVrTteT/HIWsionfJDkdfqWacLSWJl4DckDJKdD+q0qAddi5nQeDU1YGssUhyqN6laStRV27XwA8AuSF+rbuHNoH5ZGpYM1k3MhqyNUMphk/0pyAslfZnkOa4zr1XPrIJOwPci0n3+RdGjC0tAoT/CJ36cgS7aEl8l34u/xZ5LLSM5Xj+1N8nLIhOsDMVWuJjTN5L2Q5BJNWBoa5QNDaVSfIDlpGc/fTyvzMK3IqpATzfzqEZqwNDRKCIvkCJL3K6JaCTiqyOe/ErKixN3LeVC0012jnBEkOQPSt/OXFURWc1U+PqFNQg2NpUcjybshQxP20MNRMJ4PWcZmRBOWhsbiY3dFVO9SC0+jOPDJ4b7L2SzUJqFGOWyaL4XMqXtEmTWarOaGKpLvKU1LE5aGxgKCHelcMO+3JHeQnIbCSg1r7Bx7kfwfydu1SaihMX9E8sy+ffRwLAq4rPP3IauoXqEJS0OjeDQoLepjkM0cNBYfl5MMQyaCa8LS0CgAB0P6pdhP1aKHY8lxHckWZSZWPLQPS2MxweEJ7AQ+RZNVycD5hp/DwnX/0YSlsWzxXpR/PaqVAE7beZcmLA2N2cGliE/Xw1BWm0edJiwNDRmOwOWIuXgeO9Q5DuhbkI0WNMoD3BXohEr/EtrprjEf7KlIiku8vAyyLtN2SN9VUA9P2eGjkEUOxzRhaawU8Jw5FTJE4RA8OyrdhA5ZKGc8h+TzkFUvNGFpLHvsR3ITZCE5jcoEtxa7HxUam6UJS6NQHABZDbNZD0XF47vKZL+20i5cO901Cp0nF2qyWjbgyq3XkHwHFRYfpwlLoxCsITlGD8Oyw5mQpWj21iahRqXuvFH1+3je4+tQHp2SNRYeXAN+UGtYGpUG7kJzJcnfIPPOOI7qYPW3F+q5sizxB6U592sNS6OScDbJxXh2uyzuTnMyyU+0Obis0EfyO5Jfkfwasq9hxUAT1soGJ8ay4/W0Wf7OqRzv1cO0LPA7pTXfBxncW5HQhLVyESD5GWSUusbyRRwyp/Nny+HLaL/EysQqZRJoslr++OpyIStNWCsTh0P2+NN+qZWBweX0ZTRhrRxwgOBViqz21sOxYjC+nL6M9mEtT3ByKzd4eAwyOZlbmL8Mun3WSoStv4xGJZh9b9TDoEF4Jck3tUmoUc7QmpRGDidBVmZYqzUsjXIE5/09Vw+DRh5OJ3k1ZPecAZKkUlZ4Y+OGth+HLDmjCUtjyfFWklY9DBrT0ILZKzOsqxTC0ibh8gLXUj9bD4NGkdi3Ui5UE9bywWEkPyep10OhUSTOh6zNrwlLY17g5pdHktTs5DnPg8wH5Fyx9XrINOYA7np0I8nry/1CtQ+rvMFH0reQdEAWWtsK2fGEy9u2KbLaF7pDjcb8wZsiVyF9hORxTVgaxYIdpJeo3/nk71Q9JBqLDC6BfQrJpdok1CgGh5LchgpyhmosG5R1d2hNWOWFvSCD/Djf7wV6ODSWCBnIMjRczO/hcr5QbRKWB7i65zmQrcQDejg0lgAjJLcrTf5RyKoOzAd9mrA0duYz+ALJGXooNJYIKZJvk3yOpLvSLl4TVunAjvS/kuxe1lfpzfB77qcx7ef03zXKDXzifBnJg5X6BTRhLRRMWscpA1nxi7GrhctxL9eWBVl50wiIvZpW3u8+NUvyf89HRkl22u/8nq76dz6ZrWRCc6fmyuQ4ZJdkbH4BWQvtb5U+hJVKWHyScaRaFpkSLQP+bO4ywzWn/us5BuymDHytdDmmNzU5JapIXk7yUnWtTSTHlXQEs2oBMXVGID1nQUVKhvy7lyAZM+ENmciOk0zQH5IGPNcU397g7xl0YUY8WFX0syoLo5oeD3lTM4u73iXVz7gySJBHissd/B0d9bNGjXUo77vzeNA4i+i6ZN74z7+XzTblbuCWbZunbR2asJYY+yr1thzwVcPyPpboDmDNe3rRePEw8IxaoBKvgqyrvW/JF05WLR5eFI2QcfTqnNgdsuA8ZCH53wCSTwSQ3u6D02Mh22vCHbfgJugNSDya9p4nV5thePBoBhlEdGbYhRUhaXFhE2n72xyE9kwh8Nw0fLtlYDVk5WcyScYgXbwpNQNtVFizqSKQVETVJv/pPGkj9bAfmU4fkXwWvv0cBPZOw1jryXHpVPfHmveYXAR54rysUKmElS2jEcw6vTbCa5OoOXpcnr1M4cOQzUlLb4qk1cLZoMzXmIHEfQEk7gwh9rcwEptoEW0jYkpZUxYiERJrUablwmBNzPYEOQnNKt8kjJMpPGrCydjwHiFSU+qDsCr9RGDtGYR2TyNyRAJhktABSRgbPLkg+UxqKG+RLhd4aszb5LiP3xxB91VNGLs3AiPDY+OpW2PAvyaNlrcOofH9I7D2pqn9VN7GMjfSugOynyQ0YZXPdCg9aIE53bbrX+1gw2+74FuXkR3f5KhytPD5JSUpQ11Lg9Kmxg3E/hzC+O8jGP9jBMnNfuF3k/YdfZ2AC3+TQ6TkTpkswsellpe348gbbEoaiqKM7LPMPJfMR5dMyfQWH1JP+zHyx6ggvuD6FKKviKP6uAlEDyM7cR9PmosDigA9VHaEoKe21L3p6/TYePqE1Rj4ex0ijXG0fXAA1c+bgG+Vg2zMRPzxIIZvrcEzn1+NritbsPGGDtScPC6TsZJzXqHXK0Nz+VnYj7VtqMTr5tbp/yy1ieWRSeOmrc9svK/j0uDGVIBMwSraFXmpnae0q9L5pqLKU0a7tPOED8O/qcYY7fLxB4LIZk1YRC5m2IMVpJ8hb9JvIsw9d+HGSGhj6r3dJJmXCRLWyDwLpuEifGAS1SfHUHviOPz7O/KzmbhGFWlVmrloKM1qd7oVXTYefsXuiD8ZwO6f70DTx4ek1jQd9LUn/hLGUx9sx/jmCPa55hnUv3dEeqGK99Cybna08l1pwtKEpQaOzKNUhx/VJ038bP1NXXejH6+nibqRJhcfCARLslB4R2aH7lr57+Q/Axj4Vh1GfxOFM2jDMrOwa4jRAmzqscnHBLWEhGDkfSYREx9UZEYtZDMW7Oosql8zgcazhhB+aVI+v0P5u4JYKEf00mwYpM16EQOPHrURE/eHcOAdTyJ4WFKSj42p09McIeceJyJ//OgNGLqrGgfe9SRpnxPAJsiDkeK++9UkH9CEpQnrWYSV7Ah4LecOGa2X9UtHe6lOvVy1r66SiyVxfxADX6nD8K+qkE2Z8EfTsOvoSS6f8JXZBLSkrywzaiI15qd/e6g9JobmcwcR5kVOaxZdmAq3KHewdrUnsP2CFmy5rA373vQUat80LjTGgevrMHJLNYwkfd8EEbVnIrRnGqsu6RWOd8F3QxYeeRHtexkP+/37KaGFCtIufm79m+R7JD9S+uqygM4lnOd6c9kH5KF0gRW8O1dJf4kz4EPH21qx6UXrMPDTGtj+LCLrEoKsvEz5kZX4CqSRuHRtVrWHyPokkWsGw7dXY9Ph67H19auQ3uoXBCD01myZa1m8abTSLdluoeeqerSeNCjJ6impJY0/HkH/P2oQ2DOF2lPGUEUa1PBfqvDoYRuRfDAgvE5WaxZrPtODia4wBn9VK09WnTldzUFK0/otlkkDCk1YFUuTeSbFHrSGawwMXFGHTYesQ/+NdbBCGYRXJ2GR+eemTUFW5Q5BXET+fNQfbk/AF3Uw9ItqPPHC9ei9tAFuyJRhttacF/DSbCA1wNifo8iMW6h/64i8VkeatabrIRRMo+XTg2i5aBBrvt2DvW99GolYAH03NshYuCGg9g0xhJuSGP1pVGrPvnld1YshfaqasDRKhLg0/bi+aOLeIJ46Yi06Pt4Kj8wnJipfbVY4z71s5UVm8jWzsK8tRN/FzGSx/TPNePKF6zDxl5Bsl8CnnskyJCuVtp74R5B+dRDZLyHNucnwBA8u35O8+5LttcT+42vISF8dGW9GxEX1C2JIPeiHN2DKcJT5BfIcqGZMxUOn5lQa2NXBbkdau32fa8D2C5rJLnWJqBLCoy0CO43KDyH3XPkdrAb6bmQrpR72YdNR69B67iDa2GfIp6Bb5619LCz86hY9ZcPX4sgDjoRSCzj4P5iF5bjY9vE2EfHOYQ2Jv/mx9u3daPtEH9CLyah4/14Oxu4mTW3Cgq/NlYG2c/fhcTsvzsoY0xqWxtIgF66wF1mDEzaefvUabPt0izCdQuuSSqPC8kt3cWWoRXB9GoFaB9s/34zNpFGmu33St5Xz45XJtYpF5aeLcgxxyPGsBHFDqWIcOEpalrPNRiZD5LY+I+kkhUkfnZc2RHCpCAuZv99uH8hQB20SLgtY06K3y81flZY+EGyEiEp/4vnrMfL7KKJNCTL/MsJPtSjOaF5vlleULAphcgxXyhT+rUhrHGN3hrHphesxfhupWbtBalupEpN17j6xorWvg/SQT4SSCCJS5pw4GbQsrLmyG7vduhX7PbwZja8dxbaLW5H8e1DGzQXl85P/88MKcRhKRpqV8z8hPXs5mIWVSlihBZtntofsoIXMkA3D55UnWfGCbAdGflSNzUetRbbDQmRVQlyv6xgLS1CcfuOT5OPRZztDFtK9PqS7fEh1+meU9Ha/eE6GFihHzgvy4vewF5bA+PCAN5bI6iRcsqA2H78Gg9+qk+kvtWVAWo7Usjj9yPH5MH5/WBJWZkrDElpwdsqEDD0/Kf6Q6bUmE6SzNI5jj0YReklSNm0bm/NK/RdkNyUODtkf0gGvfVglwKC6Gdl5TVPW2uNm0m7JVJsBvDA7YhhlQ+G5LH8mq1VA3+UN6Di7BYFoGv76zMISlSmJiiP3nQEb2XSu/okHk2aIWeeKwE4rkhVbhZGbNRmOXieZIMIfM+EOkwYxaE7mEpo+Fz66VjPoKWf6ApCWJ8NIAmsdZMey2HJWG9IdNtou7ZeXPIq5BFoumKYOuozqV04gSKTa/+06NJw+IkmLxsnJWPTDLyL9J79Pit1cfiSHAogGJoSGNfTFaqGh1Z82JufA3L4LRwZyr0HO1uQGu1eon7/XhLX04LrTRyqvwbw8N86gL9ny9oE97A3Zf3R+sKUp0JYuj6jqvCz/ns80oevSJoRrOVTBJRPQmD8ZKlOLfSWZEQtu1oJpEsGsladbwT3SCO9Py2vPNMw2F5ZK4xEnYXaeX40WXJZTbuImsj2WSANKPBoQ6SjpR0jzeoYI0CVzjt7brsvC8HvPzlOcK3FxOZ9qFxErga7PNiNLpNl+RY98b06mDpRoNQ3TJTR6WHVJP544bT36v1CPpk8NCSJtftUIqtaQGd+YFcTGqDtxDHs4HQi2psS1px/yY8tnVqP+6DHUHDUua4LO7WCBW3XlUvH/Q3K82v60hlUC8FSPzboeaafLjnMFAQsWTWoz6s64OHixhg9IoPHskZ7hm6o3uzCaysJpnVImTivN1/Obsf2yJoSqEzCr50lWyifFZltmjLSipE0alEtjkEL45QlUvWQC4YMTokTM5CLJKrM0tzXk4orytAq7iv5QS7LOQeiwJKoxLrWvPhPxfwcRuyuC2F9DSDwYRJaDRANZobHlNK+5EhePhUFEGnYT6P1qvSD59mvySMtfglnJn7kdaHjzCFr+OohN566Dry2L2rePovrUcTk2PZisoO7f00HrFyV7ZTbZeOQ1u8GIetjw7S65OlOYa9WG50I2NXlI/XtciSascoM7YcC/wUHggAmkH/PD6bBn9gGYHqpPnED8/uB44t7Aw6QLHFpyzSoXuU5k1fu5RnRf1ohQTUIUyPPmagayUuOXp1OizlXWJrPSQcObhlH7xhiqXjAhfSWu2pP7MFVxoNjo8lx1UrpUM+Qielwc0ePjwg8Tuz+M0ZurMPrLKiT7giK30d+ShuGTm0fRm4Uh/VpchytkJtF7bb0gsNVf6ZXjGCvBDDeVdkxDuvFbnfB6TTxy+kasubMbqy/ug7U6K+6tkDxteugHNXjqvWsEOe33l82w1zgyQn7udbHYs8cluM+FTM9ZFtUbKjWXcKfgI+/WCwbQfMkQ+i6ux+BXa2UVzPwj5owMUmRThovTkSb2RavW/aRXYBS1yiVE08eGserLfTImaKEm/DqyGL5Rj20fbEW4PimK480nCNT0eXDI7EuP+RFY7aDxncNix/dvyEiS6lV7r4WFP4bJaWYRtUjpMzJdtjhA6P9GLRI0hoGoI3xdnKIz1w1D+OCI9CZ6Q1h9SZ+4/6LagYPSHC3x57ZII6zn003Y9sVVMIws6l9Npt7zx2Gvz8AbMRF7OISh39ci3hNC3aGj2PDdTgT2IZX2SXXdC3Pt90EW9Pud1rDK0Fjk+BU3Ju+0CKTMGJMF06Y/l8nADImR8Hmljufhz98DGP55DTo/2EJmIJFVNEua1dxmLZvGXtJAvNsvzK+2c4nEPzwEsyUrtYAtkFHzQSyeozqXtMyft0l+lt2SQeMnh9Dw7mEMEDH3fqke8W1BBOrTouTNXJzzrH1y/FO4ISEi4+12F41nDMniwKXI9fRJ05A119Yv9KP+jaOkATaIdKOx34b5OENcGB9MhA5PYsNXOlFN2q4g98exUFVHczgEMqeQ+11eTHKnJqyy4iyavBERxeenRct9IbI7+Bq4tG9+GMNSllmZzW+1mzSbOt7eAtvMgDQ+0hrM4hebKUk71e8TFUTrTo6h9cI+BPZPS4LakucbCeV9/0L9NNPMsoJeYypi5N871Pi3eWg6f5DM0jH0XNyIwRtrYI67CDSnJ6P2C/7ufOLLpEWE54+l0fneZvjXpVH98pgkSl8JSCukTGwaa/8Baay5rhvtn+tB+kkfMv222Cz9uzmw1mXl+Awo35Yfk9HxC4xXKPkNZHHJhzRhFY6NkKFy8YXf1L2Y02XvnR0xzs4OWNdBnpLUqT1+pCwI6lk2rPQ4ZBwLnW9tFT64UHta+qyKWWSeJGFe6PHuIHwNWaz97nbUvkUdjz+jtDgLhTmk87veGOp1+c0j8jvj5MYy95ydEMukNtclZ6BvjYM1P+xGzSkxdLynBRNdIYRbk8LvVpRvS/m0fE0ZZDtNdJ7Zgt3vTsHP/qAOlM4J76hNIiB9iQEir4AvLbUp1jx71AaSzbvGxZ2bJyj5LmTbr2c0Ye0aXyR5PRY6954mrd2eccd+E7WGf1xlmxHvCDPqZtRUeDdkE8nyQa46aA3QeXoL4k8EEFmdmMylK5asuCxxvD+EmpdOYO0N20nLcKR/LadR2QVcj6NIp0aJb5ovJb9dVf7i5NdxkOOwWnw7M2uMvGvZKu9O9Qnj2POgBDrPasPQ7VXCf8cOdbdI4uaxC65OY2JLCJ3vacVuv+6Qp66xEvmzzDy/loMdz7eNPLJfWpxJ8kbIFmCfRwWcIpaDSbg46ati9zdheFnTsDy/clqXXwk4vqzVZA18ux5DP6hFuDkhHyuydpUR8JAdNpEc86PtowNY9eV+WhyebELm24mPKv8xHh2uv1QlH/cGDKQf9iPV5UemW3bQyXKAaFIFhnLJlCh3ysnCbssiQFphgMwwY3d1wJHrjuPuwoT0K4J7FCKvbsNtHQh9ugndn2uEP5OGzdUnijkhFT4rQySED/+mCr1faUTL2QOLoMvP456XD/g4hE8ST1b+rR+VwTVxFN0+0gMojoQeVzOkpISVXcx3NoIefBFHRlhnJnfoZFkRFZuC6yAaNHSf04BAOEUkwBpFcWoAx1KlBnzITPiw9us9aPzAsDR8e9Stn80fklFkVqMMZiKW9MM+jN8VRvzfIaTuDyC91RZBme4uamrxKZ0VJtJak0HgoDTCByVRdfgE/Ow3Y0IaVZpXWs06YxrBWMrnw6ZbA8BVXAP7prD17atEHqG/2Smqrhc77k1OfYmm0HtePaqOmkD4OQnpFAhg+bYVmzv2ILmR5ESS90BGspUCp5F8RrmLOPeRK6ceAZleVFLCWtx9xsPUBDee/Zm8uDh3UAQ91mXk87yZDxIXla5V1Pj2TzcL7YjTTYoiK2UGpvr9cJI2Nt7UiRqucNmlbm9gBi0qV/yPpUUSlTtqIPbTCIZ+WoP4HUE4w3JaWFZWNkmtzsDKcb7pIVe9xlMddaQZxu9pIPm4DxOPBDB0QzV89LrQS9OoP2UU0eNisNa70ujYrggqv8GEl6dtDcmtpe4tY6Ja6lMnrkGaXsMhGW6hPi3lhLfqsiJ1Z/sFTdj91m2SFFPQhZVmxymQQaenkjxQgs/+wbTHuAIap7g/hJV627LDFqqPjCHV48fIv6LcWpBL86a52aeXXgJ9PUca62lt3lyD0VsiCDakd6nF7EBWfiZejli3sOFHXZKsnsnTnGb63JQihd05wNbEyFXV6L+2DonHpdrhi5KGtCovPcnb1Y7jTf1OZqkZpUml2n0xEY7eFiaJIrhbEo1njaD+/aMw93Kl34pDGYMzfIZP/e0psk6PjWHDzzvxzEmr4Qx6Ml6rCJ8Wb0bBpjTGb4ug/5p6NL1vSMY4aexK2/ozyRmQJ4oz4TBltjE4QPXpItxQFqZ6gOfj/TM8xk4KbkT8HZL+lVdehhZHOmYjcEgaG27qwu6Xd2DDjV0I7JcOZ/rspfEvsFnULEumcPlfM+PKwNYiNDwmK/YnpWN+rPtuD+rePCYjo2cjq1wz1XaIAoBjv6zC5oPXYsuH25B8wk+LOoXw+pTIVZw8/fPmNr65YFGz2hPvGWxJidrs285pxab914mgUbFvrsVU2s9Mnk1+LyKXmhPGseGW7XBUkrWI2i9qrHiVZNB3eT0y/T6pWTqalXYB9h/dokzEfLCOyifvd0EeYLG8oMD35NDhHysTb6a/bZzlda9QrztuRREWmzLcG6/+2DE0vW4YFud4fWwcNW+JvTvy8vgHnIS1+EGGKgaMTbEB2vETjwXgb84UdSrIJi1n/CdHAlj1hQHUv2NE+n487Jh3lqv6wJ+5J5eLsbH11FV4+qR20qr8CBFRBdekhNYlGmosZKMKVzZT5Y7RgdUphFqSSG/z4Zm3tuOZ16wRaUKiCF9AEZcxwzjxDN1CpPXaMbRf24fkaEBU6iymFBCbrty4NPW0D31X1EnPSAAL+12XJ3g2cVPW56t/c92JGyBP23O4gOTmAt6LO11xwOrJysybjnCexcfaF583b1Ka3hdIDic5d2WYhMrXkxmw4UYMrL6+VzqsuknPCeMSrMJZ3BPOyC1wb5EJi/YSp8OH/qvr4LMyMt6o0NQbQ6YUxQdCaHjTKFrO6Ze5f0ns2HQ0ZwLyqd8qIPanCLa+pQ3pftIw61IiZEBUKnUWkaHViScTssnEReamm8hg5PYIJu5Zj7XX94hwBnFAMIpnO8RzAadMuN1kG7xnGIkHA+i/rg5hX7LwSHBPlsTxBxwMfrsWDWeMiNNMdGpGKgB8HPMlko9Ahj68Ju9v7JG8vQATkIsHXppHSBcpLy47MP6j7jx7Xf8udWr8ATKxavt0XXhlEBZPelow6YTtNJw2AqvO9ZNGcgY9fiEtqDYxp5eqYQMvsggwdGUN0ltshNuKi7niagucwxh9XgJrv98tT95GZjADc0m4NZIgB66qR8eHW2D7MwivSU42e1jSfUN9Tw7BiKxNirZkm09cg9WX9aLlvEFJbiPY8RTPVvst/Wy/tgeJR4OI3xlEiL9Hgf4s9mX5mxzEO0Po/0492r/Us5CpL8sdbJLNFBXPW+FNkDW27iZ5AlOBLGziccFAjvV63rTXcQdNDlrloJtD1WO87b5xV3dkxRBWqtOHumPHfWu+1nsM7QtfpGE5cMnjYfhW1AKZbhsD362BHXSEf8UrtAShyQX2LFF+ZM21vfRPV0apzFT7KaH2xhbaps5pwfYvNSJcnYBV74ryMqXWePm0z0cEYoy56Ph0K5mKfqz5ZrccBybh6VHpAbkUjCiw9rpuPHnoWmR6bNgt2YJzD7k5B9fAH/lBFM3v9MPPtc/6oAuFzw97K/mI2m4GFGG1KUKbDf+FPIkczVsdBekey56svIRBI2h4daeNfp52919hiMhqqb957mSQSGT4Z9VwnvHB31DcMT2bsU7Ch6ZPDSP8wvhkhPgOYH9QvSSrrg+0oJvJqi4Ju6YMyCrv+4g+hNEsIg0J9F5Xj21vaxOHEaKNV3oGsmfSIjMuuE8KLZcMIe3YcmkUeC9ZG+MWaHy4wiEck/XWDc06CwTOJ+DukXvugqxuJXmZ0siKNpZKOGWX9MMMjJotYtqXojWUK01Bb9zAyI3VUjuyCh8CzurnuunhQ2ixfnBQKt7GDKOYK+VCC7/3wiZ0X92AUF1ClDd2y62hqsr94yTgSFMcfTfWo+tjzfIgO4qZQ4tNaTw0njmEyFEJJLf7RKXUgkmS/mdbGYzdHIE3qHr+ZTTTLAHYjrif5A2QeYwjc/XulApLQxv5BRkypaBKBVUfaeyOKBIPBeBvdAp2drPfiqPNuSVU6/kDovKoMJusGbYAvqPtxGc/rEXXJU2kvSRJi3EXxl9lyJI1+bIQYylIK+gh2hxHz1cb0f/1epGuNHPRRQhXLwe0rqKx4Hhfrp4qGl4UAiJBuz6L+OMBDP+pWsZTa8JaLLAXlSPVv0ZyDMnBJD+bzxuW0of1PchI2mKZlnULjsT9eMXctly4AY322K+i8Og2GnXeZLOGQl7PqTe1J4+j5vhxeXZizkBWvIdxK7B/RtDxzlYEq1JSs5pLiZp8YndVR+akIYodTi5wLuQa8kQalGjxZRbjjdjRXGPSCtUm0fXhZgT2TaP6ZTFZz2qmVBoyDaNHTKD+HWMY+l4NQuFU4Se8HG5H32Hslijq3zIy1SZM+7IWApz3xw74f5A8qMy+iYV681IS1m8wexTtrvBYRREWL3DSGJztNsb/FIZlZ2V35gIWF7e1EhoEmY9N7x2WD8anaVc5siJtIZuy0PmuFhhpVxTKE6k+RZKVIB8iqcy4hWzMgusZsgNOXQaB3bKy4CFffhIiKTo9ZMNLW6LsmEiGJg2Qr7sorc6QjnhRg3/ERdeZLQj/Nwm7NSMbMeRHxJtqDBwOdRjByC1VIqBUBL0W8lH0eu75F7s7hNQTfhnisE0T1hzBoQ13Kb8UkxR7VkcX68Mq9ZTQqrgrjtA284eQyGvz1xZug3CclDNuo/rYCUSPnJCLdwYzR4wIWVI9FzYg/nAA4ZYk3GxxeYm5dl9ZUU7ZJ5Kqo4fFET06geBzZICp6HwTlMwhmlkMWaKaQ/KRAGK/D2H87xERfe+vShPBKb+Zi4IPFljT8rc4iG8NoueyRhl+MKS+ozltBpCmyU0zao6bwPCPq2BXJwvSWjmQlJPMU31+xIm0AnulK3FGlRps6XDe35WQYctLgkolrMo51+HFqs5LJm4LSzdT0C3YbPJU7l/du0elH2wUO+bf8WdsoPf/VwgDV9QhEE7LGudu4San8EcRQSU7A4Lo6k8aQ9NHRxA+NC4XM38Gh0rEMOkM53gq/0YX/gMcVBFpNH2CnnJfEANfq8Pgj2uQmbARWp2CZxZXPZSvnfsv9l9Ri9rjxsj0i0vTcPqWFZeaZf07RzH664iIqjeChX1fi0tjD3sYuzWKujNG5T0a11pWAeBZ+FPIUjSbl/rDzbKkIlfu3qJBREz2vOPJ6OUinyvpGNqT2hV3lx6/jwjL8Ap3ENN35W7KkQNSqH35+GRrqB3Iqko+3velBhovQ2hBnldEMKpPdnmObw0heEAae925Fet+vh1h0q5EVA17JTZJjUZ4I5KY7Awj4sCeVEY6KUOhFyax5qZu7HnvFlFiJtYRgptCcak0RLR2DWlyWQ+9lzfI71s17Xvnwhz66E+HxRB5cQLOsE8Sb4Fjyxpk/MEgnE6fDHHQ2BV+TfISkreVgqzEbctwm/ZCZcAic8FcVMLI9Flypwy5WHVRH/Z98Cms/mwfbG5zlTThdPngjptT3YcrQRekxcC+kvQTZGaFCi8DxuSWJVUiesIEjIgntSt7hvdvJe74WwSjt0QRqEkXVQ9cnEDSeE70B9F4xggRzVaED09I0/MJpXUEMNVA1ZgmlvpbUBHY48pUOySJPe7bipYPDyFB780VMoRvrIhxCzSkSQOKYOz2Kpmw7M2w3bKWRXxTdfyECFmQu1phpMj1u5xnyKR9WBGW1q5mA1dj4OoMryW5t5QXYlcdUXgZRpGPRxNv/J7IrMWj2IfAHYJ9jZmCnK65I3uuwcTvyd2Gq4+OofmjQ/B4MUSBmlPGhXCjgrH/i7JDN5sdMOXJW7knsKrTweQ/A2QWmbDrncJMNUP2V7SjGdQcGZOO+5mISJlrAzfVyBtazX6jAlaep5KoaRMQSdTnDKDtC/2SFLeozyq2e7KVZ6ox2TUDq6/sFdHoXec1IeRPieYghaTT8NzhXEdj0BPfrZq7INvT7nfu9JU+r/qlE+ivrxcVLLhKxC7nBYfB0SbojBmYuCeM6DHK9M1qdsrzjP4TMn/w9nK5KHvdzdsLfzbtQhnakQYurxP+ixnnbDWp2f8JYuj3NXT/3QJGxUR4QxJNZw0JzanxE8OwGlzhaDUcNflVf7bWzw6gtX4AQ9fWGp3vaxYleb1ytg+9KY0o9mAIIpAh4BVUOZPJxBn1I3hYEsEDk9I0s2fwjxEppB4PIPbLMHxVRIZeYWqC0Ha429dAAC2fHJRkxVrVGOZfkTNXnG9A3r+WcwcEAW2/oBHhYEL61wrYzNiXFqhxEP9tEMmHgwjum5wq/pevYdI1B/ZII3hISjj+Q3VpuIVsCup9Eo8E5CmrJqwcUXH/wqshcwTLCjaGi3j2IL0gkkXrNwdm38FoojqbbFT9agJm1a4Ji30ugf0chI9NSi2iW/lFzLwJKbsQV9HufwIieLF/nfMiPjbPjtJuWuOV9yTj7BEyo1NP+mGahbOAwUqCayJycFJqDMMzmIL8vUOkFN1WJSpRhNqThUWzK3Mu0R1AzWtjWH1ZnySXcWXaLYTWmqf9sG+r9fx+Mot9GL6xGqFVycJiprimFs2hVKcfw2QWtj0/OXUiOu15bDJXvTBOhBUuvK8hnxZa9P6bfMLVYfncHVOCVhZ+QnINZJiCV6bLqRiPF+QZwdadTzIujVv38bHCiMRSvo/NeRPR3OEaucb0x2gIN4iyxrUZ1c5KNkgt64R72ryzPSYy24hcfQUmrtH3z8ZNcAZk9OD4FAFM164CkhDG/xQkgnMLdrQz2ad7bdirXLRf0SvfexALXyMqR1qstZHFuuqL/YjdExJ1qbjc8S61LEOVpaGJNPFHYuaP0ANM3vFpc8SR1x19SVzMh0LNQh4v9mNluyxkt9mwuONyDCstt5DPfrnxBIcnPFLuF7vwrmtLDcG2ObxuR+xH8i3IMhVTJ4hx+oUmuzAtyn2ESWNJb/EJpzMfpXsFEAI72zlokysrBJ6jmp9Oj2VibbSVTLpNASQfCIrSxoW8t/CNJQ04jg9rP90D/4a0rFTqW6Q9NWcWd9JH7OGQpjWIbWe0wU1kpVvB2/Xr+cCF47zim4KykQQToH/aZ9AY+XbPwNeeRaaHxo5MyV26C1yZ4uP0W0ht9cN/ULo0XaJLA7ZluIrnN1BBfQnL+Vzk1crp9+IZr7oSJpU6ene2+UTFCE5jQaGkkjbhW+/A15aR/hVvhvcmpSP+v6A4CEERJZbZfIzsl0T9aaNTQZmLOZ4584+UuYa3jiB6SFycOhf8cr80/xP/DczeDJW0LI7s968toruOOnhgTS/d4VusbsvlBi7r8imSvSCzRZ6ppIsvV8J6J8mvILO8Kh6iZTwPdaHH+p48bQ2szsCsdWdOzlUhBqn/+QuPJFdaBR90cMMKTqMRvqulSENnohmWM672LeNwOT+m0CILluyGkfqXOrYMzUAsadnaLbBR9jYoqoIr/Y/v0TIvmXwbZH12jqPiJsbjlfglypGwuJzqt7H0jcUXR7Mg7cXtM4t6TU5DEDluOR+NMc1/xVSeJML6r1/4bQoNmGRNz1edRc2rYjL4c6k0ilzvQQ5BODIG/ypHBAUXRLScZE1vkHzYL6+5Cjs2Z1U9WAJ7SlPQK7JbtNtvFEf8leOf4iIDXCWBS7r8plKJqlwJ6zKSLy+b6aJ8bpybV9TaTssoN+FfyhHWNC1JRM8nTdHUQTy7kMNBuozMqIXQgSmENialo30pa4OxVkifGdgtjeBzU8hwM4lCtE4VoOr0WtL8nd7FOlcckb/OavmLV2i6picLI7pcGyuN5ZJTyF7JS5XZxyWK718uxm65xIvznnmj2gWw7AgrXkTxcKVhiTXaotSImXxMdOeyfbSAY5Zse1VQaRU+pDDhZ0c+d44ZKsECZSIhyy64bxpjt0cnY+x2OiSmCloet4lwbVHPageoh8xmV54c84mpuWu/HlfNEIQVyyMsp2I1rb9BnvixMz22HO3aUhJWvRLuUXYOZPPG5QVTLlA3gaLaSnuKf8xcuRR3BmKhO+eNkqE0YRRFOvy+3E6+ZJqE0pZ86zIilYYzFnZ1mseVeFibZBJyBw1ZgHe25wY9ZC1TRuxnCyBxYQmagggFYVVeeg4bwz9U8ncsc5SSsD4AmfHtYjlmcXlTPiykjeI2bE+GNsyWTZAjQ66JLn01hTvzRXfnOqe0GgSNSaDRgS+YhVmnksG9nWtYno8LB9I45k4AjZnfl9N5fDX0vsT6k01hd7GpeK4rAk855sswKsZy4pj/7yjLZDNWSP+fUhEWt7h+Q54esnwhqnXOjewMcxeaQQYi9sosVFvylN2YqxZRCtLiz+wAIi+IY69/bVXf1StoTFjDssMZWX1pBo2TY724Weted2yVb1swkRvCl2YkSzguhYPbbfGhFLfJimOFYSkJi/Ph+Vj1lSTHQfZHWf4w5+AnyvmjvF1oYZYitYL3VsWEOS2lVHtyRtYEM5vThYcS5Mib/W7OLGPqSF+Xb316ypQu9L35PUdQroTFZt9fFUn9Aiu4m+JSEha3m/7gihnZHOlYqt5UkavA9VSb951obhbXUle1rAqCJbvGOCN2aac8kw1fc+8CbwC5QoO9c7xf5afr8xHF95X8AxpLQlg8Dc5fUWSVRyq5Rg1FrR1DriCuXjGr0cwJv1WuqBvmJYpT4dJdvimHdKGNGxaD0BfL8V/5oQms612nTL+nNE0tHWG9CjJXaY8VObqqQqoZLq5DTi5HMtuXR1jejnuvVeuKFl5ur1UY6XAzCWLRFAdgsvcjoPZw3Ui0nLa4ryjp18Mxu2dgMfZPDlz7w4olqzzCsmqL87rz6SAPoLNFBftPT0zmP3K9uWgWgXZHFtksxG8titZlkfyfH8ktAdlhWffkKydw/NQ58yYrnm7cb3EDlt09NhfpPX+szMCVjRxhNWWn/l2ghsVIblFh6NMju9nkUbWrAgc6Io6ooEoNntT2nAEfxv4alR2il186SiVja1G2kQ+TFW1F6DU3iufCs+uAoWtqsO3YNoz8sEo2j69R88hWP0vlCigzk5CHjONCjtNzb0ob8jVlxOzwvMJfw89Pd/rgcpFCawY2cuSE8x+YVhH1KrJ7V7Ag6kuNfK8KTe8fhsHR9P1Y2hQdjdmw9y4NxqBcZe52U2YK8v2sdtF9XqOo9MuxZ6yhT/wzjNSwHxP/DmH0tqiI11t9SR/s5qwoz2S0kBYfVvOFY+InUBG+v4UkrEbII9eX6HmXRzzEJ2y2WX5XdE42CqnoyZqQzyXCskXjD3+rO+t7h5+Tgk2TlLsMFdqNx27IYuKhoOjlJ0rMaG9JuYBLKr2C5C8zkhURVTZhIXuPhe6vNIiOP6JpLRFNerstukvlmuAycYXXJMRjY3+OiOc8/bZ22Xdy2ELbeQOIvCiODL3Ot78De8+sNCWZuPrKl7zsBSQrHuQD9ZybhiQnMTsw6124IxbsUGaXDngRIBl14fTYSD3oh/8kR04gb9qdo4kV2jOJ4P4pxO8Kip12l1VemQxDLmwzK5p6VL0iDh8RKrpQuV0qlw+4cM4FJP+3w7bGG10c6D2/Af031MJfJ9OrskPWZJ9FPoDJnyMiJ9XvkYYvJ4U7Zk6eDG+/sEkENGcmLNS/bgz1bxgThSb9+6UROT4hNfhupcmXUbjHQlzK80nu1GQ1C1I0mdqysNdmkU0XWE6Fd0iafJyoHLsvPNVSa/qdY5Mg4iF8VJx4SqWVFOR8NxBoc5B62o/t5zXLkF72cegGDOUAzq09cfomgzq63U8FMUBkFWxPi5xJjsFjQhIpXAX4pCafTz+5exFrZ8E1aYz9KYrNb1qDLee2ofODrej7RD16PtSIbIbIcJX8bEGYOb+ZHyUrdjjfPZUL7X1Z+a40ZgLtUGYjTYw90ojfFyz4ZZxFYxguJu4LwRs3ZCPS1LRJbElCrDs2hsErakV/QTNaQFMO3ojpzodWJTB4QzX8ezhoO79Pvo6ThgP6tpUYdc/yWdXTr9tM9F1WD7suU3hxwkLmGWlhfHLMkutR2f2VJpGsn3goKE6iM/02Ws4hE/IlZGIOmzIGsMmTvTJVeWrhB7PKl7CeR/JZkmP13NqFD0uVhonslxIFN0WycgG7E09KX01GFOhLPhpA6IAZWlzx+wxCtAGLHJPA2M1RhKqScL1daHK5EjZEgsGaFHouaBA+M56UwijpVqS1MkoGlwc8ESz6Ebo3/6bfe8T920jTh4gqe7eF7i80YfTPEfjbFi9GgeecSdpaoE2mTkz8JyjmLz/eeXarIDWeNxkyQ1tprlQdMQGn04Zv7wzsfbIyx3ORK14US1jsFPwYyVF6hhWuYXEcTPDFickdzK5zd50QPdniyofRvxIRvUC1uJreqt6R5NJ4+ihGb64StbfYR1VQRxqxu9IEzaax/VNNyA6aWPWlPmkePi39b1rbWnRwduTf6Z5+i7Sp36FNkUfCQOIXAYz8ugr9N9QJn9ViktWM5JCLH+REe7oeN2ZPuie6L23C9ouahA+s7rgxNLx5FKFXpWCucWUp7AEsik+02Lc8j+RwPceKgCt9TcF90vDvnoWz2URBXR9UiytuRjv+iwhaPjAIg8hF+K3MaaZhL1D16pho1z5+a0T0Jyx8VyWlrS6LUCiJni83YOKuINZe04vAc1OSDPsw1VarGEtEx3YVqln9jeQk9hU5XTYG3llLZpgn8kj7r68T484+q4U0A+dwjdIlkRf6IopGMoHUZzH+9wiGbq9B01uGYdouzcU4oqfGJXFNTG3AC9HspFjC6tUzbA5mId00qzWLyCFxDD1RJWu2F+h85xCE+ENBEehZc9y4rHwUmGYWcturFvrvE0MY/2NYlBHm3dFzC5sdwjwMeoi0JjFxTwhPvGQt6k8dR/1bRxE+mBhytSLe2JTGKIjSzdP2Zurqo1HI/GiEH9boDdXZ3svrkXgyMFny2t8sT4dLSlaF+MCiLmnqaQz9tAaZjIWxO5IIfT8lgpTbLuoTfTCNehKeL6n5kVYxhLUbyb56hhUJJhSOSm8FosfFMfDDGto9TbqZbkGLOudsH/5JNWpOHJfR6Sns2K79GW4kOoHG94yi72t1sKsTRU88NllD7Sk4w7TTf7cWwzdVIXxQEpGXJRB5fhzB3R0iXlcmXfMOq8MgFgIct/iGdH/gxxNPhhBqTT57QVcK8XsyQNpvZUQj29E/RYU/LPFQQPi8Wj4yiPrzR6WboRNzdtAXOuVeD1mCNaTn19xuJptVkUPjonWXxx1awgVuwLQ72ZEMxm6NYuK+sCCOHTrJ2YrEhkjLumAAo7+NIPWkD8G1Dtx04d1jchqZXZOVGhpNrol/hDB+VxiWQSTY4MImTdFqln+3GxxVMZSvUwYwGjkfm61VrEJNcl+T++30E/b+/rCzhe7VQp248/kiN5/43VJ/H5O0dTOYEfMg13+y+7Im0VsyelQcoaNTU/mNPF/4uKG/MDYqhLBeQPIT6P10fnpsrwwgjR49geHvVdN6zhaWWkgkwgTibCethzSnyI/iUsvK92Wphq3sb/LtmcHa7/Ti6SPbkRnLilgbL11cy6tc8UDDz/Xf5YkRO4Gz4xYSj9GDD2OW4NepRzVdFTPcRsQOZc/zNWYKbwJbGG5ZasKa7g7Jlfm2gll0f6UZ/hsdNJw2LCLwhWuLCK3qNROoOmlCBi+b8yesYzRZLYBZyARDa7/mdTEytarhsS+o0Pw97mxV62CIXtfwzhFEXz4hfVnTSYZJawtQ9dIYVn+tD9s+0IqQmRQNU0U4xVwWU+51dK12E2lV+an/Xn7552lVTDVjFbdBGIviqxopp+8YaE/BTZjY/qWmyY2NE/eHfl6Djc0dCB2uQneM+RHWfnpGLcCEZDIZJDJ5cQzB/VJIP+CDf3VhbdX5OXY1aVmjLno+24iNh8TlieH4DL4Admz2AI3vH0LqUT+6r2lAxI4Lf0KxzUWnfwfZ68+YdTcFoE8H5zNHljnJMyGz75OzLCanDc3fZKcP478LI3RUUkbW70TT2pkCxpnj1yr/lcZCaFlEMOzzqT01hqxrwfAKn6FuxkSwLYXxv4bR/50GWRHfnVkbE6eGZB6uvroHzaR+x/tCMjna5y3eovC0zEtWsA8vsMpB/zfr0X92PRL/CMpT6UzhhMVL4esk95K8B7rwyMItaNZnY0DdyaPwtTpwBm1JIoW+nu6WP5RG70V0Yx+lG9uOmY+JOddrWGpaa3+wHc3vG8IEkRY3CxWne9pc0yiztcGxgN2XN+Kpo9sRI20L62cm8umE9W6SByB7BlbrkVxgMLEMSed7/TvGkU74iwqmE6ZhYxbZEQPbTmuD6zNFuMSzcgzzTdBRaYauIU2r/dJeJIcDSPfYsqWVqVlLo4xA1kJgtQOD5u2WN61C/BdBWTG1+tnElSMsDle4CbLw/So9eosINt8TQMMZI6RlZZHu9xVOHir6PdiSQuw/QXR9pFmmnVfNoEJ7StMakuZhy/mD2HhLFxA2MdEVEs5Pzh/UPieNslG0XBk5z1bHlrNWIfaDsDhFFOWeM1OExWR1K8mb9JAtkS+LCMS/e1qQlpO2C498VzuRQUZ6uDGJ/mvqMPCtOrnF2LP4tGylaW2hzer1Y9jz3i2oPSqGxFAQye0BmIYH06+1LY0yIS1OFeOihDTHnzlzNZ46ag3Sj/tkZwi/XD5cMOwVeqiW0CzkaN8RoPncQYT2SAszrRhNhwmOW4eFGlLoOKsVQzfXSPWZMVNStU+R2eN8tJzGbn/qwIYfd8LXlkGMtK2U+Hxvuffg1qgY1lINcWl+prttbD2jDf3n1MMZs8UUfZ8eoSUGm2q9sutN87lDyHKv+TQKJy1DxkdxlUmfP4Ntb16F0V9Wi3IkgpycGcxDvtMc+9whP7vujWPY66FnsObzvbCbXKFtcb9C7oUowh/Ua0RnaROazDSWHrTJ+lozcDp96PpSMzrObM3FYIuCIhpLCQ4/6AQa3j4sSoiM/zqE8NoU3EIDPLnkB2lavmYHXhdZfG9sw4ZbXFQfH5O5WpwlH8COgZxMlhz2wCEWrR6aPjWE+reMYvT3UYzdEsXE3WGkBmzRv9DkGOyAKytV2p5wiGq/12IuUKOw7kdF6SqVbiIaIu82GEkh8WBAENbFJD/Ss2WJwSOv8pPbLu1D7Lfr4Axb8NVli8v/oxvKAagOkcxTr2vHuu93iyoLoizM8DTSyv9sRp/S9GqzqH/XKOpPH0XqfwHE7g0jcZcfyf8Fkeq1heOT68xPXwviEVP9nCFw1NDEVvjC5LLYkaxoHiEi3heGapZPNTNPNg7mqfsryKL3L9fTZmlvgNB2ngHCBySx6uo+dLy7FVYoKWKliknTENVJWzIwhj1sedsqOE/50HLhgDQPezHVh24GLU3IiCKvMM3w/VMIHJQSjgIvZggz0ekg0tpqIf2ED6kOvyhfw4ms2TjpYFyn3lOagSsXnmxbDV0jvlDI+5DM9FuPZbrsBn99JgR/gcmms6NF6tHLb5/n8mx/0oRVItJi6QGa3jVMWlYYw7+qRmRVouhGl5zg7CNNyTBS6LyoGRP3hrD2O92w987I/Kxc37mZiCt3VsxHx1vUY1UQ6T+B9WkE9ko/+/mciB83SBOU9b2F9pWrj6VMGnHyqQmrcMKyPT+C3nUDV9T/aOhLtU1GXdb0HMPjE7M5EJcntx9R93PZERbj9ySfgg4WLY0va1QSxOpv9iH+QAjJrQEE21PFhTswV7AjvspF2JfA6O+i2PTidVhzbQ+qXj0hyWMbZJBpYJYpbiptjJHEVLVIQ11nrnOwJcveWFZ2Kg9iplxCbRIWAxNRfKblooH/tbxr4J6eC5sQu4dM82f88FWzqZhd6EoOFU1YHN3+W5I36nlTAjARdNKPjQ7W/bAHm1/ZDmfIhr8xU5Q/K2cesnM83J4U4RKbj12DxtNG0XpJP3wbMtLhvj2PnLyd7frTHkthx6h6jYVDF1aZ1d5taMQrVl3d96DztI2Br9dh/O4wJjaFEGpJ7difcsWx+hS+BjmdNUpFWqJqaEyYck7cJ3xEc8r9c2VlhUCzg2BjWjTefGK/Dei/tAGuaci0dk7pcbDrLtQ7+lq0LJb4hYOmHoO4kaTJ15xB2/X9aL+qF+0f74UZ8eZcJmg5EtY/Sa7XzFHiu0FmG5/yrf58P+IDQbgT5twi0Q1pInL1x0h7QkQQd36mGU8euB79X65HZtCW0cMbpDkqTLtcW7JskUSmsbBzwMR+JD+kDSWIJ0lbPjyJhotGxInsDjF2K5iwGJeQPKRnTQnvBptcPUDzpwbQ+rFBxAdDyHCVBXsOmpYhUx04/9Df5IgcxPRWG12fJOI6dB063tmK2G0ReJYhKz+sh/zZqEiMCSyDqcYTGUw1ntDZPIuNo0muFuMdAga/VodMZxHVPZa5DysHTpX9JEpZVnWlI5f7R1h9eS+8lInuq+sRNRIist2dSxE+TzWZMGW6g8/NiLCEQW408d0aBPdNI3r4BKIviyP4gjR8qxwYtXkLI6tIKw15ppxS5JV99mdoLDjeQWOeoPv9gWzMkqEuhl4e08Enhh8huVLPlxKBT/HGJCG0f6MbRtBFz+UNCBNpceukomu0T/NvMaw6F76mpOh/l9zkQ+JRTqSuFYGL/t1IG9uYRuh5Sfj3cwTJWU1Z+GozstJpg5o5+tBqKfB+nhGG571Lj/fsJZLZAc9tvT6kh6gEyAWVclhBP2laX+kVvd+2X9wEfzQliMNzzflpNURc4gTS4oqPafFe7C/L0E6eeCCA+ANB4BYZ5WJFXFjVRFhEZvZqB1ZbVkTHW9WeaDIgyuPYstGmiG43ZelbrXUtzFwwI+47ne1WjRl2WZmoKWCr4JGvJ7kPshLLsicsxseUV+MEPWtKSFrDklxaL+oXVUq3vbcNbB4EuZuNi/mbCd5Uowkj5MEfll5dfl+PP8IxhTnJbeyz3Sbcx/2Kh4yddsjRysDCTgWrKnuKrzpzymSQbmG4aSURFnsoTodM3XmpnjYlmql8esc+rRRZYu8ZgX99BltOb0O8Iygj4n2YX3OJaVpXfvsujueyAtOOC4UXf4qlcuSV6/zyrGvXrLVw88DwCu7knYfMSjEJc+D9nYNJ/wzd9bl0YE2LHd6bgKpjYtjrnq2iRPLoXWGE61PCXHQXIz5nZ0GlRr4mpW2/MsWyS44qpMpRN8nxkIkdGqXaYVVKDJOWf20au9+5Fas/PYDUUADJbX6RdCxqV2mtRmMZo9CybE+TvAWi54tGyUjLVMS1Weq+rZ/tx+5/3IrAfg4SvUGkB2zlANfDpbGyCYtxF8m75qD/b4UozquxIMilcHAe/hYg+oo49vz3Fqy+sA+ubWKiMwh33IDpd+Xd1daaxgolLMZPSC4q8LlcjJdjSJ4HWTNeR9AvJHJa1JPEYWMeWi4axD4PPo2GU8aQHvEjvjUkSsCItB5tJmqsUMJifBGyssPOwM2mObXgGmm8iPoAdxTw3j8n+bu+LUWYiRxkyvkJT5Hitc7Bupu3Y887t6Lu5HFkEjbi24LIDFnicM/IlYnRBKaxggiLEzPOgWjROSP4PIsbsj427XEuwzw6w/O58hKnAh1BcjLJeZD1LzWKIS3G03JrCB+ewLqfdWGPv2xD47tHYFZ7SPYFkNruQ3bYVK3CZJ123VxCY7kTFuNhkm/O8reLZ9HA7oXsKP2MIq6HlAZ2GMmxeZrVP0jWQKcGFUdaufpWCalt8Zlu8HlJtF/Xgz3+tRVrr+pF5NAkaV0WEj18shiA02vDcBR5sVja4aVRGZ6QueALJK+HrK6Uw7Ukn9vJa24k+SNJG+RZ18ROtLSPkqwlOUnfpjlsQRyB0ynJjHMBGz44jPqzRhC/P4jxX0QwfmcEqcd8SPX5VLCoB8vvwq7hnuHeZHzVsyKrNZ9pVDBhxZSWdSlkxVLWln5awOv6ijD57tyBsHglcTukrBIOmNxZ7SZDpZmIAlE7cd6oKO9iCqR5MMp7EefKF2+XZGM0eqRlJRB5cQItyQE4T/uQuCeIif+EkNxEGtdmC5kuG1nHnIx453ZfQvtiEuPZwl1y8gJHJ+8JdvLvlaz58nDYXtE1+hcIliasZ+MqSN8Uk1dyEa7vCUyvQm5BND9IuX6YySzspLvLecCLL0WrNzsxuwXsuDZ9AT+M/sJmFVNgip7Pr5tMQ/HKc8FM1mnn7jh8BBKiyw3Twxsc+Pd1UHPmOBA3kO0xkdwcQOoZP9KdNpwttuiYk+m2RKuvbMqCmzJEqRlvJ6ykFbGpecepTYHGtOwstPSXENKEtePcXMzOHNkd5v8gLbRVabRf0CN2et75dzoTVBG67ISF8MEJeaLm5v3NkQu59qhx2NVsEhWWfsVR5c6QheihcVkKphJWqZVncKcUgZnqcW4qUZtF5Mg4InZcfh8eCuIyd8SCEyPiGiZ9a9BEZtQWZWmkhgshyJqTNbI4aVqMsbGi2QomzafUk77/jv0y+jPDh7Dh99j+9pbm09FM8tflNqyG93RZXx+bm+c/6xFeFBGSVXN4twFJeJMaR+7W8oLjGudz6X+d6+nnWyYmTP4WYSvdNqTEhq6DVTh4Zf1y9OboV7ed2tZlN2bnVp9fY0E1rMXEgSRnzXjFrB1snsM7mtPIKqdl5SLH++fxnsthIs7UKYcN/QRm9xMaM/zUhHYZ+FBqN8SWnxdJE9ZM4FAHduA37dK8WSjMJx5pOe+a5hzGe+VqEU+rTfbPOr5t5RDW2SRf1remwjW1lYfvQ4bijOgJsPj7Z7ngM5qsNCoMHDTCGRpnaLJaWYS1EbIahIZGpYDdFgdB5sBqrDDCOhiyK56GRiVoVW+CrMbbo4djZRJWfjRTUt8ajTLF9yFPsH+ih2JlExYnP7+a5PmQdbR0xIpGOeEOyLpu7Ksa1MNRGpTTKSGn9/xB/c65ia8heZ2+RRolBlcmuQCye5SG1rBmBQffDetbpFECcLz//0jeDulU12SlCWuX+DdkYT8NjaUCZ5r+muS1JM8huQEy81JDm4Q7BdfB4tZie+tbpLEE2ELydZJfQhaY1NCEVRQ+Ahk1rKGx2ODqt28muUcPhTYJ5wLOHzxZ3xqNJcI7NVlpwpoPuC3YGn1rNJYAnyK5RQ+DJqz5EpaGxmLjG5At6zQ0Yc0LYX1bNBYZv4D0k2powpo3/lvAc7iR1Z8ga4VqaBSD+0jeARlrpaEJa964FfJ4eSZ0k3wXMtzhh1gehYk1lg7bSE7FzA19NSoA5RjWwFrT2yC7Rx+qSJU77P1baVW57Pj99O3TKAJMUm+AjLnS0IS1oOAGq19VMhv8+vZpFLEJng7ZfVxDm4QlwZi+fRoF4hPQ+YBawyoxevXt0yhAszoT0t+poQmrpOjSt09jJ2AHO/tC/66HQpuE5YDHNWlpzAJOtXmVJitNWOWETUo0NPLxO0VWT+ih0IRVbrhV30KNPHCJmBMgq9dqaMIqO3xPmYYaKxtcw4q72HyIJKOHQxNWuYKDAS/Wt3HFwiW5luRF0F1sNGFVCHiiflPfyhUDzgHsILkKsowxd1jq08OyMmAvk+/xYZJVkP4LjcoH+6DugsxmYBlTpLQFMlqdT//iepg0YVUquFEAl7m9huQ0fVsrHpzkfip0NoPGMjQJc+D8Q27L9HHosjOVDlcPgcZyJ6wcroCsWlps0CA/n7v6fpbkMT01SoqN2rzXWCmExXiE5AjIQm2FBJc+oRbI9yG7/HLpmpv19CgZ2FVxoB4GjZVCWDlcryb+e3ahNXEjgvyibh7Je1FY9VONhQfnAX5DD4PGSiMsRorkOpIXQ7Z0emTa3xOYufQIdwH+Tomv/X7IYEhuKnsOyfgKmZfvUaSlobHiCCuHEcjyyhxkyCeKuQj5rytimAlLGd8TV+TK2KLI9UXq+m4juZrkfyvgPnEnm9/ppakxm69gpYFjfH5M8nuSVpLNO3nuc5fompJKq+DmGtWQMUixGTTFxDK/N78l+bRelhqasHbEsJLZ0KRMsaUAH+Nz9PbdO3lOgCQ47bF/KvJlwuMDhhdW8P3g78IxdLqbjYYmrDmA47n2X0LTPLCL5zSStOf9+3KS8yCDZhkHVDBhPajM9EE97TQ0YRWHNpIrITusFIuMIp+5+AZ3FSy5G8l69TtH9J897e8DFTreT5KcDFlxQUNjlzu7xhRWk/xxjmT1F5KXQsZxFXvCZc1g7k2/T+9Vv3MNsI/O8JwfVyBpcQoOx789paeehtawisdxczQD2RfGnVkegCzPyyVPbiQ5dhYtjB39WyDTiSIkVdh53tzhytz7PMnn8szAfHCA7KtJLoQMfOWk4Zgi4WgZjjWT1Oug65lpaMKaM36iSKvYtBD2vTw2jcD4fX6t3otJilN/+Lj+bkUuOW3IUISS3sn7P61Iq2MX18HhGccrszYE2Vno5yRHl9k4c8UFzvvUZYw1NGHNA6zlnELyVqUx7V3g67i0zbdIGiATr09T78WOe46i/4/SqlIzvJaj6ncVENo5B1Mrh3Irw8Ldu0/Fzk9oNTQ0YRUI1nS49DL3snupMusOIllHUg8ZJzUdYciWUnwk/wNl6kGR1OYSf59wGY3tDSRnQYZhaGhowlpAsKb0FyVQ2tMekD6hOiV+pSEllVnI5t6TZfY9fGVwDUzgfKqpK8NqaMJaIgyiMuOE/kVy5AK/J/vkLlambpUal8NILprhuf8geR9WRlqRhiYsjXniMyR/hqwRxibt7pB9+6rn8Z58mPDZaY9thzyhNNS/+YDgEsiKGTp6XUMTlkZBSCvC+nPeY6xx3Y6dx37NBiafL8zw+KMkZ0KGX9yh3n9cD7+GJiyN+YKTq/+GuYU7sGY1W3WL65VoaCwKdKT7ygRrSXMJd2CiukIPn4YmLI2lBAeq7lXka/jUlP1hupONhiYsjSUFR8PvW+RruDqELqynoQlLY0nBpaKvLPI17PO6RA+dhiYsjaUCH7BwXXhOjWko4nVceYLbnyX0EGqUwyTWWP54LWSVh32KfB2HRJyO0qcXaWhowlohYPPvw+p3TpHhXEeOyfIpMnr1Tl7LmtX/6SHU0ISlsRQ4P4+s2KR7nTIJc4jthLC4YOBNegg1NGFpLAU4UftD6ndOzn7jNLJi7DfD6ziZm1uMfU8PoYYmLI2lAgeHcicadppzra7pycdtipjywTFW3Azidj18GpqwNJYSXKX0RKUxzQSuC79n3r8fV2T1gB46jXKFDmtY3piNrLim19vy/s2loQ/XZKWhCUujHMFlZlqVCcgVQN8E3RNQQxOWRplilOSXJMdA+rc0NCoC/y/AAO4pe0n3i5xtAAAAAElFTkSuQmCC;" parent="1" vertex="1">
          <mxGeometry x="590" y="432.2" width="120" height="93.6" as="geometry" />
        </mxCell>
        <mxCell id="idugW8RmlfMsUO6L2Yv1-36" value="" style="shape=image;verticalLabelPosition=bottom;labelBackgroundColor=default;verticalAlign=top;aspect=fixed;imageAspect=0;image=data:image/jpeg,/9j/4AAQSkZJRgABAQAAAQABAAD/2wCEAAUDBAICAgICAgICAgIGBwIIBwcHBwUCAgkCBgUGBgYGBgYIChALCAgOCQYGDRUNDhERExMTCAsWGBYSGBASExIBBQUFBwYHDwgIDx4VEhUcHBwcHhweHBwfHB8dHBwcHBwcHBweHB8cHRwcFBQVFBwcFxQUFBwcFBQUFBQUFBQUFP/AABEIBDkHgQMBIgACEQEDEQH/xAAdAAEBAQADAQEBAQAAAAAAAAAACAcBBQYEAgMJ/8QAYxABAAEDAgIGAgsKCQcGDAcBAAECAwQFBgcRCBITITFBUWEUIjdCcXN0dYGztBUWIzI1NoKRlLUXOFJVV3KT0dMYJDNikqHhJWODlaPUJzREU1SEhbHBw9LwRkdWZKLC4ib/xAAcAQEAAgMBAQEAAAAAAAAAAAAABgcDBAUCCAH/xABFEQEAAQICAwwHBwIFBQADAAAAAQIDBAUGEaESFRYhMTNiY3Gi4eITMjVBUYGxBxQiNGFywVKRI0JT0fAXREaC8SQlQ//aAAwDAQACEQMRAD8A2YB8wpwAAAAAAAAAAAAAAAAAAAAAAAAAAAAAAAAAAAAAAAAAAAAAAAAAAAAAAAAAAAAAAAAAAAAAAAAAAAAAAAAAAAAAAAAAAAAAAAAAAAAAAAAAAAAAAAAAAAAAAAAAAAAAAAAAAAAAAAAAAAAAAAAAAAAAAAAAAAAAAAAAAAAAAAAAAAAAAAAAAAAAAAAAAAAAAAAAAAAAAAAAAAAAAAAAAAAAAAAAAAAAAAAAAAAAAAAAAAAAAhcBeyKroAUSlQAAAAAAAAAAAAAAAAAAAAAAAAAAAAAAAAAAAAAAAAAAAAAAAAAAAAAAAAAAAAAAAAAAAAAAAAAAAAAAAAAAAAAAAAAAAAAAAAAAAAAAAAAAAAAAAAAAAAAAAAAAAAAAAAAAAAAAAAAAAAAAAAAAAAAAAAAAAAAAAAAAAAAAAAAAAAAAAAAAAAAAAAAAAAAAAAAAAAAAAAAAAAAAAAAAAAAAAAAAAAAAAAAAAAAAAAAAAAACFwF7IqugBRKVAAAAAAAAAAAAAAAAAAAAAAAAAAAAAAAAAAAAAAAAAAAAAAAAAAAAAAAAAAAAAAAAAAAAAAAAAAAAAAAAAAAAAAAAAAAAAAAAAAAAAAAAAAAAAAAAAAAAAAAAAAAAAAAAAAAAAAAAAAAAAAAAAAAAAAAAAAAAAAAAAAAAAAAAAAAAAAAAAAAAAAAAAAAAAAAAAAAAAAAAAAAAAAAAAAAAAAAAAAAAAAAAAAAAAAAAAAAAAAIXAXsiq6AFEpUAAAAAAAAAAAAAAAAAAAAAAAAAAAAAAAAAAAAAAAAAAAAAAAAAAAAAAAAAAAAAAAAAAAAAAAAAAAAAAAAAAAAAAAAAAAAAAAAAAAAAAAAAAAAAAAAAAAAAAAAAAAAAAAAAAAAAAAAAAAAAAAAAAAAAAAAAAAAAAAAAAAAAAAAAAAAAAAAAAAAAAAAAAAAAAAAAAAAAAAAAAAAAAAAAAAAAAAAAAAAAAAAAAAAAAAAAAAAAAhcBeyKroAUSlQAAAAAAAAAAAAAAAAAAAAAAAAAAAAAAAAAAAAAAAAAAAAAAAAAAAAAAAAAAAAAAAAAAAAAAAAAAAAAAAAAAAAAAAAAAAAAAAAAAAAAAAAAAAAAAAAAAAAAAAAAAAAAAAAAAAAAAAAAAAAAAAAAAAAAAAAAAAAAAAAAAAAAAAAAAAAAAAAAAAAAAAAAAAAAAAAAAAAAAAAAAAAAAAAAAAAAAAAAAAAAAAAAAAAAAAAAAAAACFwF7IqugBRKVAAAAAAAAAAAAAAAAAAAAAAAAAAAAAAAAAAAAAAAAAAAAAAAAAAAAAAAAAAAAAAAAAAAAAAAAAAAAAAAAAAAAAAAAAAAAAAAAAAAAAAAAAAAAAAAAAAAAAAAAAAAAAAAAAAAAAAAAAAAAAAAAAAAAAAAAAAAAAAAAAAAAAAAAAAAAAAAAAAAAAAAAAAAAAAAAAAAAAAAAAAAAAAAAAAAAAAAAAAAAAAAAAAAAAAAAAAAAAAIXAXsiq6AFEpUAAAAAAAAAAAAAAAAAAAAAAAAAAAAAAAAAAAAAAAAAAAAAAAAAAAAAAAAAAAAAAAAAAAAAAAAAAAAAAAAAAAAAAAAAAAAAAAAAAAAAAAAAAAAAAAAAAAAAAAAAAAAAAAAAAAAAAAAAAAAAAAAAAAAAAAAAAAAAAAAAAAAAAAAAAAAAAAAAAAAAAAAAAAAAAAAAAAAAAAAAAAAAAAAAAAAAAAAAAAAAAAAAAAAAAAAAAAAAAhcBeyKroAUSlQAAAAAAAAAAAAAAAAAAAAAAAAAAAAAAAAAAAAAAAAAAAAAAAAAAAAAAAAAAAAAAAAAAAAAAAAAAAAAAAAAAAAAAAAAAAAAAAAAAAAAAAAAAAAAAAAAAAAAAAAAAAAAAAAAAAAAAAAAAAAAAAAAAAAAAAAAAAAAAAAAAAAAAAAAAAAAAAAAAAAAAAAAAAAAAAAAAAAAAAAAAAAAAAAAAAAAAAAAAAAAAAAAAAAAAAAAAAAACFwF7IqugBRKVAAAAAAAAAAAAAAAAAAAAAAAAAAAAAAAAAAAAAAAAAAAAAAAAAAAAAAAAAAAAAAAAAAAAAAAAAAAAAAAAAAAAAAAAAAAAAAAAAAAAAAAAAAAAAAAAAAAAAAAAAAAAAAAAAAAAAAAAAAAAAAAAAAAAAAAAAAAAAAAAAAAAAAAAAAAAAAAAAAAAAAAAAAAAAAAAAAAAAAAAAAAAAAAAAAAAAAAAAAAAAAAAAAAAAAAAAAAAAAIXAXsiq6AFEpUAAAAAAAAAAAAAAAAAAAAAAAAAAAAAAAAAAAAAAAAAAAAAAAAAAAAAAAAAAAAAAAAAAAAAAAAAAAAAAAAAAAAAAAAAAAAAAAAAAAAAAAAAAAAAAAAAAAAAAAAAAAAAAAAAAAAAAAAAAAAAAAAAAAAAAAAAAAAAAAAAAAAAAAAAAAAAAAAAAAAAAAAAAAAAAAAAAAAAAAAAAAAAAAAAAAAAAAAAAAAAAAAAAAAAAAAAAAAAAhcBeyKroAUSlQAAAAAAAAAAAAAAAAAAAAAAAAAAAAAAAAAAAAAAAAAAAAAAAAAAAAAAAAAAAAAAAAAAAAAAAAAAAAAAAAAAAAAAAAAAAAAAAAAAAAAAAAAAAAAAAAAAAAAAAAAAAAAAAAAAAAAAAAAAAAAAAAAAAAAAAAAAAAAAAAAAAAAAAAAAAAAAAAAAAAAAAAAAAAAAAAAAAAAAAAAAAAAAAAAAAAAAAAAAAAAAAAAAAAAAAAAAAAACFwF7IqugBRKVAAAAAAAAAAAAAAAAAAAAAAAAAAAAAAAAAAAAAAAAAAAAAAAAAAAAAAAAAAAAAAAAAAAAAAAAAAAAAAAAAAAAAAAAAAAAAAAAAAAAAAAAAAAAAAAAAAAAAAAAAAAAAAAAAAAAAAAAAAAAAAAAAAAAAAAAAAAAAAAAAAAAAAAAAAAAAAAAAAAAAAAAAAAAAAAAAAAAAAAAAAAAAAAAAAAAAAAAAAAAAAAAAAAAAAAAAAAAAAIXAXsiq6AFEpUAAAAAAAAAAAAAAAAAAAAAAAAAAAAAAAAAAAAAAAAAAAAAAAAAAAAAAAAAAAAAAAAAAAAAAAAAAAAAAAAAAAAAAAAAAAAAAAAAAAAAAAAAAAAAAAAAAAAAAAAAAAAAAAAAAAAAAAAAAAAAAAAAAAAAAAAAAAAAAAAAAAAAAAAAAAAAAAAAAAAAAAAAAAAAAAAAAAAAAAAAAAAAAAAAAAAAAAAAAAAAAAAAAAAAAAAAAAAAAhcBeyKroAUSlQAAAAAAAAAAAAAAAAAAAAAAAAAAAAAAAAAAAAAAAAAAAAAAAAAAAAAAAAAAAAAAAAAAAAAAAAAAAAAAAAAAAAAAAAAAAAAAAAAAAAAAAAAAAAAAAAAAAAAAAAAAAAAAAAAAAAAAAAAAAAAAAAAAAAAAAAAAAAAAAAAAAAAAAAAAAAAAAAAAAAAAAAAAAAAAAAAAAAAAAAAAAAAAAAAAAAAAAAAAAAAAAAAAAAAAAAAAAAACFwF7IqugBRKVAAAAAAAAAAAAAAAAAAAAAAAAAAAAAAAAAAAAAAAAAAAAAAAAAAAAAAAAAAAAAAAAAAAAAAAAAAAAAAAAAAAAAAAAAAAAAAAAAAAAAAAAAAAAAAAAAAAAAAAAAAAAAAAAAAAAAAAAAAAAAAAAAAAAAAAAAAAAAAAAAAAAAAAAAAAAAAAAAAAAAAAAAAAAAAAAAAAAAAAAAAAAAAAAAAAAAAAAAAAAAAAAAAAAAAAAAAAAAAIXAXsiq6AFEpUAAAAAAAAAAAAAAAAAAAAAAAAAAAAAAAAAAAAAAAAAAAAAAAAAAAAAAAAAAAAAAAAAAAAAAAAAAAAAAAAAAAAAAAAAAAAAAAAAAAAAAAAAAAAAAAAAAAAAAAAAAAAAAAAAAAAAAAAAAAAAAAAAAAAAAAAAAAAAAAAAAAAAAAAAAAAAAAAAAAAAAAAAAAAAAAAAAAAAAAAAAAAAAAAAAAAAAAAAAAAAAAAAAAAAAAAAAAAAAhcBeyKroAUSlQAAAAAAAAAAAAAAAAAAAAAAAAAAAAAAAAAAAAAAAAAAAAAAAAAAAAAAAAAAAAAAAAAAAAAAAAAAAAAAAAAAAAAAAAAAAAAAAAAAAAAAAAAAAAAAAAAAAAAAAAAAAAAAAAAAAAAAAAAAAAAAAAAAAAAAAAAAAAAAAAAAAAAAAAAAAAAAAAAAAAAAAAAAAAAAAAAAAAAAAAAAAAAAAAAAAAAAAAAAAAAAAAAAAAAAAAAAAAACFwF7IqugBRKVAAAAAAAAAAAAAAAAAAAAAAAAAAAAAAAAAAAAAAAAAAAAAAAAAAAAAAAAAAAAAAAAAAAAAAAAAAAAAAAAAAAAAAAAAAAAAAAAAAAAAAAAAAAAAAAAAAAAAAAAAAAAAAAAAAAAAAAAAAAAAAAAAAAAAAAAAAAAAAAAAAAAAAAAAAAAAAAAAAAAAAAAAAAAAAAAAAAAAAAAAAAAAAAAAAAAAAAAAAAAAAAAAAAAAAAAAAAAAAIXAXsiq6AFEpUAAAAAAAAAAAAAAAAAAAAAAAAAAAAAAAAAAAAAAAAAAAAAAAAAAAAAAAAAAAAAAAAAAAAAAAAAAAAAAAAAAAAAAAAAAAAAAAAAAAAAAAAAAAAAAAAAAAAAAAAAAAAAAAAAAAAAAAAAAAAAAAAAAAAAAAAAAAAAAAAAAAAAAAAAAAAAAAAAAAAAAAAAAAAAAAAAAAAAAAAAAAAAAAAAAAAAAAAAAAAAAAAAAAAAAAAAAAAAAhcBeyKroAUSlQAAAAAAAAAAAAAAAAAAAAAAAAAAAAAAAAAAAAAAAAAAAAAAAAAAAAAAAAAAAAAAAAAAAAAAAAAAAAAAAAAAAAAAAAAAAAAAAAAAAAAAAAAAAAAAAAAAAAAAAAAAAAAAAAAAAAAAAAAAAAAAAAAAAAAAAAAAAAAAAAAAAAAAAAAAAAAAAAAAAAAAAAAAAAAAAAAAAAAAAAAAAAAAAAAAAAAAAAAAAAAAAAAAAAAAAAAAAAACFwF7IqugBRKVAAAAAAAAAAAAAAAAAAAAAAAAAAAAAAAAAAAAAAAAAAAAAAAAAAAAAAAAAAAAAAAAAAAAAAAAAAAAAAAAAAAAAAAAAAAAAAAAAAAAAAAAAAAAAAAAAAAAAAAAAAAAAAAAAAAAAAAAAAAAAAAAAAAAAAAAAAAAAAAAAAAAAAAAAAAAAAAAAAAAAAAAAAAAAAAAAAAAAAAAAAAAAAAAAAAAAAAAAAAAAAAAAAAAAAAAAAAAAAIXAXsiq6AFEpUAAAAAAAAAAAAAAAAAAAAAAAAAAAAAAAAAAAAAAAAAAAAAAAAAAAAAAAAAAAAAAAAAAAAAAAAAAAAAAAAAAAAAAAAAAAAAAAAAAAAAAAAAAAAAAAAAAAAAAAAAAAAAAAAAAAAAAAAAAAAAAAAAAAAAAAAAAAAAAAAAAAAAAAAAAAAAAAAAAAAAAAAAAAAAAAAAAAAAAAAAAAAAAAAAAAAAAAAAAAAAAAAAAAAAAAAAAAAAAhcBeyKroAUSlQAAAAAAAAAAAAAAAAAAAAAAAAAAAAAAAAAAAAAAAAAAAAAAAAAAAAAAAAAAAAAAAAAAAAAAAAAAAAAAAAAAAAAAAAAAAAAAAAAAAAAAAAAAAAAAAAAAAAAAAAAAAAAAAAAAAAAAAAAAAAAAAAAAAAAAAAAAAAAAAAAAAAAAAAAAAAAAAAAAAAAAAAAAAAAAAAAAAAAAAAAAAAAAAAAAAAAAAAAAAAAAAAAAAAAAAAAAAAACFwF7IqugBRKVAAAAAAAAAAAAAAAAAAAAAAAAAAAAAAAAAAAAAAAAAAAAAAAAAAAAAAAAAAAAAAAAAAAAAAAAAAAAAAAAAAAAAAAAAAAAAAAAAAAAAAAAAAAAAAAAAAAAAAAAAAAAAAAAAAAAAAAAAAAAAAAAAAAAAAAAAAAAAAAAAAAAAAAAAAAAAAAAAAAAAAAAAAAAAAAAAAAAAAAAAAAAAAAAAAAAAAAAAAAAAAAAAAAAAAAAAAAAAAIXAXsiq6AFEpUAAAAAAAAAAAAAAAAAAAAAAAAAAAAAAAAAAAAAAAAAAAAAAAAAAAAAAAAAAAAAAAAAAAAAAAAAAAAAAAAAAAAAAAAAAAAAAAAAAAAAAAAAAAAAAAAAAAAAAAAAAAAAAAAAAAAAAAAAAAAAAAAAAAAAAAAAAAAAAAAAAAAAAAAAAAAAAAAAAAAAAAAAAAAAAAAAAAAAAAAAAAAAAAAAAAAAAAAAAAAAAAAAAAAAAAAAAAAAAhcBeyKroAUSlQAAAAAAAAAAAAAAAAAAAAAAAAAAAAAAAAAAAAAAAAAAAAAAAAAAAAAAAAAAAAAAAAAAAAAAAAAAAAAAAAAAAAAAAAAAAAAAAAAAAAAAAAAAAAAAAAAAAAAAAAAAAAAAAAAAAAAAAAAAAAAAAAAAAAAAAAAAAAAAAAAAAAAAAAAAAAAAAAAAAAAAAAAAAAAAAAAAAAAAAAAAAAAAAAAAAAAAAAAAAAAAAAAAAAAAAAAAAAACFwF7IqugBRKVAAAAAAAAAAAAAAAAAAAAAAAAAAAAAAAAAAAAAAAAAAAAAAAAAAAAAAAAAAAAAAA59J4+IOB8uo6ntrb3U+7249C0Tny5dvetaVTPwTXMc4fywda2hr9+cXQd07a1vJ8erZycfULvV9PKiqZZ4wt6ad1uZ1djzu6eTW+8cuGGYmOV6AH4AAAAAAAAAAAAAAAAAAAAAAAAAAAAAAAAAAAAAAAAAAAAAAAAAAAAAAAAAAAAAAAAAAAAAAAAAAAAAAAAAAAAAAAAAAAAAAAAAAAAAAAAAAAAAAAAAAAAAAAAAAAAAAAAAAAAAAAAAAAAAAAAAAAAAAAAAAAAAAAAAAAAAAAAIXAXsiq6AFEpUAAAAAAAAAAAAAAAAAAAAAAAAAAAAAAAAAAAAAAAAAAAAAAAAAAAAAAAAAAAAAA/N+7j4eNfy8zIs4uLRTcqqrqmLWPTj0xNVVVVXlEREzz9SbuK/G7cW4NQz9rcIMy/t7bdE3aKs2I7PX73hE1WKpjnYt93dMe2nlE+18HrOlNuvK2vtDQ+HOj5NVnK1L2TXkzT3Xfvcs1UxTb9UV3Jj6LUx5psxrGdqmbh6dp2Jfzs+7Xj0W6KYm7kVZddUUUUUUx41TMxHJZ+h+j1mbP33Exr+ET9XFzDF1RV6Kh+srIztUyr2dqWbl6hm1zzqruV1ZeVNfpqrqnnL+XWuWqqK7Ny5auxMTExM01daPCYmPoUhsTgHtHB0fGz+LWbm67uGum3NWNYuTp+hWqZifwdVyj292vw5zExEd8d/i7bX+AvBbXLFUbaq3FsnK9v1Zt3q9cwOtPPl1reRNVUxHPyqh3a9MMpt3fRe6Pfq4mtGX35p3TDds8UeOGwextaZvnUdV06nqfgcvq7ixOyjwppm7zqoj+rMNN210ibN2bWPxG2DXY8Otewa5u09aZ8sW9PdH/SPObl4BcV9B7W/s7VdA35iR1uVMVfe1rM2ojn1pt3p7OP9uWZ69t7fexMicXeG0dwbcu+25Tes3MXHqq8faXJjq1efhPkyThMizjjp3Mz+nFLzFzFYfilXm2eJfBLiBVZs6LvzSMTPq6n4HJn739S7aeXKimLvKmurv8AezL1/W5xExMVUzy5T409X1IAiZnm73bm8+KfDvsqNnb41/RcamZnsouTl6P1vTVjXOdufppcHG/Z/bq/Fhbnylt2s1n/ADwuITXtrpC75wKrGNvvaOibmxo5c7tiqvQNX/rTHKqiqfVEUtP2zxo4E707Kxk7iyNmalPUjqZtH3Pxuv5/5xTNVuI5/wAqqEQxuimZYTjmjXH6cbftY2zc5JaKP5YOVpWuYVrUtF1PTtX06r8W5ZuUahhzHKJ7q6JmJ8Y8H9uSP1266J1VRqbUTE8jgB4foAAAAAAAAAAAAAAAAAAAAAAAAAAAAAAAAAAAAAAAAAAAAAAAAAAAAAAAAAAAAAAAAAAAAAAAAAAAAAAAAAAAAAAAAAAAAAAAAAAAAAAAAAAAAAAAAAAAAAAAAAAAAAAAAAAAAAAAAAAAAAAAAAAAAAAAAAAAAAAAAACFwF7IqugBRKVAAAAAAAAAAAAAAAAAAAAAAAAAAAAAAAAAAAAAAAAAAAAAAAAAAAAAAAAAAAAAAJY6U2RdzOOdnErjlTYwNBojz501XL96Z9Xfdl13Rww8DV+kDtirPsU5EY9rX71ETyrtezaMeqiiqY9MTc60eiaYfV0nZ/8AD7qPd/5Jtn6uo6Mfu/ab8k3N9XSu+3O40d1x/R/CNzx4z5quAUhKSOX4vWcPPxr2HnYuPm4lUcqqK6acjGm15xVTMcpfpzHm9U11UTrpnU/JiJ5XgdycIeBG9pvX720Kds6lVz/C4Nc6BVETPPusxE2ufPzmhmW5OjvuHFi9lcPd8afrNnvmLOXROlZnU5eEX7fWprn1zFMKMcRHf4u/gtKMywnFTXrj9eNq3cFZucsIm3LsDjBw8jIu7p2Fr2Lp9HPnft0xrOj9Xn3TN61M0xHwzEvMd7/QGY+h5jcewOD3EOL1zdGw9CyM+rnM37VM6NrM3pj8au/amKq/gqmYS/BfaDE/hxVv5x/z+Wjcyr+iUZ6PrG6tm5v3S2ruLWtuZ/teddi7d065NMd8RV1JjrR6p9bSNt8d+M22Yox9wxom+sL8HE9vR9ztV7KPGKb1nl3+uqmp7bc3R329lTXk8Pd8ajo1fKeVnLtxq+JNfoi/b6tVEfDTUzDcnCHjvsiL1+5s+5ufApmPwmDV93qZp9MWYiL3L1zRCQU5jkWbxqr3Ov8AXilqzZxWH5Gzbb4+cJNwTasbt07XdiZc8udVVP3waNHPw/C2o68/7Hk0rQ9f2PvjH9k7R3bt/cVvlz/A3reVfijny9vRE9aifVMIVyLWZp+Tdw87EycLKp7qqK6ZxsiLvnFVM98Oce/mafkW8vT8vJwcumYmmuiqcbIivl4xVE84c7GaC4G/GvD1bnbDLbzS5TxVwvsR/tvi/wAd9k9jao3dVunAp6v4POp+7tM8vTemYuxHqitpu2ukNtvMm1jcQtkajot72sTexK41fDm5z75mxc6tVEeHnVKI43QjMcPx0Ruo/RvW8ys1cvE3Mea23v7g9xD7C3tTf2g5mbX1eVm5VOj6zNXnEWLsRVVMernD030otfwd/D1bm7TMdsN6mumrjplwA13oHPi4AAAAAAAAAAAAAAAAAAAAAAAAAAAAAAAAAAAAAAAAAAAAAAAAAAAAAAAAAAAAAAAAAAAAAAAAAAAAAAAAAAAAAAAAAAAAAAAAAAAAAAAAAAAAAAAAAAAAAAAAAAAAAAAAAAAAAAAAAAAAAAAAAAAAAAAAAABC4C9kVXQAolKgAAAAAAAAAAAAAAAAAAAAAAAAAAAAAAAAAAAAAAAAAAAAAAAAAAAAAAAAAAAAAEodJ33fdQ+SbZ+rqOjF7v2nfJNz/VwdJ33fdQ+SbZ+rqOjF7v2nfJNz/Vwu3/xz/wBP4Rv/AL35qvAUkkgAAAAAA57vKHARMxyDrNd29sXfVirH3htLQdxUcuUTetW8rJpo8fwdyY61Hfz8JjxZruTgFwo16bmRtHVNf2NlT4UxVO4dEjz/ANFdntJj9Nro6mEzrG4Pmbkww3MPbuetCVdy8CuNe2JuX9v2tE31gR2k/gLkYGqdjH8qze5c59VNVTOdX0ndO0M2rTt17b1zbmbHvb9q7pl3n6oriOceteT58/D0nXsG5put6Zp2s6fVy61u9bt6jhT4+NFcTE+MpfgtP8Tb4sRRFXZxOfdyqieOmdSB++PN6jbXEHjFw67K3tbfmt42DTy5WbtVOt6PFvn3xTZvRVTTz9MRE+tR+4+C3Avd/bX8TQsvZufVznr4VfsHH7bxj/N64qtxHPypiGZbl6Pe+9Mm7k7E3doe68aI59nfirbWq+HhT31UVfDM0pPY0oyfMadxe4v0qhpVYLEWuOnY+vbnSJ1/GmzjcQdjafq1vnHO7h3J0nK6nd3zYudamqe7yqpabtzi5wJ3t2VqzvC1trUKuX4LOj7gXYn0TennZ/VWlrcezuKHDyqqd5bH3BomLE8u1qt+ydJ63qyKOdufoqdFy9b8xGieUY6nd2Z1dkvVOOv2uKravuxdxs7GsZmHkY+Xi1xE010VRkY9VqfCaao7ph/TxQroG4t9bEyZytm7t3Btu7zpmYs3q7GJVV/zlr8WuPVMNK23x84q6FFuxvHSdA31jR1edXV+9vWurz8O0tR2f0zRMorjtAcXa47FUVR/aW7bzS3PFXxKfGWbb46cFNyxax9fv6zsbUZ6vOL9urP0ztZ8qb9nrd3f41RS0fSdV2xu3Cp1Ha+4dF3Fhd3t7F61qdmJ9EzRM8p9Uoji8pxmD563MN+3ft3PVl9gDnMoAAAAAAAAAAAAAAAAAAAAAAAAAAAAAAAAAAAAAAAAAAAAAAAAAAAAAAAAAAAAAAAAAAAAAAAAAAAAAAAAAAAAAAAAAAAAAAAAAAAAAAAAAAAAAAAAAAAAAAAAAAAAAAAAAAAAAAAAAAAAAAAAAAAAACFwF7IqugBRKVAAAAAAAAAAAAAAAAAAAAAAAAAAAAAAAAAAAAAAAAAAAAAAAAAAAAAAAAAAAAAAJQ6Tvu+6h8k2z9XUdGL3ftO+Sbn+rg6Tvu+6h8k2z9XUdGL3ftO+Sbn+rhdv/jn/AKfwjf8A3vzVeApJJAAAAAAAAAAAAAACqKLlNVFdFFdMxMTz9tT1Z8YmPN47cvDHgfv6L1zWNh6XgZ9XX/DYv/8Az2o9pPfNVU2uVNyrnz764qexG1h8diMNOu1XMdkvFdumuNVUMC3L0d7fO7k8Ot+zR+Pys51HOnreMc8qzH/9GZbl4X8cdhRdvapsTUtV0+nr/hsTluTA7KOftp7LnVRH9aIWW45ev/4JVgdOcww/Fc1VR+rSuZbar9XiQDVFVE1U1UzTXHPun2tXW+B9Wlalr+1dSsaxtvWdU0LVaPxblm5XgZUfpUzz5epbO4tpcNOIdFdO89k7f165PKO0qt02NY6vopyaOVymPgqYXxk4MYGydB1Df/C29n39HsRcrycO5M52TbwPfXse5+NVRTHKZpq5zERM855JplumOBzGqLN6nczPx5HOvZfdtRuqZel4J8Ybu/NRwOHnFCvFsbqr7KjGzIiMXHv3/KzfojuovT5THdVz5conl1tr5etAVq5exb9rIx7tdm/TNM01UzNu9F6O+mqmY8JieU/QtHhJuSvitwk2ruzLrouaz1LlnJmO6qdax6pt11THl1oimvl/ziL6aaP2sHMYrDxqpnlhuZdi5ufgqerAV+6oAAAAAAAAAA5cJX6S+RqOJx51GzjZ+bjWvYu3J5UV149vrTbq8ol28hyec2xE2Iq3PFra2JxHoKd1q1qoEEezdY/nbVf7W5/eezdY/nbVf7W5/emX/Tqr/W2OfvvH9K9xBHs3WP521X+1uf3ns3WP521X+1uf3n/Tqr/W2G+8f0r3c+1Qxp+6uJm36qa9G4g700yqOr/o8vKxrfUiOXKaYq5THh+p7XbXHDjbtW/RRreoabvrTfwXOjKt02M7son3t+1FNXP11dbwaeJ+z/FURrtVxOxkozWifWjUrEZ9w54tcNuL93H0Sq5d2hvSrqRGLfmJtXL8+9xciPa3Z8Paz1au/wAJ5NBjvQnG4DEYK56O/Tql0bdym5GumQBqMgAAAAAAAAAAAAAAAAAAAAAAAAAAAAAAAAAAAAAAAAAAAAAAADlwwzpb3s3E0Xhb7DzMnF613dXPq1VWuftMXlz5T8P60+ez9Z8tY1b+1uf3pzk+hk5lhKcRFzVr92pzcRmPoa5o1L2EE+ztb89X1b+1rk9n6z/PGq/2tx0/+nNf+tsYd9uivYQT7O1r+eNV/tbj+2FrW8NJu03tL3VuPTrsc++3kZGJV1piYnvir1yT9nNf+rsN94/pXgI60Hi3x82jdtTb35n7hxI6vO3mxTuG1VEeU3K/wkfRVEtm4ecctl73v4mhcQsGjYev1cqab3W7baNeRz5RE3KvbWJnv/G5x3fjODmOhmPwdM10/ij9GzZzC1cnVPE2BwRNuuKardym5bmKZiY9tRNE98TE+cCJTExOqW+A59JTGudQ4EUcSczVrXGji3bs6nqFq3Gq76iIi5cppimM+9yiI5+DoPZ+t/zzqn9pc/vWPZ+z+q5RFfpeX9HIqzXVOrcr3+lwwzokXs7N0bilXm5mVmVRd2ny69VV7lzoyufLnPwNzQnN8v3uxdWH169To2L3pqIrAHNZgAAAAAAAAAAAAAAAAAAAAAAAAAAAAAAAAAAAAAAAAAAAAAAAAAAAAAAAAAAAELgL2RVdACiUqAAAAAAAAAAAAAAAAAAAAAAAAAAAAAAAAAAAAAAAAAAAAAAAAAAAAAAAAAAAAAASh0nfd91D5Jtn6uo6MXu/ad8k3P8AVwdJ33fdQ+SbZ+rqOjF7v2nfJNz/AFcLt/8AHP8A0/hG/wDvfmq8BSSSAAAAAAAAAAAzfjFxS0rghZsbf0LExdf4gXqaaot1zMaZZwapmIuZHV75me/lRHKeUc5mI5c8C1Diz0gdazbubd4ialgc5r5UWKLGmYdNufexTTT3/DPOfWleVaIY3MbXpo1UxPJraN/H27U6uVYomnh5x23ro2r4Wl8W6re7Ns1zapqyKbdvD3BZtTPLtOrbiKb1MecTHW7ufPu5TSOHk4Gs6bgaxpWXYz9Lv0Y1y1comLuPXh3KYqprpn0TEw52cZDisqriL0cU8kxyM1jE278fhf1AcVsAAD8ZFrHzsXIwcyzbycO5Teprpq9taqxqqerVTMeiYl+xkszMXKZj4vyqOKUC5lu3iajn4lqKuzouZlMc/bVdWmuYiZ9fdCluiZdvXeE268SurnZo1LLmmPRVcw8XrfR7WE3al+W9a+O1H6ypSHRJ9y/efzhV9ix1z6XceTa5/RH8v/MNlAUokIAAAAAAAAAAlDpO+7/qHyTbX1dSr0odJ33f9Q+Sba+rqTfQH2lP7Zc3M+ZZg+rTtN3HuW7fsbc0DWtfvURTNVNizd1S5TbmeUTVFET1Y9b5W3dEf88eI/yTSvtK1c3x84DCV34jXqcLD2vS3IoZT96vFH+jne/7Hmf/AEPxe2zxGw7FeRm7C3liWI5e2qxMuzY+mqaO5dXd6Tu9Kvf+odz/AEtrr70U/wBSAa6a7Nc27lFdu5HPnEx2dUVxPKYmJ8+5+fJcm6NpcO+JmJexN67S0bWZqiqIuzRFnWqaeXKOzyafb0fRKX+NHDbP4F6zialpWXk61sLKqvRZvV8vZNrMjnV7GvzHdNfV74q7utynujkk2SaW4bM6/RTG5q+DRxOArsxuuWGeUzVRVFVNU0VRy7/CrrKW6PfE7N35RTww3/nV5e7rVFyrFyK5icjI063HOq1dq99fppiZ5++ppnn3xM1TT3Q+rR9Q1Xam4NG3PomTVh6vi3cO7aqjv5ZVuuKo5x5093KY8+bqZ3lFrMsNVbqjj90sOFxFVm5EwvSO8fBt3U8Lem09u7u06Org5ljTb1Ec+1qii7biuaJn0xMzH0PvfP8AetVWq5oq5Y4kridca4AGN+gAAAAAAAAAAAAAAAAAAAAAAAAAAAAAAAAAA57/AEHf6AcDlwAAAAAAAADCOl5+ReFPx26fq8VPHlCh+l5+ReFHx26fq8VPHlC9NDPZNHz+qM5j+Yl9Gm4Osbl1bD0LQNLzdZ1i7NyLdq1TOVm1XYpmqYoojvmeUVT9Eu//AIPeOP8ARRvv9mvf3Oy4CfxieGUf89qf2LIWK09JdKL2UYim1RTE641suDwVN+jdTKJ7nD/jfZt1Xa+E/ECaY5fi4eTk3PopppmXRajp+u7dyYw9f0XVtEy+UT1L9q7puR1fT1a4ieS9Xy6rpm3t2aZf0bc+iaZr+l1+Nu9bozcbny5c4iqO6rv8Y74cOx9ode6/xbfF+jYqymNX4ZQX4d54euWm8euHmHwW3Dp2t7UjJq2PnTk9SiuZyL9jVaeVVWPNc99VM01RNMz38oqiZnlznM4nmsbA421j7EXrXJLk3LVVqrc1N56NvETUa9Sw+DG8865nYtdNcafdrnrZNN+3Tz9g11T40TTTVNPPwmnq9/OOVCIK03Nztu61o+vaXdrx9TxruDdtVRPVqjMtVxXRP64heGHfs6rpun6pjTzx71vFuU/yuxuURVHOPpVVp1lVvC4im/bjVu+XtdzLL010TTPuf1c+lw59KCW/Wh055EQcTPdp4vfO2+/3heefeg4me7Txe+dt9/vC88++k8DzFPZCH3vXlQ/RC/IfFP43aX1eW3dhHRC/IfFP43aX1eW3dSGl/ta58vokeX8xAAjLdAAAAAAAAAAAAAAAAAAAAAAAAAAAAAAAAAAAAAAAAAAAAAAAAAAAAAAAAAAAAQuAvZFV0AKJSoAAAAAAAAAAAAAAAAAAAAAAAAAAAAAAAAAAAAAAAAAAAAAAAAAAAAAAAAAAAAABKHSd937UPkm2fq6joxe79p3yTc/1cHSeiqnj9qE109X/ADTbfLz9r1Ko5/7p/UdGL3ftO+Sbn+rhdvFwc/8AT+Eb/wC8+arwFJJIAAAAOfocM444cR44HaLg6RoGNj6hv7MpvTapr5XMSzptNXVnJu0eNUzVFUUx4TNNXPw5TuYDA3sdfizZjjljuXKbdO6qaO5Qxr26OIe99Qr1Pde8twazlzNc+2u3KMWJnyt2qZii3T3z3UxEOy2fxB4p8L9Rx8zb+6dRydPiaevi367mqaBXY599NVqueVMzEcutTyn1pzX9nt+m3uouRNXw1ObGbUTOqYWqeX6nnOHW7dC4z7F03emi25xLszXbyLM1Rdv2tboiJuWpmPGn21MxPdziqPDwejQO7h68Pf8ARXI1TE8bqU1xXTrhDnEHUtS3dxS39uHVbs3sq7mazH8uIxbd6q3atx6qaKKKY9UOlffuT88t2/K9f+03HwPozB0xTh6Ij4QiN315FTdFzVM3XuCd7Ss29dv+wMzVLFvn7eY0yq3ayKaet58q7134I5JZUr0Svcx3v85XfseOjGm9umrK6pn3TDdy2dV6GzgKRSMAAAZLXrx2vyrkQRqX5b1f47UfrKlIdEj3Lt5/OFf2PHTfqX5b1f47UfrKlIdEj3Lt5/OFf2PHXNpZ7Fn5I/l/5hs4ClUhAAAAAAAAAAEodJ33ftR+Sba+rqVelDpO+79qPyTbX1dSb6A+0p/bLnZpzPzZg2/oj/njxH+R6V9pYg2/oj/njxH+R6V9pWLpX7Ku9n8uPgOfhSHnLhz5y4UGlI8nxf0fF3pwS4i6TkUU13LeLn5Fqe7tI1PDpnItzT6Oc2+rz9FUx5vWOp3nkWdL4b7/ANSyO6xawN0Vz5e1oxLs8m9llyq3i7dVHLrhjvRE25iUL/8AD9bj/wDyelz6fofR1PqofPKrro5Zc6r0eNm2q6uvcx6tw2Znxq6tOZduUxPwU3aY+iGiM06NFm7jdHzQb9ccqL2Tuiunxj8HGRNqfH126mmep89Z/TEZjd1f1SluFn/Bp7HDl5/fW79mcG9t1bi3jnVWut2lNmxRyvavezIiJ6lmiZ7/ABjnVPKI5xznvhMXEDi7xT4q5GVh4moV7K2jVNXVxsauqzk1Y8zP/jORHKq5Mx5d1PqbuS6MYrNfxU8VPxljxGMos8U8qm9w744RbAquWt2cQttablU8+tai5909XifXj2oqrj9TyWbx14A4F3s8XU9za1Tzj21nFuW7fV85/DTRPJKIn2H0AwNEf4lUzLl1ZpdnkhU9vj5wIuXKaK6N7Y9M9b21WLbm3HdM9/VuzPk7/RuK/AHdN23j4PETS8DKnl7XKpvbcj1R2l6mKJn4KkccvWcvWyXdAsvrj8MzEvFOaXY5YX3j3cPUMazmYGXjZuJXFE010VRkY1VqY5xNNUd0w/fJEGzt4cReE2oW83ZW5c3T7HOJrsVTVl6Fcp84uWKp6s93dz8Y8pU7wm4obV43YUaTl2rW2+IFumubmLM9fHuUUxzqu4lc99dPnNP41Prj2yEZ3ohicupm5R+Kj6OnhsfRe/DPFLQSuq1Zt3b965RZsUxVNVUzFFqLURzmZnygO6YmJiJjv9cckSpiN1ES33Qfftwa8+LPDWP/AGjp3+K5+/bg1/Szw1/6x07/ABUe8RNG/g+4p762fRRVbxsfJzeyie6v7j3OV3GmfhtV25dCtSxoHg71qm5TcnVMa/c4leaV0zqmF8YGZo2v6fj6voGrabruk3O16l6xct6lptUU11UVdS7RM01cqqZieU+MS/sx3oo6v91+Fm4NpXbk15Gn5U1Ux4UxpOZR2lERHl+Et5M/S2PzV3m+A3vxddj4S6uHu+ltxU4B+Mm9jaZgZupZt2mxhWqL9ddU/ixi0UzXXV9ERLn0UTXVFMe9lmdUa3V526uGGh5+RpetcSNhaTqlvqxXau52DgZ9Nzlz5V267kVUz8MP4ffrwb/pZ4Z/9Y6b/iov3DqWXvPd+6N3ZtM0ZOZkanemOc1xE3btVfVj1R1uX0Q+Fa1nQDD1W4muuder9HEnNaomYiF56ZqOgbn0+nVNta5pG4dMma6e1x7trVsDt6eXWpi5bqmmZjnH630sN6JGrxlba4g7GvXZice/pmTapnlNycfJtdje6vqice1/ttyV3nWXb3YyvDxyRyOrh73prcVDlw6LiDq8bD4V7+3dTc7HIx8TU5tz4f8AKtdE28f/ALWu20cNZm/dptU8szqZa6tzGsq3pwdt1VU3eLPDO3VEzHKdR0+mrrR4xP4TxcffrwY8uLnDH/rHTv8AFRBHm+7QNNzN47s2ztTT6etnZmRplijz5XL12mjnPoiOfOfgWlVoFg6Lc11XJ4o1+5xac0rqnVqXXjX8LU8TF1DTcvGz9Pu02K7dy3VTlYdeJXHWororpmYqpmJiYmO6eb+j+WHjYWjabp2kafZpsYNi3iW6KY5U0Rh2qKaKKY5eiKYf1VXeimK5inkduJ1wFVVuzbuXb1ym1biJmZnupinzmZ8nmOIm99ncEtt/dvcl6crULnaRjYtExGp3suIjnFMT+JbiZjnXPdHOPGZiJlrf/Ejibxlysi3rWr3tJ2zzpmjCsVVY2ixRHhNyPG9X66ufq5eCSZHotic0/H6tHx/2amJxtFjinjlTWvcUeA+zLtzG1TiHpGbmxz9pjRd3Hc7Tzp61mmaYn4Zh5y5x84FWblVuLO971Pd7aMW1Fufg612JSvMc/Pv/AFyT3p5Z0Dy+inVXMzLlVZrdmeKFb6Xxs6Pus3KbWRujUdvXJ6vL2RjZFu31pnlymq1FcR8Mzye60jVds7w0+nVtq6/o+4tNnu7Sxdt6jj9b0TNE90+qUHcn3aFrO6tiaxj69tDX9S2/q1PhXaqmzVNHnTXT4V0z6JiYauN+z7DVUzOHrmJ/Xke7ebVxP44XeMs4McWNN4u0UbQ3hTg6JxEpiqaeXLG0/KsUU+2rsx729HnR9NPdzinU47/FWeYZdfy+9Nm9GqXatXabtO6pH4yb+FpmFl6jqOXj4OBapvV3LldVONiUYVFM1XLldc91NMREzMz6H7dFxF9xziz8078/d99iwdmL9+m1PJMxD1XVuaZlx9+vBuPHi1wzj/2jp/8AiEb14M/0ucMv+sdPn/5iHvR3ekj1f3LR4AYXc693OxxN9bnwX9YuY2fi42bhZNjLw7lNqqiuiqnIxqsauIqoqoqjummYmJ5+t1+va7s3YWnTqm9NzaPtrE9v1ZvXKMaqq5HLnTbpn21dXKfCmJl4fce+tK4FdH3h5q161Z1DdGTp+17eHjzziirPpwbPXu3OXf2VEVUzPLx50x3c+aXNya9uziNr2VuXeWtZmtavXNftqp/A02uczFuzbj2tu3HOeVMco70dybQ+vH3Kqrk6qInVHxluYjMKbUao45VRc419Ha1cqt2955uTT/KpxM/sp/2rcS9ZtXdGwuKOBlansPcmHuHEtTapudWLuLkUXaomaYrtXKYrp59WfGO/lKGO/wChRPRE/I3FX43aX1eU6WkOiODy/BVX7Uzrj4sGEx9y9dimW7AK1dgAAABhHS8/IvCj47dP1eKnjyhQ/S8/IvCj47dP1eKnjyhemhnsmj5/VGcy/MS9zwE/jE8MvjtT+xZCxUdcBP4xPDL47U/sWQsVC/tB/PUft/mXSyvmp7Ry4cq/dRlXSjox73AqLl6Lc3qM7b9Vvnyn/O+peomI/Qruf70rt06Vm69N1XM0DhLpGXbyrmLcuZGZNPK5bp1WbdVvHs8/5cUXLtUx/wA5T6JYRH9y89DcNcsZZT6T38aNZlXFd6dT9x1prt0UUVV1TMRyjvq60+EQvLR8e9pO3dB0vI5eyLNjTLdXhVHbW7VNE+HwJF4IbWyuKHGHbVi5izd25hV2MrLqmOeN7Ds1xVbtVeuu5FNPKO/lNU+SxfRCK/aFjKK7luxTyxrmW9lNExE1OHPpcOfSri360OvKIeJfu08Xfnbff7wvPPPQ8S/dp4u/O2+/3heeefSWC5inshD73ryofohfkPin8btL6vLbuwjohfkPin8btL6vLbupHS/2tc+X0SPL+YgARlugAAAAAAAAAAAAAAAAAAAAAAAAAAAAAAAAAAAAAAAAAAAAAAAAAAAAAAAAAAAIXAXsiq6AFEpUAAAAAAAAAAAAAAAAAAAAAAAAAAAAAAAAAAAAAAAAAAAAAAAAAAAAAAAAAAAAAAzvi1ws0Dj3kabrdOvXdrbts0dnF7s41TDuad1qq6bd231onnE1Vcqonu6084nu5OEXCvQOBWTqWvX9cubr3Teoqt9rNuNOwremTVTVVRat9aqeczTTzqmfLl3d/PRHMebrb+Y77r903f4Ph4sH3e3u93q43ADks4+fP1DQdv2aMnX9c0fQ8eZmIqv3bWmWJq9EVVzETPfH63i+Ne/aeBmxbOVplNm/vDNqv28SmqO0x6arcUzeya4n8aKIro7vTcp8uaStb1bcu9tZydf3VrWo65q9z8a5drm/Xy/k0x72mO/lTHdHkmWQaI3c0t+mrq3NPu/Vz8Vj6bM7mI1yubT9T2zuPtvvc3Fomv8AU6vW7C9Z1OI58+XW6lU8n1oI0/N1nb2o4ur6BqmfourW5pmi7arqw8um5HnTVTPNVHAPiLncZdBz9ubvu2qt9YNNia64im1N/Rpq6kZHUjlEV01coq5d3tqZ8+UZM+0OuZba9Paq3VMcv6PzC5hF6dzVGqWnpA6QmTmap0iN/RlXOtRZ+4Nq3HfNFOHRhWauUfpV1z8NUq/R1x4/jEcTPjdK+w47P9n0ROOrmf6f5h4zXX6KO14YBcKPN46IuZnRrXE3QIr56fXa0C9ET3xGbTcuW+cR64rjn/VhQ/L1pv6I3568RPkukfaVIR5qQ0wpiM3q1fok2AnXYhB+5Pzz3Z8r3B9puOv987Dcn557s+V7g+03HX++XPheZp7IR2560uVL9Er3Md7/ADld+x46aFL9Er3Md7/OV37Hjo1pr7Kr+X1bmW89DZwFHJKAAAMlr147XmrkQRqX5b1f47UfrKlIdEj3Lt5/OFf2PHTfqX5b1f47UfrKlIdEj3Lt5/OFf2PHXNpZ7Fn5OBl/5hs4ClUhAAAAAAAAAAEodJ33ftR+Sba+rqVelDpO+79qPyTbX1dSb6A+0p/bLnZpzPzZg2/okfnjxH+SaV9pYg1bo37n2Hwy3RvfN31uHG29iX8bTqLdVVN7IpqyKb/WmPwdM8u70rJ0mtV3ssuUURrmXGwUxTeiZlVA8R/C50dv6TtN/sc7/CfxyuMXR0wLE3o4hW86rv8Aa2sbUMm9P/ZdWPpmFJU5Lj6p1Raq/tKS/ebX9UPfMh6TG8MLaXDyvhzpuXanc+pxTFymJ537e1Ka4m7XVEeHXqpiiOfjHX9Dot59IPS4xL+n8KtsZt/NqiuIysyKbGLTM8461vGomZr8Y5daY9cSwbWNS1zd+uajuTcmp5Osa1fqmq5crnr3pueER6IpiOUREd0RERCa6M6IX6cRTiMVGqI44hzcbj6dzNFt8fPlMufGeXwOPU0/o9bIyeJfEDH3drGFcq2RpdePcrmY62Ne3DTEV2Mamffcp6tdXj3RET+NCycwxtvBYeq9cniiHHtWpu1xTCkOG+i1cPuEuwNo3LfZZVjFw+1jvp5ave538iO//nLtb7t0a3ofDvaOu703Hkex9IxbdddXneqvTMU27VEeddVU00x66odnPl/9xyT10sNzXb2pbX4U6ZkzRjW6aMvKpiYrtzlVzVbxbdX9Wmm9Vy8J7SifJR2VYOrOcz1VckzMykl+5GGssj31urc3GHeepbx3Nfq7Wv2tm1Ezcw7OkRVM27Fv1Rznv85mZ83QzD9O82FtnVuLvEDQNjaVXVj9tVcm7d5Tet2tHt09a9eqjn38qefKPOqaY8156rOBw/FxU0wjP4rtf6y/rsfZnELjHqtenbJ0SrJxqJs9tkXJnC0K1FUTMdrd5ePKJmKY51Tynu7mv6X0c7EY9NzdPE2/Vl1RTzoxseJw4uxPfyu3K+dUePvYbXtrRNu8PNsaVtHaun29N0XHpopppjlN2bvL2125V76uqe+Z9LslTZrpxjL1yYw07mna71jLbdMa6+OWEah0c9CuWrs7d4l6ti3/AG/Vi/jW9Qonv9rTVVRXT6eXPl9DKN/8OOJnBafZe4tNtapt2qaYpzMeas3Ru1me6i5MxFVqvlMd1URz8pnks6H8NQw9L17TM7RdawMXVNJv0XaLluuIu41WNVHKaaoliy7TfHWLkenndU+96vZbaqj8PEgiJ5vp0vP1jbGs6buDb+o5Wlazj12a7VyiZt3acimf98eMcvRMvScXNn3eC3ErUttY9d2/t27EX8Ouqe0vTotyuqIorn+XTVTVTP8AV5+bya37F61jcPFdPHTVCP1U1WqtU8sLS4V7vw+NPDjTN2U0WMbWqZrs5dqnupo1y3FPWmmPKiqJprj1VcvKXq58YhLnRe3DXtrivlbKyr/U0rVbN6mInus/d3FpqvWap/Q7en9KFR+f6lG6T5ZGXY+qin1Z44SbBXvS2omeVNPSx0SdM3/tLfOPZ6tjPxrtquY7+erYdVPfPr7O/aj9CWLK06SmiRuzgVq+o2bU3NR067p2VRyjrXPYcT2N+OflT1Ls1T8WkrvhaWh2O+85bTE8tPE4mY29xe7WvdFjV/uJxh1HbN25ys6jiZ9NMeETquLVTkUT6+VqnJ/WqLx5yh3YWrfeLxP2Hu2q5NGNjZekVXfezOlTcii/HPy526rkfSuLu70J0/wno8ZTejkqj6f8h0squbq3NPwcPB8fNanZnAbedyzeizmZlOPh2+/lM15c9S7H9jF+foe8T50uNZmvP4f8PrNfKiinPzLsc5iZrrnsMbu8pjqZH+04GjGD+95lbp90Trn5NrGXNxZmWCxHLn383JZouZF+1j2aKrt+uaIpiO+qbkzyiI9bud76Nf4e8Q927NyIiK8a/epjui3T2FcRcomIjy6tdK+/S0xXFv3ovx6tb2PRr1b72eO+k6ddu9niajY1fGq5/wCj7bqRk2vpmvHopj+urKO5CO3dSv7N3ltTdmLM+yMPJ0i/EeETNm9Tc5T6p6vL6ZXZZuWczGx8vGuU3saum1VTMd9M2Ko50zH0TCp/tAwm4xNF+PfGr+3/ANdzKrmuiaX6ZH0qNW+4nB3TttWrk05GoZeDFVPhE6Xi01X6/wDtIx2u+Epk6V2rfdbiftnadm917OBidaqPRquZc69cf2VrGn6XF0Qwn3jM6NfJTx/2bOPr3FmWOR5tU6MeiffLxpo3BkW4rwdMx8+93x1rU6ndj2NZpn0Tyu3Kv+jZXHcp7oq6J9w+Fer7yyLPVzNTybvVq5cpnRcPrWaO/wCNnK/UtLSvG/dMtrmOWeL+7iYC3u70NfdVu/X9C4ZbL17e24bs06fjUVVdWO6/XlzPVtWaP9aquaafp5+Uu1Tn0r9z3tQ3HtzhXgZFXsDGot5OTET1qZ1q9ExYorj002udX/Tqg0fyzfLG02p5OWexIMXe9Dampk29Nybl4r7x1Tee58mbuZdmIooiZ9h2tMpmezsWo8qYifpmZme+Zl08ef0Pz3NN6PWysTitxDv6xuDF9k7T0uMS7domIrsXNVrqqjHsVc/e86LlU+PPs+Xvu68sTfsZXhJr1aqaYRmimq/c1fF9vDHgruvidpeHu3emfc2XtO7FNVmiKYyNx3sSfC5FFXtbNufKqrnM+PLlMTOr43ArgDjYlWPkabufUr8xTHaV5VdrLj1xFuKaef0NO8O73r9d3iprMNLcwxd2aqa9zHuiEhtYC1RGqY1sB3v0fcG3p+Vq3CTcmoV6lRFUxh5k2rtu5REd9NnJpinqVeiKomJ5+MMCzLGdpGoZuk6phZOn6nZrvUXLdcTYyqMuiZiqiume+JiYlfKculbtnC0jXtr8UtMx6LEZnb4+XyjqUzq9miKse7M+dVVuK6Z+Jp9PdKdEtKL+Iv8A3XFTr18ktLH4Oiijd0MUxcrUdE1LA1fSMy9p+p2a7Fy3cpmbWTTl0VRVTVTVHhMTC0OFu6sbjDwz0PeNPY0arPXtZdFPdRTuGzERdiI8qaomiuI9FyEUz3+pt/RN1q5hbv3jsDIvT7FyrFjItxMzNH3VxrkUVxTHpqt35mfVaj0O3ppldOKwM3oj8VHH8ve1stvTRc3PulR7oeI/uOcWfmnfv7vvu+dDxH9xziz8079/d99UeVfnLf7o+rv3ublD0+f0OXE+f0OfOefh3PouI106kQq5Xot/7lyuJGt6Hc7audGwcLbGHj0e9ixjYtui9Xy9NV2LtXP0TT6H52nsrihxUruRsXaGfrONTMxXdmaNO0amvu7qsi5MUdbv/FiebvOCuw7nG/fVWNqMX7Wy8OMa5mVxzt3KqK5qizj25jwqrmivv8ooqnxiFd6dhaVt3SsDQ9D0/E0vSbNNNFu3bpjHxabEeEU0x3R4oTn2k9rJtWGw9Our6OjhcFOI/HVPElS7wM6QNizXetaLt/Nqjl7WjLx4vz8HXmKf1y03oyaHu3YNHFfQ947f1Pb2p9rtKYpu0TY62P1MqOvbq8K6ecT30zMdzZY7nP6KD4/S7FY/DVYe9TGqfg6dnAW7VcV0y4ARJvgAAAMI6Xn5F4UfHbp+rxU8eUKH6Xn5F4UfHbp+rxU8eUL00M9k0fP6ozmX5iXpeF2uaNw44tbM3tuGjNuaNi3Muq52VNOTm9lXjXbUdWiZjn310+fpUH/D7wN/9F3z+zWP8VLEf3OG3mujmEzS5Fy/r1xGpjsYy5Zp1UqjyOkBwWsW+eLo3EDPvTz5RFjFs09f11VX+6P1vA724+b13RiX9J4faHa2Ni1RVFWRVc+6m5uzn/zU9WKbM8pnv5VTHjEwxoa+F0QyzDVRXFGuY+LJczC9XGrW/V+7k52TfzMy/dycquq7VVXVNV/IqyKqpqqqrqmec1TMz3u72XtHfPFrXKND2Zo9/NmOzm5dqibOj2saZmIrvXfCmO6e7xnlPKJdZpeTh6TqmLqGdoGkbmxqJ5zYyJyaNOqq8ut2Fyiv/wDl8Lddg8dNibfwcDa+4uGeLsbRaOrFNendW7pMXJ5RNVWLMRVT4RMzFVUz627m+JxeGsz90t7qfoxYeii5V/iTqavw02Vtzgjs+3t3Ro9l6ncm1XlZFVPZZd7VIp5c+XvbdPOYpp8omfGZmZ9S+DQda2rv3RMbcWzte07cOjV90XLVUXIi7yiZouU/jW645xzpqiJj0PuUNj7mIuX6qsRr3Xv1pPapppp1Ucg59Lhz6Wtb9aGSeREPEv3aeLvztvv94XnnnoeJfu08Xfnbff7wvPPPpLBcxT2Qh9715UP0QvyHxT+N2l9Xlt3YR0QvyHxT+N2l9Xlt3Ujpf7WufL6JHl/MQAIy3QAAAAAAAAAAAAAAAAAAAAAAAAAAAAAAAAAAAAAAAAAAAAAAAAAAAAAAAAAAAELgL2RVdACiUqAAAAAAAAAAAAAAAAAAAAAAAAAAAAAAAAAAAAAAAAAAAAAAAAAAAAAAAAAAAAAZ7x+3ZqPCnhPk3tAyvYe5c+5Ti2a4maL9uzXRVXfv0T5VRRTyifKa6Z8m3gMHXjcRTYo5Zl4u1xbomqfc/e9+LnCDhXqF/Qs3UM/c24qJmK7GHTRndnf58ppvXaqoopnnzjlEzMcu+Iec0rpB8Lc/NjG17bG7du489X8Lys6vjU9/fNymiqKop+CJ+BMdU1V1VV11TXcnnMzPOq5Nye+ZmXMxzW9Y0Gy6m1FFeuZ+LgVZnemrXC89E1Xbu9NEwtx7V1fB1zRbsTNF23V2tmZ84nzpqjzpmImJ7ph9nmlDo57t1DYnFLTdnZGVXVtPVq7Nmu3MzVap1+YmMa9bjyqmvq0Ty8Yr/wBWFXx3+XJWukOSzlOK9FE66Z44l2cLiPvFG6TH0tbuTc4sbOwK7lVWJRpmJXTT7yMm5nZdNdXwzFm3+pjbYeln7sm1fmrS/wB4agx5cmjcRGWWoj4QjuN5+o+hpnRpvZOP0hNu2Me7VbtXcfc9Nce9qxoxqrkUz6utbon9GGZtI6N38YnaPxO6vsV1kz6NeXXf2y84Sf8AGpVsjjjx3dIfiZ8dpX2HHWOjjjz/ABh+JnxulfYMdW/2e/nq/wBv8uzmvNR2vEALfR5t/RG/PXiL8k0n7So9OHRG/PXiL8k0n7So9SOmPtefkkuX8xCENyfnnuz5XuD7Tcdf752G5Pzz3Z8r3B9puOv98ubC8zT2Qj1z1pcqX6JXuY73+crv2PHTQpfole5jvf5yu/Y8dGtNfZVfy+rcy3nobOAo5JQAABktevHa81ciCNS/Ler/AB2o/WVKQ6JHuXbz+cK/seOm/Uvy3q/x2o/WVKQ6JHuXbz+cK/seOubSz2LPycDL/wAw2cBSqQgAAAAAAAAACUOk77v2o/JNtfV1KvSh0nfd+1H5Jtr6upN9AfaU/tlzs05n5swB6bh/sjeXG3UtY0vZ13RbWTjW7Fy529yrBt9hXX1KYpmmmec849S4b9+3Yom5cnVEI9RRNc6oeZ7vQ5jzav8AwA8cf/Stj/tF/wDwX9LHR+4236q4u6tw/wAOmI5868jLqp+COrYnvcvhBlv+rH92f7ne+DJOTjlDc9M6Ou6b9ymNy8Sdv6ba9rzjHsXtbucuXfEdpNv1xzaHtPgrwT2LfxtRztKzN8atR1ZivNqpy8CL3ppxaYi3MeqqKnMxmmeWYePw1bqf0ZreXXquXiYPwu4X7340ZuLqF/HyttbCiqjtcuunqVV2Iq9tbxKZ/wBJX6/xY8/KJq/bOi7d4ebY0zaW1dPt6do9imIpiO+7Vd5e2uXKvfV1T3zLsKKLVi1asWLVuxYpiiKaaY7OzFqI5RFNMd0Q5VhnukeIzavVPFRHJDs4bCUWOTlc+POUYcadSubl49cTc+uvtKbeXlY9P8mLGFyxIiPV+B5/TKzkKbruXM3f29su71YuV5u5ZnlHVp685VyZ5ervSP7PbUTfuV++IhqZvOqiIdcoHojaRRGFxB4gZGPTN2qvTcSzV76LVFPsjJpifXNeL/sJ+VR0XLVOPwJnIiaetdz9w1z3dT20UWLUc/T3W4SzTS/NrK6oj3zENHLadd5qgCjklAAYr0stLs5/D7Z276LcRnYuXeszVEcqvudl2Kqp60+PKK8a3y/rymyO5WnSUot3ejzua5XT1qqL+16qfGnlc9l0UT/urq/WkuO9dmg16bmWRE+6Zj/n90czONV53Wxc+5tnihw81+3d7Kmxnberq8Or7FjIo7SJ593KaZqjv8plckeCBLFd7GzcHIx4pqvU12Kojx/CUzzj/wBy+ke+0SiIrtV9v8NvKJ/DVD59XwsHcmhazt3U7fa6dlWdQs3I7p54V63Vbrj9VUoS1bCzdta7rW3dSo7PUsW9qNm5HfHLKs3KrdUd/rple/ikrpJaLG0+OOq6nYtRbwNStaflU8o5W/ZUxNm/HPzq7SzXVPxkMH2f43cX68PV741/2es2t66IqZrMc+S2uGGrffxwe4dbnm5N69dxNPpuT489Vx4nGyJ/tbNxEymOijq9ercNdz7Pv3Zu5GBlU10+rTMyiaqaf7SzkT9KQ6d4P02Ai7H+Wf8An8NPK69zd3M+9svlKMuNmtRvnjnv3U7Nc14Nm97Gtd812vYuHTGPM0+qa7dyr9KVb7x1ezsLYG8N43erVOJjancpie63Vm0257Gj6bk0R9KF7ld2/XXfv1zcvVTXMzPfV2lU85mfpcX7PcFrquYmfdxR/P8ADaza5qiKHtOB2i/fxx32HgXbPbYGPcqyrvnb9jYcdtR1vVNym1T+k9V0q9Gp0Titou7LFrqY2o4tnrT4TOrYkxZr/VanFeh6I2jcqOIPETJse0n7n4dmru58omMnJp5/sj0fSk0anXuD2Hue1a62bpuVhVdbx5aVlf5vcj6blWN/sujic63OkdNrX+GI3P8Af/kMNGH14SZ+aXZjmszgrq/35cCuHepXLkXMu1j28e553PZGHXVjRNXrmm1TV+kjOI6vNRnRJ1acram/Nj3rsTVjZGHk24nvr9j5Vqbdzl6oqxqP9tvac4T02XekjlpnWx5bXubur4tyRNxS1b79OMnEbcVFycjHry8+i3V3dWdLx5jHsTH/AEdqhX++dW+8bhpvrdsXOyvY2JqtdufD/lTs5psR9NyqiPpQ1MzXVVVVMzV+uebh/Z5g9fpMRPZ/v/DZza5xRS/VNNy9ds2LNuq7eqmiKYjvuTcmeUREecrm2ZpFnYXD/aGzbPZf5njadaq6vfbnPpoib1f6Vc11fSk7gfo1O9+OuxMDItdpp+PcryrvdFVrscOO2oir1Tci1T+kseIiIimmO54+0LHa6reGj3cc/wAfy/cpt8U1ufT9CJuKmo3N3cZ+JeuXLnaUVZuq26J7qv8Ak7Gr9jWfD/UtULZQVqtdy/uDXr12ubl2q/qUzPvpuTcmZl4+zyiJvXa/fEQ/c2q1UxD5er62+cAt88DOEfCzI0nd286NH3TkZWp3btHsXUc65FiKaLNmntLVmaZjq2+t3TP48sFcTHNYma5ZbzOx6C7MxH6ORYv1Wat1Cvf4ZujZ/SVT+xav/wB3c/wy9Gz+kqn9i1f/ALukARb/AKf5b/VV/eP9m7vpe+ELA/hl6Nn9JVP7Fq//AHdn3H3iBwU4pcKLe3dnbzjWtfozNHvUW/YuoYHtKKL1uurr3rNNMcqbtXmwAbeC0LwODv03rdVWuP1j/Z4uZjdrpmmYhzy9b3fAPKnSekPw6udbq27tesWao75omm/hX7dMT+lVR+p4N6/gv7vvC75XY+rrd/NoirA3Yn+mfo1cPztPas90PEf3G+LPzTv39333fz5Og4j+43xZ+ad+/u++oLLPztv90fVKr3Nyh8nwB9F69VGv9EQ96uOjpolvZ/AvQM6uz2ep6jXnZV2ZiO17KuubePHP+T2Vu1Vy8uvLRnS7BtW8XhTw0x7MdW3TpuzYj+rGDZ/3u75et87Zxfqv465cq98yluHp3NuIcAOazAAAAAAMI6Xn5F4UfHbp+rxU8eUKH6Xn5F4UfHbp+rxU8eUL00M9k0fP6ozmX5iXe8P9v2+KPEja+w72qXNFs5dWXTN2miM25T1LFy7ExRMxz/0fLx821f5OWjf0rap+x2/8ZmHAX+MPw1+N1b7FkLGcDTHPMbl+Lpt4evVExrbWX4W3dtzNUMFu9HDTa7c04/FvOs3PTVg05FvqeccoyIdJrHR44iYNu5d2rvTa25OXW9pcpvbezZ7u6KY9vTz+GqFKkdyK2dNM1tzrmvX2xDeqy6xPuQvuXbm+OGep1aRvrbWobczfb9XrxFzErojxqs3aedFynvjvpmXUzPOe5c28dt7X4q7S1LZ+7MGnKwbsVdSvlHs21nxHtL9mqfxa4/3+E84mYmKNxaTqOxt2bh2fq3L7oYd/Os1zHtbVVduuaYrp/wBWY5THqlZejekVOb25iqNVccrj4zCzYni5HacPd5bw4K7qsbi2xlV14lU2oyMaqZp0y/gRz9pcjyqjnPKrxiZ+GJsna2t6HxH2foW9NuX+30nKoiqnn3X6bkTNNy3XHlVTXTXTPrpQmoDola5k11754a5F3r41NOPmWKece1qmunHyuXnymasX4OU+lytNslt38NOKoj8VPL+sM2W4maa/RzyS35z6XDn0qgo9aEg9yIeJfu08Xfnbff7wvPPPQ8S/dp4u/O2+/wB4Xnnn0lguYp7IQ+968qH6IX5D4p/G7S+ry27sI6IX5D4p/G7S+ry27qR0v9rXPl9Ejy/mIAEZboAAAAAAAAAAAAAAAAAAAAAAAAAAAAAAAAAAAAAAAAAAAAAAAAAAAAAAAAAAACFwF7IqugBRKVAAAAAAAAAAAAAAAAAAAAAAAAAAAAAAAAAAAAAAAAAAAAAAAAAAAAAAAAAAAADCOl5z+4nCunnPV7bdk8ve9aLeLynl9M/rbuwjpefkbhV8bu36vESTRH2rb+f0aeP5iU8AL6RZ6Dhp7tXCP512J+8LC3/+KIOGnu1cI/nXYv7xsLf8lVfaHz1rsn+Hfyn1JTD0s/dk2r81aX+8NQY82HpZ+7JtX5q0v94agx5OtHPZtrshysbz1Q0fo2fxidp/Fbq+w3WcNH6Nn8YnafxW6vsN1lz32dd/bLzheep7Vbo448fxh+Jnx2l/YcdY6OOPH8YfiZ8dpf2HHVt9n356v9v8w7Oa81Ha8QAt9Hm39Eb89eIvyTSftKj04dEb89eIvyTSftKj1I6Y+15+SS5fzEIQ3J+ee7Ple4PtNx1/vnYbk/PPdnyvcH2m46/3y5sLzNPZCPXPWlypfole5jvf5yu/Y8dNCl+iV7mO9/nK79jx0a019lV/L6tzLeehs4CjklAAAGS168drzVyII1L8t6v8dqP1lSkOiR7l28/nCv7Hjpv1L8t6v8dqP1lSkOiR7l28/nCv7Hjrm0s9iz8nAy/8w2cBSqQgAAAAAAAAACUOk77v2o/JNtfV1KvSh0nfd+1H5Jtr6upN9AfaU/tlzs05n5swbf0Rvz14i/JNM+0MQbf0Rvz14i/JNM+0LG0q9l3exx8Bz8KQ83DnzcKCSkAAAAQ5vzGq0binxJ0mq32XY6juyiI9tNPZ05l2KeUz3zHKI71xpN6SmiXNp8ctX1O3a6mm6lbwcmiYiep7K6sWb9Mz51dpaqq/ThYP2f4mmjFV2p/zR9HKzWiZoir4M1U30T821mcJtzaHNVMZeNqGVVMR3f5pkYuPNE/TVau/qTI07o5bsxuHXFOrQNYyaMXb+rUWLFVdU9njUa5RVNWJcr9XOq5R6u15z3RKdaVYKrF5bXTRyxx/2czAXIovRrVcOXChJjVOpKAAGV9KLMp07gZGnxXTFzKzdBt8ufVq7KiLuRM8vhs0/rhK7YulNufD3Pv3ROH2l3acjD0ujKm/y5dl98uR1Jmju7p6lui38E11x5MdXtohg6sLltMVRqmeNGMwubu9Op2G2cS5r2+NmaJZ63aZGZt+1HLur7S7k26KeXr5zC7EkdHXQr28uOm3s2q119O06nLy7k+UXrdPUx4+Hta7c/oyrj/ghf2g4mmvE0WY90fV0spomKJqn3uWK9LDRKdT2FtHfFi3NWRg5N61X3db/knMpjnVVPquWbUf9JLanQcRNEp4icLN9bPi3TdycjGzeyif51t8ruP/ANrbtIpkOM+54+3d/Xj+bexVv0lqYQ/He1rotav9w+MmZtu9c6uPqOJqNER4f8p40xk0T8PUovx+kybwmYdzsXVvvF4m7D3bVcm1YxcvSq7k/i/8mdpFN+Ofrt1Vx9K9M2w8YvA3LfxhGcPX6O7FSiOlPrUaFwi07almvq5ep5WLTMeEfcjFmnIuT9FyMb9aXPNrfSl1v74OL2FtSxe6+HpuNiUzHfVT91srlkXJ/s6seP0f1Z1svR7vEDiFszZtmK/87ytNt1THOqacCa4m9c5f6tEVz9DkaN4aMvyqKquLlqlnxtfpr/ErTgloc7F4GbE069Zizn37VWVd7urVOVl1Tepir1026rVP6Lvd6aRRvvh1vXaFVNFdzLxdVt0c/wASNRqtVTZq+iuKJ+h21um1j2bONj27dnHoimKaYiLduLMRERERHhHc/XpU5extdeOnExy7rXtSGm1EW4o/RAVUVW7ly1coqouUzVExPdVFUd0xMenxab0adW+9zjtpumXbnZ4moY+sY88/9H7IimMm13emaseKY/r+t57jHo8bI44cQ9Gt2+yw6si5ftRERTb9gZdNOTRFPqjtZp/RdFtrU72zd6bT3Zj8+1xMnSb3oiabV6muaZ9UxEx9K9cTTTmOWTq/zU/wjNE+ivdkqW6UmrRonBW1t21d6mTqOVpluY76f+TbHPJuVfRXbsf7SWPLn5tl6Vmt2Nf35snbOBk05On4uFF7nE9a3OXn1xV9XZsT+kxrz/W0NE8H9zy2mJ5Z1yyY+76S6oHok6LVFrf3ES/a9pVOJh2avOYjlkZMfB34v6m/R4vGcFdEnYXA3Yek3bUWs67Zpybvd1Lns3Mnt+VXd4001UU/oPZx4ql0kxv3vMblfuidUfJ3sHb9HZiDyj6UJblxqtG3tvHSrlE27tnM3BbmPGYrtZNyjl/uXb6Ud8fNHu7R4+b4p7KaMPMrx8u1P4sVWsqmK7tUR8d29P6KT/Z7finEXLc8sx9P/rSzWnXREvDN34K8L+DvFnhJpe7Ny4us5GvdtrVq72eRXi40V2rvtIimI7vaVW5+lhDduihubFwc3dPCnVczsa8iqnKxInlFNWdRbi3k249NU0UWauXot1ptpV95pwFVzDVTFVPHxObgdxN2Ire3/gJ4A/zbuX9quf3H8BPAH+bdy/tVz+5p4p7hDmX+rP8AdIfuln+lmH8BPAH+bdy/tVz+4/gJ4A/zbuX9quf3NPDhFmX+rP8Ac+6Wf6WYfwE8Af5t3L+1V/3Pv29wg4MbE3Po27tAwNft6zi3Ldy3NeRXkY/bxExHWpmO+O9oA815/mFdM01XZ1T+r9jC2o49y5dBxH9xviz8079/d993zoeI/uN8Wfmnfv7vvtfK/wA7b/dH1er3Nyh8/wCAf8H0XPN/JEP8y59ke5jw5+bto/Y7Tt3UbI9zHhz83bR+x2nbvm/H/ma+2Uwt+pAA1XsAAAAABhHS8/IvCj47dP1eKnjyhQ/S8/IvCj47dP1eKnjyhemhnsmj5/VGcy/MS9xwF/jD8NfjdX+xZCxkc8Bf4w/DX43VvsWQsZCftB/PUft/mXTyrmp7QBAXTEg9IinGs9I7iDGPV7afvWmqPCiMmdMxZnl8PdPwzKs9Z1HR9o6Bq+59fzLen6NjW79y7XPdTGPRHl6ap7oiPOZiER7z1rJ4i7+3ZvfKt1WqszIzblNM/jU4Mzys25/q0RRH0LF+z7C3PvFd/wDy6tTk5rXG4il0/P1NW6Lty/a47xatU1dlXg6/TXPturGNFVmvnPL/AFqaI+llLbeiXpd/P31vjd9dqr2FjYuPjxMxMW/Z+Vfpr5xPnypxqv8Abj1J5pLcpt5Zdmr4OXg6dd6nUpJz6TzPSoCj14SqeREPEv3aeLvztvv94XnnnoeJfu08Xfnbff7wvPPPpLBcxT2Qh9715UP0QvyHxT+N2l9Xlt3YR0QvyHxT+N2l9Xlt3Ujpf7WufL6JHl/MQAIy3QAAAAAAAAAAAAAAAAAAAAAAAAAAAAAAAAAAAAAAAAAAAAAAAAAAAAAAAAAAAELgL2RVdACiUqAAAAAAAAAAAAAAAAAAAAAAAAAAAAAAAAAAAAAAAAAAAAAAAAAAAAAAAAAAAAGEdLz8jcKvjd2/V4jd2EdLz8jcKvjd2/V4iSaI+1bfz+jTx/MSngBfSLPQcNPdp4R/O2xf3hYW+iDhp7tPCPl/O2xf3hYW+qn7Q+dtdku/lPq1Jh6WfuybV+atL/eGoMebD0s/dk2r81aX+8NQY8nejns212Q5WN56oaP0bP4xO0/it1fYbrOGj9Gz+MTtP4rdX2G6y577Ou/tl5wvPU9qt0cceP4w/Ez47S/sOOsdHHHj+MPxM+O0v7Djq2+z789X+3+YdnNeajteIAW+jzb+iN+evEX5JpP2lR6cOiN+evEX5JpP2lR6kdMfa8/JJcv5iEIbk/PPdnyvcH2m46/3zsNyfnnuz5XuD7Tcdf75c2F5mnshHrnrS5Uv0Svcx3v85XfseOmhS/RK9zHe/wA5XfseOjWmvsqv5fVuZbz0NnAUckoAAAyWvXjteauRBGpflvV/jtR+sqUh0SPcu3n84V/Y8dN+pflvV/jtR+sqUh0SPcu3n84V/Y8dc2lnsWfk4GX/AJhs4ClUhAAAAAAAAAAEodJ33ftR+Sba+rqVelDpO+79qPyTbX1dSb6A+0p/bLnZpzPzZg2/ojfnrxE+SaZ9oYg2/ojfnrxE+SaZ9oWNpV7Lu9jj4Dn4UeAoJKQAAAHLOOP+y7/FrhpXmaHi+yN4adOTesREc8i5gTTHsnGp9NVUU0zEec24jzaMNzL8bcwOIpv2+WGO7bi7RNMoCiJpmqJiYnu9U83KgeOnCLO1HM1Lidwp06MrKr7SvLwLdPUv1ZHjXkYlER7aqe+aqPGZmZjnz5J+qiu3XXau0V2rsTVExMdS5FceMTHpX5lObYfM7EXLc9sfBF71iqzVqqbxwm434ej6ZgbM4zXc67Rbimm1qMRVqF72NHhTmUR7arlHv6ecz5x41TuWka/sfd+Nay9q7u25r9irw7K/Zyb/AD9E0RPOmfVKFJjn58v97jujz5f7kfzTQjCYy5Ny3O4mf7Nuxmdy3G5q4156jqu2tuWbuTuHcOhaFjU+NV+9Z023FPlzmuY5Mg4occtr6Dpmobc4Q5VG4tyV03afZnVqo0GzEx1ZrtdaIm/ciOfL3vPlPtvBNnj76XEx3R3sOX6CYXDXIuXat3q+UP29mldcaqY1P3kXsvUMvJz8/Iv5mdcqu1V11zN7Kqyq6pqqrrqnvmqZnxcOLdF/IuW7GNZuZF+qaIpppibt6b9U8qaaYjxmVD8DOEORo2Tp/EzitptFGo09lXh4Vcda5bvxMTTkZVP/AJyO7lR5d0z390SXNM2w+V4ea7k9kNOxYrv16oeu6P8Asm/wl4czqGu41eNvPUpxbuRTVHUv28CmmfY+PMeVURXVVMeU1zHk0j/eeAoXMMbcx2Iqv3OWUptWotURTA58ocDTidU63tFvGDRI2Bxs4gaJZtRa0+rIuX7MR3WfuXl0xk26afVT2vV/ReUmOfqbv0ttE7DVNg8QcTHmabtGdiXqoiKaIv2qpv4/P0zNNy/HwW4YS+g8gxn33L7dyfhqn5cSKYu36O9MQ+7cmq5O9N06xuTLm5N+/XE+2ntLvYU0U0URM/1aaY+hp/RW0WNc4r6xu6/a6+NpmNdmme+eWsZfWs0f9lGUyHl61T9F/RPvb4M/fHkWYt5up5Gddie+m59yrMzj2qZj+tbvT8Fbn6WYqMFldVNPFr4o/wCdjLgLfpL0TLVgFFpMnPpb6PThbo2Hvqxap5ZNjPxrvLnH+dYtcXLdVXrmm/VH6DDOfW9St+kho8bq4Ca9l27faZmBd0rKo5cpu9lTVNm9yn0Rbv3Kv0Ej8uS8dDMZ95yymmeWniRrMKNxe1/F2m5NVyt5a5a1rMrqrvRjbQszz7qutiabjYkz8EzYmfpfRsXRrnEDiVsnZ1umqbeVk6fRcmO+7TpnW61+uPgt03J+h0rZOilon3Y4lbi3pk2ZqxdOxurRPo1rMqm3RMT5/greTH6UOvm2JpwGX11xxao4v4YMPTN27EKaopt2rVNq1RTbtxyiIjupi35Q/QPnqqZqmZlLHDGelBtK/uzZemcR9Hw5ydU0ztKciKY616ra1yqJ688u+Yt18p9UXK5nwbK4uW8fMx8jFy7NGRjV03aaqauVyxNmqJpqpqpnumJiZhv5RmFeX4qm/R7uViv2YvUTTKBH9sHM1TQNU0/WtFzsnTNVsV2Llu5RM2cinLomKqaqZjz5w0zjbwr1PhTqedvHZWHk6pw4u1V1TFPWv5GJeqq/0V3zmzzmOrX9E9/KassiefPu5f8AuX5g8bYzCxFy3OuJRW5ars16pU1w0437M3VgYeh8VMq1tHdlMWaJyJiY2xeuxHKbk1x/4vVPnFXKn0T5NdwszSNbw7eoaJqumazg1cuVyzct6jizTy591dEzCB+X+s/pZv5+n3IvYGfmYF7u9tbrqxr3dMT4x8EIjmOgmGxFc3LFW41+7lhv2czrojVVGtfTodxb04V8PrF29uzfm29LuRz/AAfa052rTMR38se3zrn9SKr+qbl1C3NnUNxa9n2eVccrl+9lW+rMcp7qqnyzHP1NLD/Z5RFWu7d1x+kMtWbT/lhvHEHj7l6hYydC4Oabf0uxVyirOyKafun1PTj4/fTR5+2qmfH8WJ7276BXey9p7Yy8m9cv5NeLoVVVUzNy5N6rHoqqqmZ8ZmZlCFMd/KO+ruXftyK7eztpUV01UVRiaDExPtautGNbiYmPKXO0xyrC5dh7VuxTq5dfxlny+/Xerman3Oh4j+43xZ+ad+/u++750PEf3HOLPzTv39330Myv85b/AHR9XQvc3KHz/gH/AAfRc838kQ/zLn2R7mPDn5u2j9jtO3dRsj3MeHPzdtH7Hadu+b8f+Zr7ZTG36kADVegAAAAAGEdLz8i8KPjt0/V4qePKFD9Lz8i8Kfjt0/V4qePKF6aGeyaPn9UZzL8xL1HCfWNB2Dxi2Tu7c2Tcw9Bx69Qm7XTTXl3It1Yt23HKimOtPfXHgo/+G7o7R/8Ai7Uv2PN/+hJMeBy9bYzfRrC5rdi7emdcRq4njD42uxTuaVbfw3dHb/8AV2o/seb/APQ6bWekDwn03HrjbWgbt3NqHtuVNVNrQdO8PfXaqqqo8veSmLl6zk51rQXLaKtc657ZZpzS9PI9nxI4l8QuNt+jF1nIsaRtWirrW8Kz1rem9vHdFy7VPtrtfrnujnPKI5y8XPKeXc55et2m2tub04k6xRoeydvZ+vZ/4PrdSOriUWpnlFV67PtbdPrqmEmt2sNl9nc0xFNMNOqqu9Vx8cuvwsbUNZ1LB0jSsPIz9SvV2aLduimb+TVl1zFNNFNMeMzMwsvhFtC3wX4ZaVtrJ7Ovcd2ar+ZVHK5E65dppiaIq86aKaaKY9PVmfN0XB3hRonBmi1ufcd3G3FxFqp5RdiJnTseiqmYrt43W75qmKuU1zETMd0REc+em+Pf4qq0u0mpx8/dsPP4I5Z+LuYDBzajd1cr8ufS4c+lBbfrQ6fuRDxL92ni787b7/eF5556HiX7tPF35233+8Lzzz6SwXMU9kIfe9eVD9EL8h8U/jdpfV5bd2EdEL8h8U/jdpfV5bd1I6X+1rny+iR5fzEACMt0AAAAAAAAAAAAAAAAAAAAAAAAAAAAAAAAAAAAAAAAAAAAAAAAAAAAAAAAAAABC4C9kVXQAolKgAAAAAAAAAAAAAAAAAAAAAAAAAAAAAAAAAAAAAAAAAAAAAAAAAAAAAAAAAAABjXSv0nL1bhrtXdGNaqvWcHLuU3eUTVTGDl2+rFdU+VPaWrVPw1w2V8+p4Gkbp0XVdu6/gWdT0XIt37d23VHO1VjVxymPTE+uO+PF0snx33DGUX590sOIteltzQgkbFvzgPxC2/qmXncL+w3ptqqZmi3VXa0zctFHf7S5FcxRc5d0c6Z5zy8Iea0jhB0gNxZtrF+8W/olmZo61zJuWNNxKaJ99Mdaa6o/qxMrzs5/l9216SLsf3RqrCXaatzqfBwb0zUd08dOGeHptuquqzmaTk3J5TVap07DuRk3Jqny7rXL4aoWj5PBcI+G2g8CdLycq7l0a9vfIos038nq9jjxixMz7Hx6Z76bfPlzme+qaYnu5REe9/4qn0tzm3mWLj0Xq08Xa72Bw82bf4uWUw9LP3ZNq/NWl/vDUGPNh6Wfdxk2rz/AJq0v94agx5a2jns212Q4ON56oaP0bP4xO0/it1fYbrOGj9Gz+MTtP4rdX2G6y577Ou/tl5wvPU9qt0cceP4w/Ez47S/sOOsdHHHj+MPxM+O0v7Djq2+z789X+3+YdnNeajteIAW+jzb+iN+evEX5JpP2lR6cOiN+evET5LpH2lR6kdMfa8/JJcv5iEIbk/PPdnyvcH2m46/3zsNyfnnuz5XuD7Tcdf75c2F5mnshHrnrS5Uv0Svcx3v85XfseOmhS/RK9zHe/zld+x46Naa+yq/l9W5lvPQ2cBRySgAADJa9eO15q5EEal+W9X+O1H6ypSHRJ9y/efzhX9jx036l+W9Y+O1L6ypSHRJ9y7efzhV9jx1zaWexZ+TgYCf/wAhs4ClUhAAAAAAAAAAGR8U+Dudxo4h5O+MffmHt+iqzplvsqsarUa4mzEx1uvFyI7+foa45b+XZliMuu+lsTqnkYrtmi7Tuak8f5OOrf0r6Z+xXP8AGe74PcL8zgJrm5NXyd44u5qcqzjW+rTYq0yaaqLnX60zNdXNpne4dPGaU5jjLM2bteumf0hhowVm3VuqYAEdbYAAAAAA8Vvzhhwo4v139Q1rR7uj7kq5/wCd40xgarNzlPKbscpou+Pvo58o5RMPajawmNv4Svd2apiXiu3TXGqqE26/0et9YFzJvbJ3pt3cOHHOYpyIu6BqfKfCmOrFdM1evnTz5PMZHBXpG4tyaLWx8TPp53I61Gbp1Fvunlz/AAl2meX0K5fpK7GneZW41Vaqu2P9mjVllmqdaRcXgp0i8y7Nu/srC02nu9tczNPuW/8As7lUvU6B0eN5Zt6zd3xvnbug4c8udONRe17UJp8Jpma4oppnx/lKRnvfmY8O9+X9O8yuxMU6qeyCnLLMPG7F4Z8KOD8283buhzqO4oin/PMmadS1qPHn2fdFFrxn8SInv75l7KO4EUxWNv4uvd3qpmW9RbptxqpgAaz2AA8txS2hj8bOHmZsm5qNrR8vtdNu2b1VE5tFGdaq5TPZ9aOtzoru0+PvubIv8nLWaf8A81NM/Y7kf/OUM573dy/SPH5fa9FYq1R2Na7hLV2rdVQnn/Jy1nn38VNM/Y6/8Zu23NLw9lbQ2xtLB6tWLh42lWIq5dSaptW4omuY9MzEz9LsHDFmefY3MqYoxFWuIftrC27M66IAHHbD5dZwMPdG3de21qEc8DLsapYueFVXsa/aqt1THPz5VSwP/Jx1nn3cU9PiO/8A8iuf4yhn6djLc9xuW0zTh6tUSwXsNbvcdcJ3/wAnHWf6U9P/AGK5/jNT4R7Fx+A2z9R2991rOv6jkZF69cvU25wImiLVFu3b6vWnup6tU+Pv5e1cT5M2O0kzDHWZs3qtdPZDzawdm1VuqYcAOC2Ry4AK6bd61esXaKblmqKoqpnlXam1PdMTHn3c2Vb24G8L985GTq+1Mi/w61muZmYs0U5m25uzzmapxZmOp8FFVMepqo38DmeKwFW6sVzDFds0XY1VQlvV+AfGrSrlydEytpbpxu/lNu9Vp2X1efd1qLtMUxPwVS6ergz0kaKpp/g7pq/9d0jq/aFeCU2tPcxojVMUz/ztaVWV2ZSXh8EekLnV26cnbOjaNRPPnN3MxK6Y9ty74tVVT6+7/g9Ro3R13RkVWru9+IGi6TZjvmjFtXdcyPVT17nUiJ9fKeXrUY/Xj58mK/p1mV2NVOqnsh6py2zS8NsrhZwd4V3LOoaTt+dd3BT1OWVmTTrGfTeiefWtUcot2p9dNMT63uY7nHL1nL1otisdfxde7vVTM/q3aLdNuNVMOHX7l06vd+y937Tt5VODczcPcGPFyY7eiivJxq7MVzTzjnEdfny9TseXrOXrYbV2q1XFynljjeqo3UapTx/k46v/AEq6Z+xXP8Y/ycdY5xz4q6bP/qVz/GUP3iT8M811at3shpb32Pg+LQsKrbe1ttbdrv05deLjaPZmuI7KmqqxYot9aKfLn1efJ9gIvcuVXK5rq5Zb1Mao1QAPAAAAAAA8Dxj4e5XH3C2jh426MfbPsKvVqpmqzOqdbtqbMRERFdPLl2c/rZvPRx1nnP8A4U9N8/8AyKv/ABlDP13u/gdJswwNmLNmrVTH6Q1bmDs3Kt1VHGnb/Jx1r+lPTf2Kv/GP8nHWv6U9N/Yq/wDGUR3ne3OGmbf17IY97sP8E7/5OOtf0p6b+xV/4z6cXo40R1KtT4tzMe25028CI9r/AF6sj/4N/wC9w/KtM82n/wDpsh+73Yf4Ms2/wI4Jbdrs39co3DvfIjxjIuxh6b2vjzi1ZimeXh3TMtI0nTNu7T061pG2ND0vQNLp5crdm3Rg43W5cutMUx31cojvnvl9Y42MzbGYznq5lsW7Fu36sADnMo57u/6HAROqdcDCt0cBNV3nvjeW7rXErTdPt5uZr+TFucWvIrooyciu9FE1drHPl1+XP1Ot/wAnHWf6VdK/Y6/8ZQ8d3m570pt6Y5rRTFMV8n6Q0py+xM69TwHBvh5mcAcHdmHl7nx9zezKtHqiabNWlxT2NN6JiYmurnz7WP1PfA4GNxl3G3pvXp11S27dum3TuaQBqvQAAAAAAAAAAAAAAAAAAAAAAAAAAAAAAAAAAAAAAAAAAAAAAAAAAAAAAAAAAACFwF7IqugBRKVAAAAAAAAAAAAAAAAAAAAAAAAAAAAAAAAAAAAAAAAAAAAAAAAAAAAAAAAAAAAAADn6HAa5AAGKdKXaGp7p2/oXE3QcTIzsrT6Mm1lU0RVfyPverr7Si91Y97RVNzn6rnPwiU1v9AJpt3qKrdymK7U84mPxqZpnumJ9TLt18DeD289Qv6vo06tsPOrmZqpxZt1aJNyZ5zMY9dM9T4KJpj1LH0Z0vs4OxGGxXJHJLk43ATcq3dCUW8dFXaWozq2s8XtXwqrGmU28jHwutEfhMuuuPZF+jz6tNNHU5+c11fyZet29wD4Qbb1C1qWvZ+4d6XKZiYt3arenaNMx4dpbtxFVfl77l6YlquLYwtMwsXTtOw8bBwLdNqmiiimnGxacemIpppoojuppiIjuhm0j0xsYnDzh8Jx6+WXjB5dVRXu6/c/ojjjx/GH4mfHaX9hx1jo448fxh+Jnxul/YcdofZ9+er/b/MMua81Ha8QAuBHm39Eb89eInyTSftKj04dEb88+I1X/AO00n7T/AMFHqR0xn/8AcVfJJcv5iEIbk/PPdnyvcH2m46/3zsNyfnnuz5XuD7Tcdf75c2F5mnshHrnrS5Uv0Svcx3v85XfseOmhS/RK9zHe/wA5XfseOjWmvsqv5fVuZbz0NneJ4jcTOHnBDLwNJ3BRq2sbgu0RXGPjU2r+RRiTPKmu9VXXEUxPKrlHfPd4PbJk6S+0d8WOJ2qcScPStT1vamVa0aZu26K8uxYyLGPbx6rV7qxPZxPZxXznunrz5xKr9GcBhcdjPR4mdUav7y7WMu12reuhq+2eM/Aret23iXtxX9m589X2mdTGl4/acu/8PTNVuI5/yqoaBjZGBqmLZz9LzsPUsCuOdNy3XTl4tVHpprpmYmECRHV/++TtNC13eexc37obP3Tru3MvnTzmzduYVuqI8IuUUzyrj1TEwm+O0AsXI3WFr1dvG5trNKqeKuF1uj33uTReFGw9e3jrWRatxbouRZomYi7d1yqmYs2KI8ZmZ8fREVT5Juw+OvHrAwKMPJzNravkxEx213Fi3m8/KZi1VTTz+h4ndm69/wDFfU7eq763Jma1fo5xbo5UYmmW7c8ucWrNERTTPdHOYjnPKOfNzcv0DxNOIicRVG5ifd72e7mlE06qY43S11XL92u9dq612qa5mfOblXfMqn6LenZOjcD7mq5Vrs6s7N1m9RPf34Fui1ixP+3YvJ54fbS3Fxj3vp20dBtVUWp5VZF+aarmHY0aKoi5ermPPlPKI85mI81o6Jpul7Q27ou19Fs+x9JxbWJatx41+x7dMUxNU+dU8ucz5zMunp3mVu3hqcHRPHPL2Qw5Zama5uPrAVM7gAAAAAAAAAAAAAAAAAAAAAAAAAAAAAAAAAAAAAAAAAAAAAAAAAAAAAAAAAAAAAAAAAAAAAAAAAAAAAAAAAAAAAAAAAAAAAAAAAAAAAAAAAAAAAAAAAAAAAAAAAAAAAAAAAAAAAAAAAAAAAAAAAAACFwF7IqugBRKVAAAAAAAAAAAAAAAAAAAAAAAAAAAAAAAAAAAAAAAAAAAAAAAAAAAAAAAAAAAAAAAAAAAAAACcelJs7VMLcuNxi0bCu5eiZNGDazJpiq52eq2aKbNm7c9FFdum3Tz9NHrhRz8ZFrFzsXIwc7Fxs7CuU3aa6LlNOViVY9UcqqK6J7qqZjyl2MjzevKsVF+mNcckx+jXxNiL1G5QJ5Hfz9asda4F8Cdy6le1HFxdz7TiuZmbeHftWdP7WZmZ5UX7dfVjvnujlHo5Ow2hwj4LcNdSx9a0/RM3cOtW5oqt3sy5Tql2i/E84qot00024q5xExPV5xy7phZ1zTvARa3VMTuvg4sZXd16pdR0bdm6nw34f6luXcmLXg7i1WdPr7OY7LKt7ftU1zYpqie+mqqbldXL0TTz747tV5et+nCqsdj7mPxc4i5yzLuWrUWqIohB25e7ee7Ple4PtNx1/vnZ7rt38Tfe9MPJt1WcijN3LTVTPdci/TlXImJj0us98+hcLzFHZCKXPWlypfole5jvf5xufq9h46aFOdE3HycfhJufPu0dSzd1HL6nj1pi3h40VVfBznl9EozptOrK6u2G7lkf40Nk8u5x3+g7xSETqnXCSPKbm4ecG+ItN2rc2xNFrzaut+Gs0/cLV+2nn7abtnlNc9/vubLty9HbFrm7k8Nt91409/KznUdrZ8uX+c2aecefvJ8m+fQfQ7eB0izDBcVu5Or4Txta5hLVzlhJmRwO6QmNfqtWNA0DULXf7ejMxrdme+Y7ouTFXl6HottdHreGfl2L3ETd2iaBpfd1reL19a1maeffRNVUU0W/wCtHW+BSP0Dr3tOcyuUbmNUfJr05ZZidbpdo7W2Two2/a23sjR7Ol4XtZrqn8Pqd3KiOXaX7s99dXj6o8oiO53LlwiN+/cv1zXcnXMt+mmKY1QAMT0AAAAAAAAAAAAAAAAAAAAAAAAAAAAAAAAAAAAAAAAAAAAAAAAAAAAAAAAAAAAAAAAAAAAAAAAAAAAAAAAAAAAAAAAAAAAAAAAAAAAAAAAAAAAAAAAAAAAAAAAAAAAAAAAAAAAAAAAAAAAAAAAAAAAhcBeyKroAUSlQAAAAAAAAAAAAAAAAAAAAAAAAAAAAAAAAAAAAAAAAAAAAAAAAAAAAAAAAAAAAAAAAAAAAAAAAAAACeOkLwx3Bf3JqXFvh/pF/VtPvxRVnWLUTfzredTTEVZVFuO+uiqI51cucxMTPhPdhNdNVquqi5TVTVHP1TzX86nP21w63BlTn6/sLZeu58zzm5fw8TU8rr+nr10TPNYOT6cV4WxFnEU7qI5JhysRlkXKt1TOpGuyNob34v7gsaBs7SruTHO32t+qKrGjWcWZ77l+7y5RHLyjnM+USsjZm39G4X7H0DY+hRNeFjUcprmOzvXM+uqa716qPKaq6qp5d/LnEeTtMXF03SMOzp+k4GFpen0Rypt2qKMPEij0U0UxERD+nL0T3OPpDpNdzbVREbmiPc2MJg6cPx+9wAizdAAAAAAAAAAAAAAAAAAAAAAAAAAAAAAAAAAAAAAAAAAAAAAAAAAAAAAAAAAAAAAAAAAAAAAAAAAAAAAAAAAAAAAAAAAAAAAAAAAAAAAAAAAAAAAAAAAAAAAAAAAAAAAAAAAAAAAAAAAAAAAAAAAAAAAAAAAAAQuAvZFV0AKJSoAAAAAAAAAAAAAAAAAAAAAAAAAAAAAAAAAAAAAAAAAAAAAAAAAAAAAAAAAAAAAAAAAAAAAAAAAAAAAAAAAAAAAAAAAAAAAAAAAAAAAAAAAAAAAAAAAAAAAAAAAAAAAAAAAAAAAAAAAAAAAAAAAAAAAAAAAAAAAAAAAAAAAAAAAAAAAAAAAAAAAAAAAAAAAAAAAAAAAAAAAAAAAAAAAAAAAAAAAAAAAAAAAAAAAAAAAAAAABC4C9kVXQAolKgAAAAAAAAAAAAAAAAAAAAAAAAAAAAAAAAAAAAAAAAAAAAAAAAAAAAAAAAAAAAAAAAAAAAAAAAAAAAAAAAAAAAAAAAAAAAAAAAAAAAAAAAAAAAAAAAAAAAAAAAAAAAAAAAAAAAAAAAAAAAAAAAAAAAAAAAAAAAAAAAAAAAAAAAAAAAAAAAAAAAAAAAAAAAAAAAAAAAAAAAAAAAAAAAAAAAAAAAAAAAAAAAAAAAAAAAAAAAAELgL2RVdACiUqAAAAAAAAAAAAAAAAAAAAAAAAAAAAAAAAAAAAAAAAAAAAAAAAAAAAAAAAAAAAAAAAAAAAAAAAAAAAAAAAAAAAAAAAAAAAAAAAAAAAAAAAAAAAAAAAAAAAAAAAAAAAAAAAAAAAAAAAAAAAAAAAAAAAAAAAAAAAAAAAAAAAAAAAAAAAAAAAAAAAAAAAAAAAAAAAAAAAAAAAAAAAAAAAAAAAAAAAAAAAAAAAAAAAAAAAAAAAAAQuAvZFV0AKJSoAAAAAAAAAAAAAAAAAAAAAAAAAAAAAAAAAAAAAAAAAAAAAAAAAAAAAAAAAAAAAAAAAAAAAAAAAAAAAAAAAAAAAAAAAAAAAAAAAAAAAAAAAAAAAAAAAAAAAAAAAAAAAAAAAAAAAAAAAAAAAAAAAAAAAAAAAAAAAAAAAAAAAAAAAAAAAAAAAAAAAAAAAAAAAAAAAAAAAAAAAAAAAAAAAAAAAAAAAAAAAAAAAAAAAAAAAAAAABC4C9kVXQAolKgAAAAAAAAAAAAAAAAAAAAAAAAAAAAAAAAAAAAAAAAAAAAAAAAAAAAAAAAAAAAAAAAAAAAAAAAAAAAAAAAAAAAAAAAAAAAAAAAAAAAAAAAAAAAAAAAAAAAAAAAAAAAAAAAAAAAAAAAAAAAAAAAAAAAAAAAAAAAAAAAAAAAAAAAAAAAAAAAAAAAAAAAAAAAAAAAAAAAAAAAAAAAAAAAAAAAAAAAAAAAAAAAAAAAAAAAAAAAAELgL2RVdACiUqAAAAAAAAAAAAAAAAAAAAAAAAAAAAAAAAAAAAAAAAAAAAAAAAAAAAAAAAAAAAAAAAAAAAAAAAAAAAAAAAAAAAAAAAAAAAAAAAAAAAAAAAAAAAAAAAAAAAAAAAAAAAAAAAAAAAAAAAAAAAAAAAAAAAAAAAAAAAAAAAAAAAAAAAAAAAAAAAAAAAAAAAAAAAAAAAAAAAAAAAAAAAAAAAAAAAAAAAAAAAAAAAAAAAAAAAAAAAAAQuAvZFV0AKJSoAAAAAAAAAAAAAAAAAAAAAAAAAAAAAAAAAAAAAAAAAAAAAAAAAAAAAAAAAAAAAAAAAAAAAAAAAAAAAAAAAAAAAAAAAAAAAAAAAAAAAAAAAAAAAAAAAAAAAAAAAAAAAAAAAAAAAAAAAAAAAAAAAAAAAAAAAAAAAAAAAAAAAAAAAAAAAAAAAAAAAAAAAAAAAAAAAAAAAAAAAAAAAAAAAAAAAAAAAAAAAAAAAAAAAAAAAAAAABC4C9kVXQAolKgAAAAAAAAAAAAAAAAAAAAAAAAAAAAAAAAAAAAAAAAAAAAAAAAAAAAAAAAAAAAAAAAAAAAAAAAAAAAAAAAAAAAAAAAAAAAAAAAAAAAAAAAAAAAAAAAAAAAAAAAAAAAAAAAAAAAAAAAAAAAAAAAAAAAAAAAAAAAAAAAAAAAAAAAAAAAAAAAAAAAAAAAAAAAAAAAAAAAAAAAAAAAAAAAAAAAAAAAAAAAAAAAAAAAAAAAAAAAAELgL2RVdACiUqAAAAAAAAAAAAAAAAAAAAAAAAAAAAAAAAAAAAAAAAAAAAAAAAAAAAAAAAAAAAAAAAAAAAAAAAAAAAAAAAAAAAAAAAAAAAAAAAAAAAAAAAAAAAAAAAAAAAAAAAAAAAAAAAAAAAAAAAAAAAAAAAAAAAAAAAAAAAAAAAAAAAAAAAAAAAAAAAAAAAAAAAAAAAAAAAAAAAAAAAAAAAAAAAAAAAAAAAAAAAAAAAAAAAAAAAAAAAAAQuAvZFV0AKJSoAAAAAAAAAAAAAAAAAAAAAAAAAAAAAAAAAAAAAAAAAAAAAAAAAAAAAAAAAAAAAAAAAAAAAAAAAAAAAAAAAAAAAAAAAAAAAAAAAAAAAAAAAAAAAAAAAAAAAAAAAAAAAAAAAAAAAAAAAAAAAAAAAAAAAAAAAAAAAAAAAAAAAAAAAAAAAAAAAAAAAAAAAAAAAAAAAAAAAAAAAAAAAAAAAAAAAAAAAAAAAAAAAAAAAAAAAAAAABC4C9kVXQAolKgAAAAAAAAAAAAAAAAAAAAAAAAAAAAAAAAAAAAAAAAAAAAAAAAAAAAAAAAAAAAAAAAAAAAAAAAAAAAAAAAAAAAAAAAAAAAAAAAAAAAAAAAAAAAAAAAAAAAAAAAAAAAAAAAAAAAAAAAAAAAAAAAAAAAAAAAAAAAAAAAAAAAAAAAAAAAAAAAAAAAAAAAAAAAAAAAAAAAAAAAAAAAAAAAAAAAAAAAAAAAAAAAAAAAAAAAAAAAAELgL2RVdACiUqAAAAAAAAAAAAAAAAAAAAAAAAAAAAAAAAAAAAAAAAAAAAAAAAAAAAAAAAAAAAAAAAAAAAAAAAAAAAAAAAAAAAAAAAAAAAAAAAAAAAAAAAAAAAAAAAAAAAAAAAAAAAAAAAAAAAAAAAAAAAAAAAAAAAAAAAAAAAAAAAAAAAAAAAAAAAAAAAAAAAAAAAAAAAAAAAAAAAAAAAAAAAAAAAAAAAAAAAAAAAAAAAAAAAAAAAAAAAAAQuAvZFV0AKJSoAAAAAAAAAAAAAAAAAAAAAAAAAAAAAAAAAAAAAAAAAAAAAAAAAAAAAAAAAAAAAAAAAAAAAAAAAAAAAAAAAAAAAAAAAAAAAAAAAAAAAAAAAAAAAAAAAAAAAAAAAAAAAAAAAAAAAAAAAAAAAAAAAAAAAAAAAAAAAAAAAAAAAAAAAAAAAAAAAAAAAAAAAAAAAAAAAAAAAAAAAAAAAAAAAAAAAAAAAAAAAAAAAAAAAAAAAAAAABC4C9kVXQAolKgAAAAAAAAAAAAAAAAAAAAAAAAAAAAAAAAAAAAAAAAAAAAAAAAAAAAAAAAAAAAAAAAAAAAAAAAAAAAAAAAAAAAAAAAAAAAAAAAAAAAAAAAAAAAAAAAAAAAAAAAAAAAAAAAAAAAAAAAAAAAAAAAAAAAAAAAAAAAAAAAAAAAAAAAAAAAAAAAAAAAAAAAAAAAAAAAAAAAAAAAAAAAAAAAAAAAAAAAAAAAAAAAAAAAAAAAAAAAAELgL2RVdACiUqAAAAAAAAAAAAAAAAAAAAAAAAAAAAAAAAAAAAAAAAAAAAAAAAAAAAAAAAAAAAAAAAAAAAAAAAAAAAAAAAAAAAAAAAAAAAAAAAAAAAAAAAAAAAAAAAAAAAAAAAAAAAAAAAAAAAAAAAAAAAAAAAAAAAAAAAAAAAAAAAAAAAAAAAAAAAAAAAAAAAAAAAAAAAAAAAAAAAAAAAAAAAAAAAAAAAAAAAAAAAAAAAAAAAAAAAAAAAAAQuAvZFV0AKJSoAAAAAAAAAAAAAAAAAAAAAAAAAAAAAAAAAAAAAAAAAAAAAAAAAAAAAAAAAAAAAAAAAAAAAAAAAAAAAAAAAAAAAAAAAAAAAAAAAAAAAAAAAAAAAAAAAAAAAAAAAAAAAAAAAAAAAAAAAAAAAAAAAAAAAAAAAAAAAAAAAAAAAAAAAAAAAAAAAAAAAAAAAAAAAAAAAAAAAAAAAAAAAAAAAAAAAAAAAAAAAAAAAAAAAAAAAAAAABC4C9kVXQAolKgAAAAAAAAAAAAAAAAAAAAAAAAAAAAAAAAAAAAAAAAAAAAAAAAAAAAAAAAAAAAAAAAAAAAAAAAAAAAAAAAAAAAAAAAAAAAAAAAAAAAAAAAAAAAAAAAAAAAAAAAAAAAAAAAAAAAAAAAAAAAAAAAAAAAAAAAAAAAAAAAAAAAAAAAAAAAAAAAAAAAAAAAAAAAAAAAAAAAAAAAAAAAAAAAAAAAAAAAAAAAAAAAAAAAAAAAAAAAAELgL2RVdACiUqAAAAAAAAAAAAAAAAAAAAAAAAAAAAAAAAAAAAAAAAAAAAAAAAAAAAAAAAAAAAAAAAAAAAAAAAAAAAAAAAAAAAAAAAAAAAAAAAAAAAAAAAAAAAAAAAAAAAAAAAAAAAAAAAAAAAAAAAAAAAAAAAAAAAAAAAAAAAAAAAAAAAAAAAAAAAAAAAAAAAAAAAAAAAAAAAAAAAAAAAAAAAAAAAAAAAAAAAAAAAAAAAAAAAAAAAAAAAAAQuAvZFV0AKJSoAAAAAAAAAAAAAAAAAAAAAAAAAAAAAAAAAAAAAAAAAAAAAAAAAAAAAAAAAAAAAAAAAAAAAAAAAAAAAAAAAAAAAAAAAAAAAAAAAAAAAAAAAAAAAAAAAAAAAAAAAAAAAAAAAAAAAAAAAAAAAAAAAAAAAAAAAAAAAAAAAAAAAAAAAAAAAAAAAAAAAAAAAAAAAAAAAAAAAAAAAAAAAAAAAAAAAAAAAAAAAAAAAAAAAAAAAAAAABC4C9kVXQAolKgAAAAAAAAAAAAAAAAAAAAAAAAAAAAAAAAAAAAAAAAAAAAAAAAAAAAAAAAAAAAAAAAAAAAAAAAAAAAAAAAAAAAAAAAAAAAAAAAAAAAAAAAAAAAAAAAAAAAAAAAAAAAAAAAAAAAAAAAAAAAAAAAAAAAAAAAAAAAAAAAAAAAAAAAAAAAAAAAAAAAAAAAAAAAAAAAAAAAAAAAAAAAAAAAAAAAAAAAAAAAAAAAAAAAAAAAAAAAAELgL2RVdACiUqAAAAAAAAAAAAAAAAAAAAAAAAAAAAAAAAAAAAAAAAAAAAAAAAAAAAAAAAAAAAAAAAAAAAAAAAAAAAAAAAAAAAAAAAAAAAAAAAAAAAAAAAAAAAAAAAAAAAAAAAAAAAAAAAAAAAAAAAAAAAAAAAAAAAAAAAAAAAAAAAAAAAAAAAAAAAAAAAAAAAAAAAAAAAAAAAAAAAAAAAAAAAAAAAAAAAAAAAAAAAAAAAAAAAAAAAAAAAAAQuAvZFV0AKJSoAAAAAAAAAAAAAAAAAAAAAAAAAAAAAAAAAAAAAAAAAAAAAAAAAAAAAAAAAAAAAAAAAAAAAAAAAAAAAAAAAAAAAAAAAAAAAAAAAAAAAAAAAAAAAAAAAAAAAAAAAAAAAAAAAAAAAAAAAAAAAAAAAAAAAAAAAAAAAAAAAAAAAAAAAAAAAAAAAAAAAAAAAAAAAAAAAAAAAAAAAAAAAAAAAAAAAAAAAAAAAAAAAAAAAAAAAAAAABC4C9kVXQAolKgAAAAAAAAAAAAAAAAAAAAAAAAAAAAAAAAAAAAAAAAAAAAAAAAAAAAAAAAAAAAAAAAAAAAAAAAAAAAAAAAAAAAAAAAAAAAAAAAAAAAAAAAAAAAAAAAAAAAAAAAAAAAAAAAAAAAAAAAAAAAAAAAAAAAAAAAAAAAAAAAAAAAAAAAAAAAAAAAAAAAAAAAAAAAAAAAAAAAAAAAAAAAAAAAAAAAAAAAAAAAAAAAAAAAAAAAAAAAAELgL2RVdACiUqAAAAAAAAAAAAAAAAAAAAAAAAAAAAAAAAAAAAAAAAAAAAAAAAAAAAAAAAAAAAAAAAAAAAAAAAAAAAAAAAAAAAAAAAAAAAAAAAAAAAAAAAAAAAAAAAAAAAAAAAAAAAAAAAAAAAAAAAAAAAAAAAAAAAAAAAAAAAAAAAAAAAAAAAAAAAAAAAAAAAAAAAAAAAAAAAAAAAAAAAAAAAAAAAAAAAAAAAAAAAAAAAAAAAAAAAAAAAAAQuAvZFV0AKJSoAAAAAAAAAAAAAAAAAAAAAAAAAAAAAAAAAAAAAAAAAAAAAAAAAAAAAAAAAAAAAAAAAAAAAAAAAAAAAAAAAAAAAAAAAAAAAAAAAAAAAAAAAAAAAAAAAAAAAAAAAAAAAAAAAAAAAAAAAAAAAAAAAAAAAAAAAAAAAAAAAAAAAAAAAAAAAAAAAAAAAAAAAAAAAAAAAAAAAAAAAAAAAAAAAAAAAAAAAAAAAAAAAAAAAAAAAAAAABC4C9kVXQAolKgAAAAAAAAAAAAAAAAAAAAAAAAAAAAAAAAAAAAAAAAAAAAAAAAAAAAAAAAAAAAAAAAAAAAAAAAAAAAAAAAAAAAAAAAAAAAAAAAAAAAAAAAAAAAAAAAAAAAAAAAAAAAAAAAAAAAAAAAAAAAAAAAAAAAAAAAAAAAAAAAAAAAAAAAAAAAAAAAAAAAAAAAAAAAAAAAAAAAAAAAAAAAAAAAAAAAAAAAAAAAAAAAAAAAAAAAAAAAAELgL2RVdAhcQTgT13d8zq759Hb4LoELhwJ67u+Y3z6O3wXQIXDgT13d8xvn0dvgugQuHAnru75jfPo7fBdAhcOBPXd3zG+fR2+C6BC4cCeu7vmN8+jt8F0CFw4E9d3fMb59Hb4LoELhwJ67u+Y3z6O3wXQIXDgT13d8xvn0dvgugQuHAnru75jfPo7fBdAhcOBPXd3zG+fR2+C6BC4cCeu7vmN8+jt8F0CFw4E9d3fMb59Hb4LoELhwJ67u+Y3z6O3wXQIXDgT13d8xvn0dvgugQuHAnru75jfPo7fBdAhcOBPXd3zG+fR2+C6BC4cCeu7vmN8+jt8F0CFw4E9d3fMb59Hb4LoELhwJ67u+Y3z6O3wXQIXDgT13d8xvn0dvgugQuHAnru75jfPo7fBdAhcOBPXd3zG+fR2+C6BC4cCeu7vmN8+jt8F0CFw4E9d3fMb59Hb4LoELhwJ67u+Y3z6O3wXQIXDgT13d8xvn0dvgugQuHAnru75jfPo7fBdAhcOBPXd3zG+fR2+C6BC4cCeu7vmN8+jt8F0CFw4E9d3fMb59Hb4LoELhwJ67u+Y3z6O3wXQIXDgT13d8xvn0dvgugQuHAnru75jfPo7fBdAhcOBPXd3zG+fR2+C6BC4cCeu7vmN8+jt8F0CFw4E9d3fMb59Hb4LoELhwJ67u+Y3z6O3wXQIXDgT13d8xvn0dvgugQuHAnru75jfPo7fBdAhcOBPXd3zG+fR2+C6BC4cCeu7vmN8+jt8F0CFw4E9d3fMb59Hb4LoELhwJ67u+Y3z6O3wXQIXDgT13d8xvn0dvgugQuHAnru75jfPo7fBdAhcOBPXd3zG+fR2+C6BC4cCeu7vmN8+jt8F0CFw4E9d3fMb59Hb4LoELhwJ67u+Y3z6O3wXQIXDgT13d8xvn0dvgugQuHAnru75jfPo7fBdAhcOBPXd3zG+fR2+C6BC4cCeu7vmN8+jt8F0CFw4E9d3fMb59Hb4LoELhwJ67u+Y3z6O3wXQIXDgT13d8xvn0dvgugQuHAnru75jfPo7fBdAhcOBPXd3zG+fR2+C6BC4cCeu7vmN8+jt8F0CFw4E9d3fMb59Hb4LoELhwJ67u+Y3z6O3wXQIXDgT13d8xvn0dvgugQuHAnru75jfPo7fBdAhcOBPXd3zG+fR2+C6BC4cCeu7vmN8+jt8F0CFw4E9d3fMb59Hb4LoELhwJ67u+Y3z6O3wXQIXDgT13d8xvn0dvgugQuHAnru75jfPo7fBdAhcOBPXd3zG+fR2+C6BC4cCeu7vmN8+jt8F0CFw4E9d3fMb59Hb4LoELhwJ67u+Y3z6O3wXQIXDgT13d8xvn0dvgugQuHAnru75jfPo7fBdAhcOBPXd3zG+fR2+C6BC4cCeu7vmN8+jt8F0CFw4E9d3fMb59Hb4LoELhwJ67u+Y3z6O3wXQIXDgT13d8xvn0dvgugQuHAnru75jfPo7fBdAhcOBPXd3zG+fR2+C6BC4cCeu7vmN8+jt8F0CFw4E9d3fMb59Hb4LoELhwJ67u+Y3z6O3wXQIXDgT13d8xvn0dvgugQuHAnru75jfPo7fBdAhcOBPXd3zG+fR2+C6BC4cCeu7vmN8+jt8F0CFw4E9d3fMb59Hb4LoELhwJ67u+Y3z6O3wXQIXDgT13d8xvn0dvgugQuHAnru75jfPo7fBdAhcOBPXd3zG+fR2+C6BC4cCeu7vmN8+jt8F0CFw4E9d3fMb59Hb4LoELhwJ67u+Y3z6O3wXQIXDgT13d8xvn0dvgugQuHAnru75jfPo7fBdAhcOBPXd3zG+fR2+C6BC4cCeu7vmN8+jt8F0CFw4E9d3fMb59Hb4LoELhwJ67u+Y3z6O3wXQIXDgT13d8xvn0dvgugQuHAnru75jfPo7fBdAhcOBPXd3zG+fR2+C6BC4cCeu7vmN8+jt8F0CFw4E9d3fMb59Hb4LoELhwJ67u+Y3z6O3wXQIXDgT13d8xvn0dvgugQuHAnru75jfPo7fBdAhcOBPXd3zG+fR2+C6BC4cCeu7vmN8+jt8F0CFw4E9d3fMb59Hb4LoELhwJ67u+Y3z6O3wXQIXDgT13d8xvn0dvgugQuHAnru75jfPo7fBdAhcOBPXd3zG+fR2+C6BC55ScCeu7vmN8+jt8DuHhhZX3HpbHF9L+j//Z;clipPath=inset(20.41% 20.33% 20.41% 21%);" parent="1" vertex="1">
          <mxGeometry x="590" y="585" width="140" height="79.55" as="geometry" />
        </mxCell>
        <mxCell id="idugW8RmlfMsUO6L2Yv1-37" value="" style="sketch=0;shadow=0;dashed=0;html=1;strokeColor=#6881B3;fillColor=#CCCBCB;labelPosition=center;verticalLabelPosition=bottom;verticalAlign=top;outlineConnect=0;align=center;shape=mxgraph.office.databases.monitoring_store;strokeWidth=2;" parent="1" vertex="1">
          <mxGeometry x="31" y="590" width="140" height="120" as="geometry" />
        </mxCell>
        <mxCell id="idugW8RmlfMsUO6L2Yv1-40" value="&lt;b&gt;Google Analytics&lt;/b&gt;" style="text;html=1;strokeColor=none;fillColor=none;align=center;verticalAlign=middle;whiteSpace=wrap;rounded=0;" parent="1" vertex="1">
          <mxGeometry x="20.5" y="670" width="130" height="30" as="geometry" />
        </mxCell>
        <mxCell id="idugW8RmlfMsUO6L2Yv1-63" value="" style="line;strokeWidth=2;direction=south;html=1;" parent="1" vertex="1">
          <mxGeometry x="250" y="190" width="10" height="440" as="geometry" />
        </mxCell>
        <mxCell id="idugW8RmlfMsUO6L2Yv1-64" value="" style="line;strokeWidth=2;html=1;perimeter=backbonePerimeter;points=[];outlineConnect=0;" parent="1" vertex="1">
          <mxGeometry x="160" y="186" width="96" height="10" as="geometry" />
        </mxCell>
        <mxCell id="idugW8RmlfMsUO6L2Yv1-65" value="" style="line;strokeWidth=2;html=1;perimeter=backbonePerimeter;points=[];outlineConnect=0;" parent="1" vertex="1">
          <mxGeometry x="160" y="290" width="94" height="10" as="geometry" />
        </mxCell>
        <mxCell id="idugW8RmlfMsUO6L2Yv1-66" value="" style="line;strokeWidth=2;html=1;perimeter=backbonePerimeter;points=[];outlineConnect=0;" parent="1" vertex="1">
          <mxGeometry x="160" y="401.25" width="96" height="10" as="geometry" />
        </mxCell>
        <mxCell id="idugW8RmlfMsUO6L2Yv1-67" value="" style="line;strokeWidth=2;html=1;perimeter=backbonePerimeter;points=[];outlineConnect=0;" parent="1" vertex="1">
          <mxGeometry x="160" y="515.8" width="94" height="10" as="geometry" />
        </mxCell>
        <mxCell id="idugW8RmlfMsUO6L2Yv1-68" value="" style="line;strokeWidth=2;html=1;perimeter=backbonePerimeter;points=[];outlineConnect=0;" parent="1" vertex="1">
          <mxGeometry x="160" y="625.55" width="96" height="10" as="geometry" />
        </mxCell>
        <mxCell id="idugW8RmlfMsUO6L2Yv1-70" value="" style="line;strokeWidth=2;direction=south;html=1;rounded=0;fontFamily=Helvetica;fontSize=12;fontColor=default;fillColor=none;gradientColor=none;" parent="1" vertex="1">
          <mxGeometry x="509" y="190" width="10" height="440" as="geometry" />
        </mxCell>
        <mxCell id="idugW8RmlfMsUO6L2Yv1-71" value="" style="endArrow=classic;html=1;rounded=0;fontFamily=Helvetica;fontSize=12;fontColor=default;strokeWidth=2;" parent="1" edge="1">
          <mxGeometry width="50" height="50" relative="1" as="geometry">
            <mxPoint x="254" y="359" as="sourcePoint" />
            <mxPoint x="290" y="359" as="targetPoint" />
          </mxGeometry>
        </mxCell>
        <mxCell id="idugW8RmlfMsUO6L2Yv1-72" value="" style="line;strokeWidth=2;html=1;perimeter=backbonePerimeter;points=[];outlineConnect=0;" parent="1" vertex="1">
          <mxGeometry x="513" y="186" width="60" height="10" as="geometry" />
        </mxCell>
        <mxCell id="idugW8RmlfMsUO6L2Yv1-74" value="" style="endArrow=none;html=1;rounded=0;dashed=1;" parent="1" edge="1">
          <mxGeometry width="50" height="50" relative="1" as="geometry">
            <mxPoint x="530" y="720" as="sourcePoint" />
            <mxPoint x="530" y="334.66666666666674" as="targetPoint" />
          </mxGeometry>
        </mxCell>
        <mxCell id="idugW8RmlfMsUO6L2Yv1-73" value="" style="line;strokeWidth=2;html=1;perimeter=backbonePerimeter;points=[];outlineConnect=0;" parent="1" vertex="1">
          <mxGeometry x="513" y="330" width="60" height="10" as="geometry" />
        </mxCell>
        <mxCell id="idugW8RmlfMsUO6L2Yv1-75" value="" style="line;strokeWidth=2;html=1;perimeter=backbonePerimeter;points=[];outlineConnect=0;" parent="1" vertex="1">
          <mxGeometry x="513" y="467.9" width="60" height="10" as="geometry" />
        </mxCell>
        <mxCell id="idugW8RmlfMsUO6L2Yv1-76" value="" style="line;strokeWidth=2;html=1;perimeter=backbonePerimeter;points=[];outlineConnect=0;" parent="1" vertex="1">
          <mxGeometry x="513" y="624" width="60" height="10" as="geometry" />
        </mxCell>
        <mxCell id="idugW8RmlfMsUO6L2Yv1-77" value="" style="endArrow=classic;html=1;rounded=0;fontFamily=Helvetica;fontSize=12;fontColor=default;strokeWidth=2;" parent="1" edge="1">
          <mxGeometry width="50" height="50" relative="1" as="geometry">
            <mxPoint x="514" y="360" as="sourcePoint" />
            <mxPoint x="480" y="360" as="targetPoint" />
            <Array as="points">
              <mxPoint x="504" y="360" />
              <mxPoint x="494" y="360" />
            </Array>
          </mxGeometry>
        </mxCell>
        <mxCell id="idugW8RmlfMsUO6L2Yv1-78" value="Datawarehouses" style="text;html=1;strokeColor=none;fillColor=none;align=center;verticalAlign=middle;whiteSpace=wrap;rounded=0;fontSize=15;fontFamily=Helvetica;fontColor=default;fontStyle=1" parent="1" vertex="1">
          <mxGeometry x="354.5" y="290" width="60" height="30" as="geometry" />
        </mxCell>
        <mxCell id="idugW8RmlfMsUO6L2Yv1-85" value="" style="shape=ext;double=1;rounded=0;whiteSpace=wrap;html=1;fontFamily=Helvetica;fontSize=12;fontColor=default;fillColor=none;gradientColor=none;rotation=-90;strokeWidth=2;" parent="1" vertex="1">
          <mxGeometry x="58" y="-29" width="698.5" height="821" as="geometry" />
        </mxCell>
      </root>
    </mxGraphModel>
  </diagram>
</mxfile>
